{
.appVersion = "1141";
DisplayStrings = (
"aáâäàåã",
"Expletus Sans\012ABCDEFGHIJKLMNOPQRSTUVWXYZ\012abcdefghijklmnopqrstuvwxyz\0120123456789 &"
);
classes = (
{
automatic = 1;
code = "A Aacute Acircumflex Adieresis Agrave Aring Atilde AE B C Ccedilla D Eth E Eacute Ecircumflex Edieresis Egrave F G H I Iacute Icircumflex Idieresis Igrave J K L M N Ntilde O Oacute Ocircumflex Odieresis Ograve Oslash Otilde OE P Thorn Q R S Scaron T U Uacute Ucircumflex Udieresis Ugrave V W X Y Yacute Ydieresis Z Zcaron";
name = Uppercase;
}
);
copyright = "Copyright 2018 The Expletus Sans Project Authors (https://bitbucket.org/lassefister/old-googlefontdirectory/src/21142f3bf7ad39d89c1c682d30830494ef1c905c/ofl/expletussans/?at=default), with Reserved Font Name \"Expletus Sans\".";
customParameters = (
{
name = licenseURL;
value = "http://scripts.sil.org/OFL";
},
{
name = license;
value = "This Font Software is licensed under the SIL Open Font License, Version 1.1. This license is available with a FAQ at: http://scripts.sil.org/OFL";
},
{
name = openTypeNameSampleText;
value = "";
},
{
name = openTypeOS2FamilyClass;
value = (
0,
0
);
},
{
name = openTypeOS2Panose;
value = (
2,
0,
0,
0,
0,
0,
0,
0,
0,
0
);
},
{
name = openTypeOS2Selection;
value = (
);
},
{
name = openTypeOS2StrikeoutPosition;
value = 250;
},
{
name = openTypeOS2StrikeoutSize;
value = 50;
},
{
name = openTypeOS2SubscriptXOffset;
value = 0;
},
{
name = openTypeOS2SubscriptXSize;
value = 700;
},
{
name = openTypeOS2SubscriptYOffset;
value = 140;
},
{
name = openTypeOS2SubscriptYSize;
value = 650;
},
{
name = openTypeOS2SuperscriptXOffset;
value = 0;
},
{
name = openTypeOS2SuperscriptXSize;
value = 700;
},
{
name = openTypeOS2SuperscriptYOffset;
value = 477;
},
{
name = openTypeOS2SuperscriptYSize;
value = 650;
},
{
name = fsType;
value = (
);
},
{
name = vendorID;
value = pyrs;
},
{
name = blueFuzz;
value = 1;
},
{
name = blueScale;
value = 0.03963;
},
{
name = blueShift;
value = 7;
},
{
name = trademark;

glyphs = (
{
glyphname = A;
layers = (
{
anchors = (
{
name = bottom;
position = "{344, 0}";
},
{
name = ogonek;
position = "{652, 0}";
},
{
name = top;
position = "{344, 727}";
}
);
hints = (
{
horizontal = 1;
origin = "{0, 14}";
target = up;
type = BottomGhost;
},
{
horizontal = 1;
origin = "{0, 12}";
target = "{0, 7}";
type = Stem;
},
{
horizontal = 1;
origin = "{0, 15}";
target = down;
type = TopGhost;
}
);
layerId = "BAA2CE79-BA31-4701-835E-3D9478C3F4B2";
paths = (
{
closed = 1;
nodes = (
"130 0 LINE",
"190 174 LINE",
"442 174 LINE",
"428 212 OFFCURVE",
"405 246 OFFCURVE",
"357 246 CURVE SMOOTH",
"222 246 LINE",
"210 244 LINE",
"221 265 LINE",
"333 586 LINE",
"340 615 LINE",
"347 586 LINE",
"550 0 LINE",
"652 0 LINE",
"390 727 LINE {name = hr00;}",
"297 727 LINE",
"35 0 LINE"
);
}
);
width = 687;
},
{
anchors = (
{
name = bottom;
position = "{340, 0}";
},
{
name = ogonek;
position = "{652, 0}";
},
{
name = top;
position = "{433, 727}";
}
);
hints = (
{
horizontal = 1;
origin = "{0, 14}";
target = up;
type = BottomGhost;
},
{
horizontal = 1;
origin = "{0, 12}";
target = "{0, 7}";
type = Stem;
},
{
horizontal = 1;
origin = "{0, 15}";
target = down;
type = TopGhost;
}
);
layerId = "3BBF7C5C-CA4C-45AB-AE18-0528A0ACCA90";
paths = (
{
closed = 1;
nodes = (
"130 0 LINE",
"211 174 LINE",
"463 174 LINE",
"454 212 OFFCURVE",
"435 246 OFFCURVE",
"387 246 CURVE SMOOTH",
"252 246 LINE",
"239 244 LINE",
"253 265 LINE",
"404 586 LINE",
"415 615 LINE",
"418 586 LINE",
"550 0 LINE",
"652 0 LINE",
"479 727 LINE {name = hr00;}",
"386 727 LINE",
"35 0 LINE"
);
}
);
width = 687;
},
{
anchors = (
{
name = bottom;
position = "{361, 0}";
},
{
name = ogonek;
position = "{692, 0}";
},
{
name = top;
position = "{361, 727}";
}
);
hints = (
{
horizontal = 1;
origin = "{0, 1}";
target = up;
type = BottomGhost;
},
{
horizontal = 1;
origin = "{0, 16}";
target = "{0, 11}";
type = Stem;
},
{
horizontal = 1;
origin = "{0, 2}";
target = down;
type = TopGhost;
}
);
layerId = "58254875-FB9E-4C1D-8B15-704836B9A7CF";
paths = (
{
closed = 1;
nodes = (
"171 0 LINE",
"224 159 LINE {name = hr00;}",
"441 159 LINE",
"427 203 OFFCURVE",
"399 262 OFFCURVE",
"341 262 CURVE SMOOTH",
"265 262 LINE",
"250 260 LINE",
"262 280 LINE",
"347 539 LINE",
"356 578 LINE",
"364 541 LINE",
"544 0 LINE",
"692 0 LINE",
"431 727 LINE",
"291 727 LINE",
"30 0 LINE"
);
}
);
width = 722;
},
{
anchors = (
{
name = bottom;
position = "{358, 0}";
},
{
name = ogonek;
position = "{692, 0}";
},
{
name = top;
position = "{450, 727}";
}
);
hints = (
{
horizontal = 1;
origin = "{0, 1}";
target = up;
type = BottomGhost;
},
{
horizontal = 1;
origin = "{0, 16}";
target = "{0, 11}";
type = Stem;
},
{
horizontal = 1;
origin = "{0, 2}";
target = down;
type = TopGhost;
}
);
layerId = "5E1C92F4-866D-4CC0-BA00-538F5374015A";
paths = (
{
closed = 1;
nodes = (
"171 0 LINE",
"243 159 LINE {name = hr00;}",
"460 159 LINE",
"451 203 OFFCURVE",
"431 262 OFFCURVE",
"373 262 CURVE SMOOTH",
"297 262 LINE",
"281 260 LINE",
"296 280 LINE",
"413 539 LINE",
"426 578 LINE",
"430 541 LINE",
"544 0 LINE",
"692 0 LINE",
"520 727 LINE",
"380 727 LINE",
"30 0 LINE"
);
}
);
width = 722;
}
);
unicode = 0041;
userData = {
com.typemytype.robofont.guides = (
{
angle = 90;
isGlobal = 0;
magnetic = 5;
x = 255;
y = 0;
}
);
};
},
{
glyphname = AE;
layers = (
{
anchors = (
{
name = bottom;
position = "{488, 0}";
},
{
name = top;
position = "{488, 727}";
}
);
hints = (
{
horizontal = 1;
origin = "{0, 11}";
target = "{0, 16}";
type = Stem;
},
{
horizontal = 1;
origin = "{0, 9}";
target = "{0, 4}";
type = Stem;
},
{
horizontal = 1;
origin = "{1, 1}";
target = "{1, 4}";
type = Stem;
},
{
horizontal = 1;
origin = "{0, 15}";
target = "{0, 12}";
type = Stem;
}
);
layerId = "BAA2CE79-BA31-4701-835E-3D9478C3F4B2";
paths = (
{
closed = 1;
nodes = (
"120 0 LINE",
"207 174 LINE",
"468 174 LINE",
"454 212 OFFCURVE",
"431 246 OFFCURVE",
"383 246 CURVE SMOOTH",
"255 246 LINE",
"237 244 LINE",
"251 265 LINE",
"421 605 LINE",
"436 645 LINE",
"438 605 LINE {name = hr00;}",
"533 0 LINE",
"914 0 LINE",
"914 72 LINE",
"610 72 LINE",
"520 655 LINE",
"844 655 LINE",
"844 727 LINE",
"390 727 LINE",
"21 0 LINE"
);
},
{
closed = 1;
nodes = (
"854 346 LINE",
"854 416 LINE",
"684 416 LINE",
"636 416 OFFCURVE",
"614 384 OFFCURVE",
"602 346 CURVE"
);
}
);
width = 975;
},
{
anchors = (
{
name = bottom;
position = "{470, 0}";
},
{
name = top;
position = "{560, 727}";
}
);
hints = (
{
horizontal = 1;
origin = "{0, 11}";
target = "{0, 16}";
type = Stem;
},
{
horizontal = 1;
origin = "{0, 9}";
target = "{0, 4}";
type = Stem;
},
{
horizontal = 1;
origin = "{1, 1}";
target = "{1, 4}";
type = Stem;
},
{
horizontal = 1;
origin = "{0, 15}";
target = "{0, 12}";
type = Stem;
}
);
layerId = "3BBF7C5C-CA4C-45AB-AE18-0528A0ACCA90";
paths = (
{
closed = 1;
nodes = (
"120 0 LINE",
"228 174 LINE",
"489 174 LINE",
"480 212 OFFCURVE",
"461 246 OFFCURVE",
"413 246 CURVE SMOOTH",
"285 246 LINE",
"266 244 LINE",
"283 265 LINE",
"495 605 LINE",
"515 645 LINE",
"512 605 LINE {name = hr00;}",
"533 0 LINE",
"914 0 LINE",
"922 72 LINE",
"618 72 LINE",
"600 655 LINE",
"924 655 LINE",
"933 727 LINE",
"479 727 LINE",
"21 0 LINE"
);
},
{
closed = 1;
nodes = (
"896 346 LINE",
"905 416 LINE",
"735 416 LINE",
"687 416 OFFCURVE",
"661 384 OFFCURVE",
"644 346 CURVE"
);
}
);
width = 975;
},
{
anchors = (
{
name = bottom;
position = "{488, 0}";
},
{
name = top;
position = "{488, 727}";
}
);
hints = (
{
horizontal = 1;
origin = "{0, 1}";
target = "{0, 6}";
type = Stem;
},
{
horizontal = 1;
origin = "{0, 20}";
target = "{0, 15}";
type = Stem;
},
{
horizontal = 1;
origin = "{1, 5}";
target = "{1, 2}";
type = Stem;
},
{
horizontal = 1;
origin = "{0, 5}";
target = "{0, 2}";
type = Stem;
}
);
layerId = "58254875-FB9E-4C1D-8B15-704836B9A7CF";
paths = (
{
closed = 1;
nodes = (
"141 0 LINE",
"218 159 LINE {name = hr00;}",
"446 159 LINE",
"432 203 OFFCURVE",
"404 262 OFFCURVE",
"346 262 CURVE SMOOTH",
"279 262 LINE",
"259 260 LINE",
"274 280 LINE",
"406 554 LINE",
"420 589 LINE",
"423 552 LINE",
"506 0 LINE",
"915 0 LINE",
"915 103 LINE",
"624 103 LINE",
"546 624 LINE",
"844 624 LINE",
"844 727 LINE",
"372 727 LINE",
"0 0 LINE"
);
},
{
closed = 1;
nodes = (
"854 331 LINE",
"854 432 LINE",
"740 432 LINE SMOOTH",
"671 432 OFFCURVE",
"641 380 OFFCURVE",
"626 331 CURVE"
);
}
);
width = 975;
},
{
anchors = (
{
name = bottom;
position = "{464, 0}";
},
{
name = top;
position = "{556, 727}";
}
);
hints = (
{
horizontal = 1;
origin = "{0, 1}";
target = "{0, 6}";
type = Stem;
},
{
horizontal = 1;
origin = "{0, 20}";
target = "{0, 15}";
type = Stem;
},
{
horizontal = 1;
origin = "{1, 5}";
target = "{1, 2}";
type = Stem;
},
{
horizontal = 1;
origin = "{0, 5}";
target = "{0, 2}";
type = Stem;
}
);
layerId = "5E1C92F4-866D-4CC0-BA00-538F5374015A";
paths = (
{
closed = 1;
nodes = (
"141 0 LINE",
"237 159 LINE {name = hr00;}",
"465 159 LINE",
"456 203 OFFCURVE",
"436 262 OFFCURVE",
"378 262 CURVE SMOOTH",
"311 262 LINE",
"290 260 LINE",
"308 280 LINE",
"474 554 LINE",
"492 589 LINE",
"490 552 LINE",
"506 0 LINE",
"915 0 LINE",
"927 103 LINE",
"636 103 LINE",
"622 624 LINE",
"920 624 LINE",
"933 727 LINE",
"461 727 LINE",
"0 0 LINE"
);
},
{
closed = 1;
nodes = (
"894 331 LINE",
"907 432 LINE",
"793 432 LINE SMOOTH",
"724 432 OFFCURVE",
"687 380 OFFCURVE",
"666 331 CURVE"
);
}
);
width = 975;
}
);
unicode = 00C6;
userData = {
com.typemytype.robofont.guides = (
{
angle = 90;
isGlobal = 0;
magnetic = 5;
x = 255;
y = 0;
}
);
};
},
{
glyphname = B;
layers = (
{
anchors = (
{
name = bottom;
position = "{319, 0}";
},
{
name = top;
position = "{319, 727}";
}
);
hints = (
{
horizontal = 1;
origin = "{1, 7}";
target = "{1, 2}";
type = Stem;
},
{
horizontal = 1;
origin = "{1, 9}";
target = "{0, 9}";
type = Stem;
},
{
horizontal = 1;
origin = "{0, 5}";
target = "{1, 4}";
type = Stem;
},
{
origin = "{1, 0}";
target = "{1, 10}";
type = Stem;
},
{
origin = "{1, 5}";
target = "{1, 4}";
type = Stem;
},
{
horizontal = 1;
origin = "{1, 0}";
target = up;
type = BottomGhost;
},
{
origin = "{0, 2}";
target = "{1, 7}";
type = Stem;
}
);
layerId = "BAA2CE79-BA31-4701-835E-3D9478C3F4B2";
paths = (
{
closed = 1;
nodes = (
"507 -12 OFFCURVE",
"593 102 OFFCURVE",
"593 205 CURVE SMOOTH {name = hr01;}",
"593 285 OFFCURVE",
"549 345 OFFCURVE",
"474 381 CURVE",
"446 388 LINE",
"475 402 LINE",
"524 433 OFFCURVE",
"550 499 OFFCURVE",
"550 547 CURVE {name = hr02;}",
"550 655 OFFCURVE",
"467 740 OFFCURVE",
"297 740 CURVE SMOOTH",
"225 740 OFFCURVE",
"162 733 OFFCURVE",
"87 718 CURVE",
"87 0 LINE",
"182 0 LINE",
"182 346 LINE",
"297 346 LINE SMOOTH",
"405 346 OFFCURVE",
"492 301 OFFCURVE",
"492 201 CURVE SMOOTH {name = hr03;}",
"492 123 OFFCURVE",
"432 61 OFFCURVE",
"362 61 CURVE SMOOTH",
"344 61 OFFCURVE",
"333 62 OFFCURVE",
"317 64 CURVE",
"272 72 OFFCURVE",
"242 41 OFFCURVE",
"222 6 CURVE",
"281 -8 OFFCURVE",
"324 -12 OFFCURVE",
"362 -12 CURVE SMOOTH"
);
},
{
closed = 1;
nodes = (
"182 660 LINE",
"218 664 OFFCURVE",
"261 666 OFFCURVE",
"297 666 CURVE SMOOTH",
"398 666 OFFCURVE",
"451 615 OFFCURVE",
"451 547 CURVE SMOOTH",
"451 473 OFFCURVE",
"397 415 OFFCURVE",
"297 415 CURVE",
"182 415 LINE"
);
}
);
width = 643;
},
{
anchors = (
{
name = bottom;
position = "{301, 0}";
},
{
name = top;
position = "{391, 727}";
}
);
hints = (
{
horizontal = 1;
origin = "{1, 0}";
target = up;
type = BottomGhost;
},
{
horizontal = 1;
origin = "{1, 9}";
target = "{0, 9}";
type = Stem;
},
{
horizontal = 1;
origin = "{0, 5}";
target = "{1, 4}";
type = Stem;
},
{
horizontal = 1;
origin = "{1, 7}";
target = "{1, 2}";
type = Stem;
}
);
layerId = "3BBF7C5C-CA4C-45AB-AE18-0528A0ACCA90";
paths = (
{
closed = 1;
nodes = (
"505 -12 OFFCURVE",
"605 102 OFFCURVE",
"618 205 CURVE SMOOTH",
"627 285 OFFCURVE",
"591 345 OFFCURVE",
"520 381 CURVE",
"493 388 LINE",
"524 402 LINE",
"577 433 OFFCURVE",
"611 499 OFFCURVE",
"617 547 CURVE",
"630 655 OFFCURVE",
"557 740 OFFCURVE",
"387 740 CURVE SMOOTH",
"315 740 OFFCURVE",
"252 733 OFFCURVE",
"175 718 CURVE",
"87 0 LINE",
"182 0 LINE {name = hr01;}",
"224 346 LINE",
"339 346 LINE SMOOTH",
"447 346 OFFCURVE",
"528 301 OFFCURVE",
"516 201 CURVE SMOOTH",
"507 123 OFFCURVE",
"439 61 OFFCURVE",
"369 61 CURVE SMOOTH",
"351 61 OFFCURVE",
"340 62 OFFCURVE",
"324 64 CURVE",
"280 72 OFFCURVE",
"247 41 OFFCURVE",
"222 6 CURVE",
"280 -8 OFFCURVE",
"322 -12 OFFCURVE",
"360 -12 CURVE SMOOTH {name = hr02;}"
);
},
{
closed = 1;
nodes = (
"263 660 LINE",
"299 664 OFFCURVE",
"342 666 OFFCURVE",
"378 666 CURVE SMOOTH",
"479 666 OFFCURVE",
"526 615 OFFCURVE",
"518 547 CURVE SMOOTH",
"509 473 OFFCURVE",
"447 415 OFFCURVE",
"347 415 CURVE",
"232 415 LINE"
);
}
);
width = 643;
},
{
anchors = (
{
name = bottom;
position = "{335, 0}";
},
{
name = top;
position = "{335, 727}";
}
);
hints = (
{
horizontal = 1;
origin = "{1, 8}";
target = up;
type = BottomGhost;
},
{
horizontal = 1;
origin = "{1, 6}";
target = "{0, 9}";
type = Stem;
},
{
horizontal = 1;
origin = "{0, 5}";
target = "{1, 1}";
type = Stem;
},
{
origin = "{1, 8}";
target = "{1, 7}";
type = Stem;
},
{
origin = "{1, 2}";
target = "{1, 1}";
type = Stem;
},
{
horizontal = 1;
origin = "{1, 4}";
target = "{1, 10}";
type = Stem;
},
{
origin = "{0, 2}";
target = "{1, 4}";
type = Stem;
}
);
layerId = "58254875-FB9E-4C1D-8B15-704836B9A7CF";
paths = (
{
closed = 1;
nodes = (
"533 -11 OFFCURVE",
"630 102 OFFCURVE",
"630 205 CURVE SMOOTH {name = hr03;}",
"630 277 OFFCURVE",
"576 355 OFFCURVE",
"503 381 CURVE",
"475 388 LINE",
"504 402 LINE",
"553 433 OFFCURVE",
"587 486 OFFCURVE",
"587 535 CURVE {name = hr02;}",
"587 658 OFFCURVE",
"491 740 OFFCURVE",
"311 740 CURVE SMOOTH",
"239 740 OFFCURVE",
"188 734 OFFCURVE",
"81 716 CURVE",
"81 0 LINE",
"221 0 LINE",
"221 334 LINE",
"311 334 LINE SMOOTH",
"410 334 OFFCURVE",
"483 285 OFFCURVE",
"483 206 CURVE SMOOTH {name = hr01;}",
"483 133 OFFCURVE",
"433 92 OFFCURVE",
"364 90 CURVE SMOOTH",
"363 90 OFFCURVE",
"361 90 OFFCURVE",
"360 90 CURVE SMOOTH",
"306 90 OFFCURVE",
"276 41 OFFCURVE",
"260 6 CURVE",
"318 -8 OFFCURVE",
"339 -11 OFFCURVE",
"376 -11 CURVE SMOOTH"
);
},
{
closed = 1;
nodes = (
"221 632 LINE",
"257 637 OFFCURVE",
"275 639 OFFCURVE",
"311 639 CURVE SMOOTH",
"406 639 OFFCURVE",
"443 581 OFFCURVE",
"443 534 CURVE SMOOTH",
"443 471 OFFCURVE",
"380 428 OFFCURVE",
"311 428 CURVE",
"221 428 LINE"
);
}
);
width = 677;
},
{
anchors = (
{
name = bottom;
position = "{307, 0}";
},
{
name = top;
position = "{397, 727}";
}
);
hints = (
{
horizontal = 1;
origin = "{1, 8}";
target = up;
type = BottomGhost;
},
{
horizontal = 1;
origin = "{1, 6}";
target = "{0, 9}";
type = Stem;
},
{
horizontal = 1;
origin = "{0, 5}";
target = "{1, 1}";
type = Stem;
},
{
horizontal = 1;
origin = "{1, 4}";
target = "{1, 10}";
type = Stem;
}
);
layerId = "5E1C92F4-866D-4CC0-BA00-538F5374015A";
paths = (
{
closed = 1;
nodes = (
"531 -11 OFFCURVE",
"642 102 OFFCURVE",
"655 205 CURVE SMOOTH",
"664 277 OFFCURVE",
"619 355 OFFCURVE",
"549 381 CURVE",
"522 388 LINE",
"553 402 LINE",
"606 433 OFFCURVE",
"646 486 OFFCURVE",
"652 535 CURVE",
"667 658 OFFCURVE",
"581 740 OFFCURVE",
"401 740 CURVE SMOOTH",
"329 740 OFFCURVE",
"278 734 OFFCURVE",
"168 716 CURVE",
"81 0 LINE",
"221 0 LINE {name = hr01;}",
"262 334 LINE",
"352 334 LINE SMOOTH",
"451 334 OFFCURVE",
"517 285 OFFCURVE",
"508 206 CURVE SMOOTH",
"499 133 OFFCURVE",
"444 92 OFFCURVE",
"375 90 CURVE SMOOTH",
"374 90 OFFCURVE",
"372 90 OFFCURVE",
"371 90 CURVE SMOOTH",
"317 90 OFFCURVE",
"281 41 OFFCURVE",
"260 6 CURVE",
"317 -8 OFFCURVE",
"337 -11 OFFCURVE",
"374 -11 CURVE SMOOTH {name = hr02;}"
);
},
{
closed = 1;
nodes = (
"298 632 LINE",
"335 637 OFFCURVE",
"353 639 OFFCURVE",
"389 639 CURVE SMOOTH",
"484 639 OFFCURVE",
"514 581 OFFCURVE",
"508 534 CURVE SMOOTH",
"500 471 OFFCURVE",
"432 428 OFFCURVE",
"363 428 CURVE",
"273 428 LINE"
);
}
);
width = 677;
}
);
unicode = 0042;
},
{
glyphname = C;
layers = (
{
anchors = (
{
name = bottom;
position = "{370, 0}";
},
{
name = top;
position = "{370, 727}";
}
);
hints = (
{
horizontal = 1;
origin = "{0, 25}";
target = "{0, 6}";
type = Stem;
},
{
horizontal = 1;
origin = "{0, 12}";
target = "{0, 19}";
type = Stem;
},
{
origin = "{0, 22}";
target = "{0, 9}";
type = Stem;
}
);
layerId = "BAA2CE79-BA31-4701-835E-3D9478C3F4B2";
paths = (
{
closed = 1;
nodes = (
"490 -12 OFFCURVE",
"549 1 OFFCURVE",
"611 34 CURVE",
"585 99 LINE",
"530 71 OFFCURVE",
"480 60 OFFCURVE",
"434 60 CURVE",
"296 60 OFFCURVE",
"174 181 OFFCURVE",
"174 362 CURVE SMOOTH",
"174 566 OFFCURVE",
"296 667 OFFCURVE",
"434 667 CURVE SMOOTH",
"480 667 OFFCURVE",
"527 660 OFFCURVE",
"585 641 CURVE",
"611 706 LINE",
"550 729 OFFCURVE",
"490 740 OFFCURVE",
"434 740 CURVE SMOOTH",
"229 740 OFFCURVE",
"72 586 OFFCURVE",
"72 362 CURVE SMOOTH",
"72 131 OFFCURVE",
"229 -12 OFFCURVE",
"434 -12 CURVE SMOOTH {name = hr00;}"
);
}
);
width = 652;
},
{
anchors = (
{
name = bottom;
position = "{367, 0}";
},
{
name = top;
position = "{477, 727}";
}
);
hints = (
{
horizontal = 1;
origin = "{0, 25}";
target = "{0, 6}";
type = Stem;
},
{
horizontal = 1;
origin = "{0, 12}";
target = "{0, 19}";
type = Stem;
}
);
layerId = "3BBF7C5C-CA4C-45AB-AE18-0528A0ACCA90";
paths = (
{
closed = 1;
nodes = (
"488 -12 OFFCURVE",
"549 1 OFFCURVE",
"615 34 CURVE",
"597 99 LINE",
"538 71 OFFCURVE",
"487 60 OFFCURVE",
"441 60 CURVE",
"303 60 OFFCURVE",
"196 181 OFFCURVE",
"218 362 CURVE SMOOTH",
"243 566 OFFCURVE",
"377 667 OFFCURVE",
"515 667 CURVE SMOOTH",
"561 667 OFFCURVE",
"608 660 OFFCURVE",
"663 641 CURVE",
"697 706 LINE",
"639 729 OFFCURVE",
"580 740 OFFCURVE",
"524 740 CURVE SMOOTH",
"319 740 OFFCURVE",
"143 586 OFFCURVE",
"116 362 CURVE SMOOTH",
"88 131 OFFCURVE",
"227 -12 OFFCURVE",
"432 -12 CURVE SMOOTH {name = hr00;}"
);
}
);
width = 652;
},
{
anchors = (
{
name = bottom;
position = "{375, 0}";
},
{
name = top;
position = "{382, 727}";
}
);
hints = (
{
horizontal = 1;
origin = "{0, 25}";
target = "{0, 6}";
type = Stem;
},
{
horizontal = 1;
origin = "{0, 12}";
target = "{0, 19}";
type = Stem;
},
{
origin = "{0, 22}";
target = "{0, 9}";
type = Stem;
}
);
layerId = "58254875-FB9E-4C1D-8B15-704836B9A7CF";
paths = (
{
closed = 1;
nodes = (
"491 -12 OFFCURVE",
"552 3 OFFCURVE",
"611 34 CURVE",
"574 125 LINE",
"525 102 OFFCURVE",
"481 91 OFFCURVE",
"435 91 CURVE",
"276 91 OFFCURVE",
"200 226 OFFCURVE",
"200 364 CURVE",
"200 502 OFFCURVE",
"276 637 OFFCURVE",
"435 637 CURVE SMOOTH",
"481 637 OFFCURVE",
"516 631 OFFCURVE",
"575 614 CURVE",
"611 706 LINE",
"548 730 OFFCURVE",
"491 740 OFFCURVE",
"435 740 CURVE SMOOTH",
"194 740 OFFCURVE",
"48 572 OFFCURVE",
"48 364 CURVE",
"48 153 OFFCURVE",
"188 -12 OFFCURVE",
"435 -12 CURVE {name = hr00;}"
);
}
);
width = 602;
},
{
anchors = (
{
name = bottom;
position = "{371, 0}";
},
{
name = top;
position = "{499, 727}";
}
);
hints = (
{
horizontal = 1;
origin = "{0, 25}";
target = "{0, 6}";
type = Stem;
},
{
horizontal = 1;
origin = "{0, 12}";
target = "{0, 19}";
type = Stem;
}
);
layerId = "5E1C92F4-866D-4CC0-BA00-538F5374015A";
paths = (
{
closed = 1;
nodes = (
"489 -12 OFFCURVE",
"552 3 OFFCURVE",
"615 34 CURVE",
"589 125 LINE",
"537 102 OFFCURVE",
"492 91 OFFCURVE",
"446 91 CURVE",
"287 91 OFFCURVE",
"227 226 OFFCURVE",
"244 364 CURVE",
"261 502 OFFCURVE",
"354 637 OFFCURVE",
"513 637 CURVE SMOOTH",
"559 637 OFFCURVE",
"593 631 OFFCURVE",
"650 614 CURVE",
"697 706 LINE",
"637 730 OFFCURVE",
"581 740 OFFCURVE",
"525 740 CURVE SMOOTH",
"284 740 OFFCURVE",
"118 572 OFFCURVE",
"92 364 CURVE",
"66 153 OFFCURVE",
"186 -12 OFFCURVE",
"433 -12 CURVE {name = hr00;}"
);
}
);
width = 602;
}
);
unicode = 0043;
},
{
glyphname = Ccedilla;
layers = (
{
components = (
{
name = C;
},
{
name = cedillacomb;
transform = "{1, 0, 0, 1, 233, 0}";
}
);
hints = (
{
horizontal = 1;
place = "{-206, 49}";
type = Stem;
},
{
horizontal = 1;
place = "{-12, 72}";
type = Stem;
},
{
horizontal = 1;
place = "{667, 73}";
type = Stem;
},
{
place = "{72, 102}";
type = Stem;
},
{
place = "{405, 61}";
type = Stem;
}
);
layerId = "BAA2CE79-BA31-4701-835E-3D9478C3F4B2";
width = 652;
},
{
background = {
paths = (
{
closed = 1;
nodes = (
"380 -206 OFFCURVE",
"443 -183 OFFCURVE",
"450 -123 CURVE SMOOTH",
"455 -82 OFFCURVE",
"417 -54 OFFCURVE",
"379 -50 CURVE",
"394 -10 LINE",
"406 -11 OFFCURVE",
"419 -12 OFFCURVE",
"432 -12 CURVE SMOOTH {name = hr00;}",
"488 -12 OFFCURVE",
"549 1 OFFCURVE",
"615 34 CURVE",
"597 99 LINE",
"538 71 OFFCURVE",
"487 60 OFFCURVE",
"441 60 CURVE SMOOTH",
"303 60 OFFCURVE",
"194 166 OFFCURVE",
"218 362 CURVE SMOOTH",
"243 566 OFFCURVE",
"377 667 OFFCURVE",
"515 667 CURVE SMOOTH",
"561 667 OFFCURVE",
"608 660 OFFCURVE",
"663 641 CURVE",
"697 706 LINE",
"639 729 OFFCURVE",
"580 740 OFFCURVE",
"524 740 CURVE SMOOTH",
"319 740 OFFCURVE",
"143 586 OFFCURVE",
"116 362 CURVE SMOOTH",
"92 165 OFFCURVE",
"191 29 OFFCURVE",
"350 -4 CURVE",
"319 -84 LINE",
"366 -89 OFFCURVE",
"392 -101 OFFCURVE",
"389 -126 CURVE SMOOTH",
"386 -150 OFFCURVE",
"355 -157 OFFCURVE",
"332 -157 CURVE SMOOTH",
"312 -157 OFFCURVE",
"293 -154 OFFCURVE",
"269 -144 CURVE",
"250 -187 LINE",
"280 -201 OFFCURVE",
"303 -206 OFFCURVE",
"326 -206 CURVE SMOOTH"
);
}
);
};
components = (
{
name = C;
},
{
name = cedillacomb;
transform = "{1, 0, 0, 1, 265, 0}";
}
);
hints = (
{
horizontal = 1;
place = "{-206, 49}";
type = Stem;
},
{
horizontal = 1;
place = "{-12, 72}";
type = Stem;
},
{
horizontal = 1;
place = "{667, 73}";
type = Stem;
}
);
layerId = "3BBF7C5C-CA4C-45AB-AE18-0528A0ACCA90";
width = 652;
},
{
background = {
paths = (
{
closed = 1;
nodes = (
"413 -213 OFFCURVE",
"479 -183 OFFCURVE",
"479 -123 CURVE SMOOTH",
"479 -79 OFFCURVE",
"438 -52 OFFCURVE",
"398 -43 CURVE",
"405 -11 LINE {name = hr01;}",
"415 -11 OFFCURVE",
"425 -12 OFFCURVE",
"435 -12 CURVE SMOOTH",
"491 -12 OFFCURVE",
"552 3 OFFCURVE",
"611 34 CURVE",
"574 125 LINE",
"525 102 OFFCURVE",
"481 91 OFFCURVE",
"435 91 CURVE SMOOTH {name = hr02;}",
"276 91 OFFCURVE",
"200 226 OFFCURVE",
"200 364 CURVE SMOOTH",
"200 502 OFFCURVE",
"276 637 OFFCURVE",
"435 637 CURVE SMOOTH",
"481 637 OFFCURVE",
"516 631 OFFCURVE",
"575 614 CURVE",
"611 706 LINE",
"548 730 OFFCURVE",
"491 740 OFFCURVE",
"435 740 CURVE SMOOTH",
"194 740 OFFCURVE",
"48 572 OFFCURVE",
"48 364 CURVE SMOOTH",
"48 181 OFFCURVE",
"153 33 OFFCURVE",
"341 -3 CURVE",
"318 -91 LINE",
"365 -96 OFFCURVE",
"392 -106 OFFCURVE",
"392 -126 CURVE SMOOTH",
"392 -141 OFFCURVE",
"375 -150 OFFCURVE",
"352 -150 CURVE SMOOTH",
"332 -150 OFFCURVE",
"314 -147 OFFCURVE",
"289 -138 CURVE",
"271 -193 LINE",
"303 -207 OFFCURVE",
"329 -213 OFFCURVE",
"352 -213 CURVE SMOOTH"
);
}
);
};
components = (
{
name = C;
},
{
name = cedillacomb;
transform = "{1, 0, 0, 1, 231, 0}";
}
);
hints = (
{
horizontal = 1;
place = "{-213, 63}";
type = Stem;
},
{
horizontal = 1;
place = "{-11, 21}";
target = up;
type = BottomGhost;
},
{
horizontal = 1;
place = "{637, 103}";
type = Stem;
},
{
place = "{48, 152}";
type = Stem;
},
{
place = "{392, 87}";
type = Stem;
},
{
horizontal = 1;
place = "{-12, 103}";
type = Stem;
}
);
layerId = "58254875-FB9E-4C1D-8B15-704836B9A7CF";
width = 602;
},
{
background = {
paths = (
{
closed = 1;
nodes = (
"386 -213 OFFCURVE",
"456 -183 OFFCURVE",
"463 -123 CURVE SMOOTH",
"469 -79 OFFCURVE",
"431 -52 OFFCURVE",
"392 -43 CURVE",
"403 -11 LINE {name = hr01;}",
"413 -11 OFFCURVE",
"423 -12 OFFCURVE",
"433 -12 CURVE SMOOTH",
"489 -12 OFFCURVE",
"552 3 OFFCURVE",
"615 34 CURVE",
"589 125 LINE",
"537 102 OFFCURVE",
"492 91 OFFCURVE",
"446 91 CURVE SMOOTH {name = hr02;}",
"287 91 OFFCURVE",
"227 226 OFFCURVE",
"244 364 CURVE SMOOTH",
"261 502 OFFCURVE",
"354 637 OFFCURVE",
"513 637 CURVE SMOOTH",
"559 637 OFFCURVE",
"593 631 OFFCURVE",
"650 614 CURVE",
"697 706 LINE",
"637 730 OFFCURVE",
"581 740 OFFCURVE",
"525 740 CURVE SMOOTH",
"284 740 OFFCURVE",
"118 572 OFFCURVE",
"92 364 CURVE SMOOTH",
"70 181 OFFCURVE",
"157 33 OFFCURVE",
"340 -3 CURVE",
"306 -91 LINE",
"353 -96 OFFCURVE",
"378 -106 OFFCURVE",
"376 -126 CURVE SMOOTH",
"374 -141 OFFCURVE",
"356 -150 OFFCURVE",
"333 -150 CURVE SMOOTH",
"313 -150 OFFCURVE",
"295 -147 OFFCURVE",
"272 -138 CURVE",
"247 -193 LINE",
"277 -207 OFFCURVE",
"302 -213 OFFCURVE",
"325 -213 CURVE SMOOTH"
);
}
);
};
components = (
{
name = C;
},
{
name = cedillacomb;
transform = "{1, 0, 0, 1, 262, 0}";
}
);
hints = (
{
horizontal = 1;
place = "{-213, 63}";
type = Stem;
},
{
horizontal = 1;
place = "{-11, 21}";
target = up;
type = BottomGhost;
},
{
horizontal = 1;
place = "{637, 103}";
type = Stem;
},
{
horizontal = 1;
place = "{-12, 103}";
type = Stem;
}
);
layerId = "5E1C92F4-866D-4CC0-BA00-538F5374015A";
width = 602;
}
);
unicode = 00C7;
},
{
glyphname = D;
layers = (
{
anchors = (
{
name = bottom;
position = "{357, 0}";
},
{
name = center;
position = "{209, 356}";
},
{
name = top;
position = "{357, 727}";
}
);
hints = (
{
horizontal = 1;
origin = "{0, 19}";
target = up;
type = BottomGhost;
},
{
horizontal = 1;
origin = "{0, 14}";
target = "{0, 23}";
type = Stem;
},
{
origin = "{0, 19}";
target = "{0, 18}";
type = Stem;
},
{
origin = "{0, 11}";
target = "{0, 26}";
type = Stem;
},
{
horizontal = 1;
origin = "{0, 29}";
target = "{0, 8}";
type = Stem;
}
);
layerId = "BAA2CE79-BA31-4701-835E-3D9478C3F4B2";
paths = (
{
closed = 1;
nodes = (
"542 -12 OFFCURVE",
"693 147 OFFCURVE",
"693 365 CURVE SMOOTH",
"693 599 OFFCURVE",
"550 740 OFFCURVE",
"296 740 CURVE SMOOTH",
"238 740 OFFCURVE",
"152 731 OFFCURVE",
"89 716 CURVE",
"89 0 LINE {name = hr01;}",
"184 0 LINE",
"184 660 LINE",
"216 664 OFFCURVE",
"256 667 OFFCURVE",
"296 667 CURVE SMOOTH",
"493 667 OFFCURVE",
"591 558 OFFCURVE",
"591 365 CURVE SMOOTH",
"591 198 OFFCURVE",
"491 60 OFFCURVE",
"363 60 CURVE {name = hr02;}",
"347 60 OFFCURVE",
"339 60 OFFCURVE",
"318 62 CURVE SMOOTH",
"273 66 OFFCURVE",
"243 40 OFFCURVE",
"224 5 CURVE",
"282 -9 OFFCURVE",
"319 -12 OFFCURVE",
"364 -12 CURVE"
);
}
);
width = 713;
},
{
anchors = (
{
name = bottom;
position = "{337, 0}";
},
{
name = center;
position = "{252, 356}";
},
{
name = top;
position = "{447, 727}";
}
);
hints = (
{
horizontal = 1;
origin = "{0, 19}";
target = up;
type = BottomGhost;
},
{
horizontal = 1;
origin = "{0, 14}";
target = "{0, 23}";
type = Stem;
},
{
horizontal = 1;
origin = "{0, 29}";
target = "{0, 8}";
type = Stem;
}
);
layerId = "3BBF7C5C-CA4C-45AB-AE18-0528A0ACCA90";
paths = (
{
closed = 1;
nodes = (
"540 -12 OFFCURVE",
"711 147 OFFCURVE",
"737 365 CURVE SMOOTH",
"766 599 OFFCURVE",
"640 740 OFFCURVE",
"386 740 CURVE SMOOTH",
"328 740 OFFCURVE",
"241 731 OFFCURVE",
"176 716 CURVE",
"89 0 LINE",
"184 0 LINE {name = hr01;}",
"265 660 LINE",
"297 664 OFFCURVE",
"337 667 OFFCURVE",
"377 667 CURVE SMOOTH",
"574 667 OFFCURVE",
"659 558 OFFCURVE",
"635 365 CURVE SMOOTH",
"615 198 OFFCURVE",
"498 60 OFFCURVE",
"370 60 CURVE",
"354 60 OFFCURVE",
"346 60 OFFCURVE",
"325 62 CURVE SMOOTH",
"281 66 OFFCURVE",
"247 40 OFFCURVE",
"224 5 CURVE",
"280 -9 OFFCURVE",
"317 -12 OFFCURVE",
"362 -12 CURVE"
);
}
);
width = 713;
},
{
anchors = (
{
name = bottom;
position = "{374, 0}";
},
{
name = center;
position = "{216, 356}";
},
{
name = top;
position = "{374, 727}";
}
);
hints = (
{
horizontal = 1;
origin = "{0, 10}";
target = up;
type = BottomGhost;
},
{
horizontal = 1;
origin = "{0, 5}";
target = "{0, 14}";
type = Stem;
},
{
origin = "{0, 10}";
target = "{0, 9}";
type = Stem;
},
{
origin = "{0, 2}";
target = "{0, 17}";
type = Stem;
},
{
horizontal = 1;
origin = "{0, 23}";
target = "{0, 29}";
type = Stem;
}
);
layerId = "58254875-FB9E-4C1D-8B15-704836B9A7CF";
paths = (
{
closed = 1;
nodes = (
"582 -12 OFFCURVE",
"733 154 OFFCURVE",
"733 365 CURVE SMOOTH",
"733 602 OFFCURVE",
"576 740 OFFCURVE",
"310 740 CURVE SMOOTH",
"252 740 OFFCURVE",
"172 733 OFFCURVE",
"83 714 CURVE",
"83 0 LINE",
"224 0 LINE {name = hr01;}",
"224 629 LINE",
"255 634 OFFCURVE",
"284 637 OFFCURVE",
"310 637 CURVE SMOOTH",
"503 637 OFFCURVE",
"582 522 OFFCURVE",
"582 365 CURVE SMOOTH",
"582 232 OFFCURVE",
"517 94 OFFCURVE",
"367 91 CURVE SMOOTH",
"366 91 OFFCURVE",
"364 91 OFFCURVE",
"363 91 CURVE SMOOTH",
"308 91 OFFCURVE",
"278 40 OFFCURVE",
"262 5 CURVE",
"320 -10 OFFCURVE",
"341 -12 OFFCURVE",
"378 -12 CURVE {name = hr02;}"
);
}
);
width = 747;
},
{
anchors = (
{
name = bottom;
position = "{362, 0}";
},
{
name = center;
position = "{259, 356}";
},
{
name = top;
position = "{472, 727}";
}
);
hints = (
{
horizontal = 1;
origin = "{0, 10}";
target = up;
type = BottomGhost;
},
{
horizontal = 1;
origin = "{0, 5}";
target = "{0, 14}";
type = Stem;
},
{
horizontal = 1;
origin = "{0, 23}";
target = "{0, 29}";
type = Stem;
}
);
layerId = "5E1C92F4-866D-4CC0-BA00-538F5374015A";
paths = (
{
closed = 1;
nodes = (
"580 -12 OFFCURVE",
"751 154 OFFCURVE",
"777 365 CURVE SMOOTH",
"806 602 OFFCURVE",
"666 740 OFFCURVE",
"400 740 CURVE SMOOTH",
"342 740 OFFCURVE",
"262 733 OFFCURVE",
"170 714 CURVE",
"83 0 LINE",
"224 0 LINE {name = hr01;}",
"301 629 LINE",
"332 634 OFFCURVE",
"362 637 OFFCURVE",
"388 637 CURVE SMOOTH",
"581 637 OFFCURVE",
"646 522 OFFCURVE",
"626 365 CURVE SMOOTH",
"610 232 OFFCURVE",
"529 94 OFFCURVE",
"379 91 CURVE SMOOTH",
"377 91 OFFCURVE",
"376 91 OFFCURVE",
"374 91 CURVE SMOOTH",
"319 91 OFFCURVE",
"282 40 OFFCURVE",
"262 5 CURVE",
"318 -10 OFFCURVE",
"339 -12 OFFCURVE",
"376 -12 CURVE {name = hr02;}"
);
}
);
width = 747;
}
);
unicode = 0044;
},
{
glyphname = E;
layers = (
{
anchors = (
{
name = bottom;
position = "{308, 0}";
},
{
name = ogonek;
position = "{518, 0}";
},
{
name = top;
position = "{304, 727}";
},
{
name = topleft;
position = "{20, 727}";
}
);
hints = (
{
horizontal = 1;
origin = "{0, 6}";
target = "{0, 3}";
type = Stem;
},
{
horizontal = 1;
origin = "{1, 1}";
target = "{1, 4}";
type = Stem;
},
{
horizontal = 1;
origin = "{0, 2}";
target = "{0, 7}";
type = Stem;
},
{
origin = "{0, 6}";
target = "{0, 3}";
type = Stem;
}
);
layerId = "BAA2CE79-BA31-4701-835E-3D9478C3F4B2";
paths = (
{
closed = 1;
nodes = (
"518 0 LINE",
"518 72 LINE",
"184 72 LINE",
"184 655 LINE",
"503 655 LINE",
"503 727 LINE",
"89 727 LINE {name = hr00;}",
"89 0 LINE"
);
},
{
closed = 1;
nodes = (
"469 346 LINE",
"469 416 LINE",
"308 416 LINE",
"260 416 OFFCURVE",
"236 384 OFFCURVE",
"222 346 CURVE"
);
}
);
width = 577;
},
{
anchors = (
{
name = bottom;
position = "{304, 0}";
},
{
name = ogonek;
position = "{518, 0}";
},
{
name = top;
position = "{389, 727}";
},
{
name = topleft;
position = "{78, 727}";
}
);
hints = (
{
horizontal = 1;
origin = "{0, 6}";
target = "{0, 3}";
type = Stem;
},
{
horizontal = 1;
origin = "{1, 1}";
target = "{1, 4}";
type = Stem;
},
{
horizontal = 1;
origin = "{0, 2}";
target = "{0, 7}";
type = Stem;
}
);
layerId = "3BBF7C5C-CA4C-45AB-AE18-0528A0ACCA90";
paths = (
{
closed = 1;
nodes = (
"518 0 LINE",
"526 72 LINE",
"192 72 LINE",
"264 655 LINE",
"583 655 LINE",
"592 727 LINE",
"178 727 LINE {name = hr00;}",
"89 0 LINE"
);
},
{
closed = 1;
nodes = (
"511 346 LINE",
"520 416 LINE",
"359 416 LINE",
"311 416 OFFCURVE",
"283 384 OFFCURVE",
"264 346 CURVE"
);
}
);
width = 577;
},
{
anchors = (
{
name = bottom;
position = "{315, 0}";
},
{
name = ogonek;
position = "{529, 10}";
},
{
name = top;
position = "{305, 727}";
},
{
name = topleft;
position = "{20, 727}";
}
);
hints = (
{
horizontal = 1;
origin = "{0, 6}";
target = "{0, 3}";
type = Stem;
},
{
horizontal = 1;
origin = "{1, 5}";
target = "{1, 2}";
type = Stem;
},
{
horizontal = 1;
origin = "{0, 2}";
target = "{0, 7}";
type = Stem;
},
{
origin = "{0, 6}";
target = "{0, 3}";
type = Stem;
}
);
layerId = "58254875-FB9E-4C1D-8B15-704836B9A7CF";
paths = (
{
closed = 1;
nodes = (
"535 0 LINE",
"535 103 LINE",
"226 103 LINE",
"226 624 LINE",
"519 624 LINE",
"519 727 LINE",
"83 727 LINE {name = hr00;}",
"83 0 LINE"
);
},
{
closed = 1;
nodes = (
"485 331 LINE",
"485 432 LINE",
"364 432 LINE",
"306 432 OFFCURVE",
"277 375 OFFCURVE",
"264 331 CURVE"
);
}
);
width = 588;
},
{
anchors = (
{
name = bottom;
position = "{309, 0}";
},
{
name = ogonek;
position = "{535, 0}";
},
{
name = top;
position = "{390, 727}";
},
{
name = topleft;
position = "{78, 727}";
}
);
hints = (
{
horizontal = 1;
origin = "{0, 6}";
target = "{0, 3}";
type = Stem;
},
{
horizontal = 1;
origin = "{1, 5}";
target = "{1, 2}";
type = Stem;
},
{
horizontal = 1;
origin = "{0, 2}";
target = "{0, 7}";
type = Stem;
}
);
layerId = "5E1C92F4-866D-4CC0-BA00-538F5374015A";
paths = (
{
closed = 1;
nodes = (
"535 0 LINE",
"547 103 LINE",
"238 103 LINE",
"302 624 LINE",
"595 624 LINE",
"608 727 LINE",
"172 727 LINE {name = hr00;}",
"83 0 LINE"
);
},
{
closed = 1;
nodes = (
"525 331 LINE",
"538 432 LINE",
"417 432 LINE",
"359 432 OFFCURVE",
"323 375 OFFCURVE",
"304 331 CURVE"
);
}
);
width = 588;
}
);
unicode = 0045;
},
{
glyphname = F;
layers = (
{
anchors = (
{
name = bottom;
position = "{137, 0}";
},
{
name = top;
position = "{296, 727}";
}
);
hints = (
{
horizontal = 1;
origin = "{0, 4}";
target = up;
type = BottomGhost;
},
{
horizontal = 1;
origin = "{1, 1}";
target = "{1, 4}";
type = Stem;
},
{
horizontal = 1;
origin = "{0, 2}";
target = "{0, 5}";
type = Stem;
},
{
origin = "{0, 4}";
target = "{0, 3}";
type = Stem;
}
);
layerId = "BAA2CE79-BA31-4701-835E-3D9478C3F4B2";
paths = (
{
closed = 1;
nodes = (
"184 0 LINE",
"184 655 LINE",
"503 655 LINE",
"503 727 LINE",
"89 727 LINE {name = hr00;}",
"89 0 LINE"
);
},
{
closed = 1;
nodes = (
"469 346 LINE",
"469 416 LINE",
"308 416 LINE",
"260 416 OFFCURVE",
"236 384 OFFCURVE",
"222 346 CURVE"
);
}
);
width = 573;
},
{
anchors = (
{
name = bottom;
position = "{137, 0}";
},
{
name = top;
position = "{385, 727}";
}
);
hints = (
{
horizontal = 1;
origin = "{0, 4}";
target = up;
type = BottomGhost;
},
{
horizontal = 1;
origin = "{1, 1}";
target = "{1, 4}";
type = Stem;
},
{
horizontal = 1;
origin = "{0, 2}";
target = "{0, 5}";
type = Stem;
}
);
layerId = "3BBF7C5C-CA4C-45AB-AE18-0528A0ACCA90";
paths = (
{
closed = 1;
nodes = (
"184 0 LINE",
"264 655 LINE",
"583 655 LINE",
"592 727 LINE",
"178 727 LINE {name = hr00;}",
"89 0 LINE"
);
},
{
closed = 1;
nodes = (
"511 346 LINE",
"520 416 LINE",
"359 416 LINE",
"311 416 OFFCURVE",
"283 384 OFFCURVE",
"264 346 CURVE"
);
}
);
width = 573;
},
{
anchors = (
{
name = bottom;
position = "{155, 0}";
},
{
name = top;
position = "{297, 727}";
}
);
hints = (
{
horizontal = 1;
origin = "{0, 4}";
target = up;
type = BottomGhost;
},
{
horizontal = 1;
origin = "{1, 5}";
target = "{1, 2}";
type = Stem;
},
{
horizontal = 1;
origin = "{0, 2}";
target = "{0, 5}";
type = Stem;
},
{
origin = "{0, 4}";
target = "{0, 3}";
type = Stem;
}
);
layerId = "58254875-FB9E-4C1D-8B15-704836B9A7CF";
paths = (
{
closed = 1;
nodes = (
"226 0 LINE",
"226 624 LINE",
"519 624 LINE",
"519 727 LINE",
"83 727 LINE {name = hr00;}",
"83 0 LINE"
);
},
{
closed = 1;
nodes = (
"485 331 LINE",
"485 432 LINE",
"364 432 LINE",
"306 432 OFFCURVE",
"277 375 OFFCURVE",
"264 331 CURVE"
);
}
);
width = 584;
},
{
anchors = (
{
name = bottom;
position = "{155, 0}";
},
{
name = top;
position = "{390, 727}";
}
);
hints = (
{
horizontal = 1;
origin = "{0, 4}";
target = up;
type = BottomGhost;
},
{
horizontal = 1;
origin = "{1, 5}";
target = "{1, 2}";
type = Stem;
},
{
horizontal = 1;
origin = "{0, 2}";
target = "{0, 5}";
type = Stem;
}
);
layerId = "5E1C92F4-866D-4CC0-BA00-538F5374015A";
paths = (
{
closed = 1;
nodes = (
"226 0 LINE",
"302 624 LINE",
"595 624 LINE",
"608 727 LINE",
"172 727 LINE {name = hr00;}",
"83 0 LINE"
);
},
{
closed = 1;
nodes = (
"525 331 LINE",
"538 432 LINE",
"417 432 LINE",
"359 432 OFFCURVE",
"323 375 OFFCURVE",
"304 331 CURVE"
);
}
);
width = 584;
}
);
unicode = 0046;
},
{
glyphname = G;
layers = (
{
anchors = (
{
name = bottom;
position = "{380, 0}";
},
{
name = top;
position = "{380, 727}";
}
);
hints = (
{
horizontal = 1;
origin = "{0, 14}";
target = "{0, 5}";
type = Stem;
},
{
horizontal = 1;
origin = "{0, 27}";
target = "{0, 20}";
type = Stem;
},
{
origin = "{0, 17}";
target = "{0, 2}";
type = Stem;
},
{
origin = "{0, 8}";
target = "{0, 11}";
type = Stem;
}
);
layerId = "BAA2CE79-BA31-4701-835E-3D9478C3F4B2";
paths = (
{
closed = 1;
nodes = (
"467 -12 OFFCURVE",
"542 -1 OFFCURVE",
"614 37 CURVE",
"614 337 LINE",
"522 337 LINE",
"522 77 LINE",
"478 63 OFFCURVE",
"439 60 OFFCURVE",
"410 60 CURVE SMOOTH",
"272 60 OFFCURVE",
"137 159 OFFCURVE",
"137 363 CURVE SMOOTH",
"137 568 OFFCURVE",
"272 667 OFFCURVE",
"410 667 CURVE SMOOTH {name = hr00;}",
"456 667 OFFCURVE",
"511 662 OFFCURVE",
"582 631 CURVE",
"608 696 LINE",
"538 729 OFFCURVE",
"467 740 OFFCURVE",
"410 740 CURVE SMOOTH",
"205 740 OFFCURVE",
"35 588 OFFCURVE",
"35 363 CURVE SMOOTH",
"35 128 OFFCURVE",
"205 -12 OFFCURVE",
"410 -12 CURVE SMOOTH"
);
}
);
width = 645;
},
{
anchors = (
{
name = bottom;
position = "{371, 0}";
},
{
name = top;
position = "{461, 727}";
}
);
hints = (
{
horizontal = 1;
origin = "{0, 14}";
target = "{0, 5}";
type = Stem;
},
{
horizontal = 1;
origin = "{0, 27}";
target = "{0, 20}";
type = Stem;
}
);
layerId = "3BBF7C5C-CA4C-45AB-AE18-0528A0ACCA90";
paths = (
{
closed = 1;
nodes = (
"465 -12 OFFCURVE",
"541 -1 OFFCURVE",
"618 37 CURVE",
"655 337 LINE",
"563 337 LINE",
"531 77 LINE",
"485 63 OFFCURVE",
"446 60 OFFCURVE",
"417 60 CURVE SMOOTH",
"279 60 OFFCURVE",
"156 159 OFFCURVE",
"181 363 CURVE SMOOTH",
"206 568 OFFCURVE",
"353 667 OFFCURVE",
"491 667 CURVE SMOOTH {name = hr00;}",
"537 667 OFFCURVE",
"592 662 OFFCURVE",
"659 631 CURVE",
"693 696 LINE",
"627 729 OFFCURVE",
"557 740 OFFCURVE",
"500 740 CURVE SMOOTH",
"295 740 OFFCURVE",
"107 588 OFFCURVE",
"79 363 CURVE SMOOTH",
"50 128 OFFCURVE",
"203 -12 OFFCURVE",
"408 -12 CURVE SMOOTH"
);
}
);
width = 645;
},
{
anchors = (
{
name = bottom;
position = "{410, 0}";
},
{
name = top;
position = "{410, 727}";
}
);
hints = (
{
horizontal = 1;
origin = "{0, 14}";
target = "{0, 5}";
type = Stem;
},
{
horizontal = 1;
origin = "{0, 27}";
target = "{0, 20}";
type = Stem;
},
{
origin = "{0, 17}";
target = "{0, 2}";
type = Stem;
},
{
origin = "{0, 8}";
target = "{0, 11}";
type = Stem;
}
);
layerId = "58254875-FB9E-4C1D-8B15-704836B9A7CF";
paths = (
{
closed = 1;
nodes = (
"494 -12 OFFCURVE",
"589 4 OFFCURVE",
"662 37 CURVE",
"662 337 LINE",
"534 337 LINE",
"534 102 LINE",
"492 92 OFFCURVE",
"467 91 OFFCURVE",
"438 91 CURVE SMOOTH",
"279 91 OFFCURVE",
"194 225 OFFCURVE",
"194 363 CURVE SMOOTH",
"194 508 OFFCURVE",
"282 637 OFFCURVE",
"441 637 CURVE SMOOTH {name = hr00;}",
"487 637 OFFCURVE",
"540 629 OFFCURVE",
"615 600 CURVE",
"652 696 LINE",
"576 728 OFFCURVE",
"497 740 OFFCURVE",
"441 740 CURVE SMOOTH",
"197 740 OFFCURVE",
"42 573 OFFCURVE",
"42 363 CURVE SMOOTH",
"42 154 OFFCURVE",
"191 -12 OFFCURVE",
"438 -12 CURVE SMOOTH"
);
}
);
width = 724;
},
{
anchors = (
{
name = bottom;
position = "{404, 0}";
},
{
name = top;
position = "{494, 727}";
}
);
hints = (
{
horizontal = 1;
origin = "{0, 14}";
target = "{0, 5}";
type = Stem;
},
{
horizontal = 1;
origin = "{0, 27}";
target = "{0, 20}";
type = Stem;
}
);
layerId = "5E1C92F4-866D-4CC0-BA00-538F5374015A";
paths = (
{
closed = 1;
nodes = (
"492 -12 OFFCURVE",
"589 4 OFFCURVE",
"666 37 CURVE",
"703 337 LINE",
"575 337 LINE",
"546 102 LINE",
"503 92 OFFCURVE",
"478 91 OFFCURVE",
"449 91 CURVE SMOOTH",
"290 91 OFFCURVE",
"221 225 OFFCURVE",
"238 363 CURVE SMOOTH",
"256 508 OFFCURVE",
"360 637 OFFCURVE",
"519 637 CURVE SMOOTH {name = hr00;}",
"565 637 OFFCURVE",
"617 629 OFFCURVE",
"688 600 CURVE",
"737 696 LINE",
"665 728 OFFCURVE",
"587 740 OFFCURVE",
"531 740 CURVE SMOOTH",
"287 740 OFFCURVE",
"112 573 OFFCURVE",
"86 363 CURVE SMOOTH",
"60 154 OFFCURVE",
"189 -12 OFFCURVE",
"436 -12 CURVE SMOOTH"
);
}
);
width = 724;
}
);
unicode = 0047;
},
{
glyphname = H;
layers = (
{
anchors = (
{
name = bottom;
position = "{366, 0}";
},
{
name = center;
position = "{366, 364}";
},
{
name = top;
position = "{366, 727}";
},
{
name = topleft;
position = "{20, 727}";
}
);
hints = (
{
horizontal = 1;
origin = "{1, 2}";
target = up;
type = BottomGhost;
},
{
horizontal = 1;
origin = "{0, 5}";
target = "{0, 8}";
type = Stem;
},
{
horizontal = 1;
origin = "{1, 3}";
target = down;
type = TopGhost;
},
{
origin = "{1, 2}";
target = "{1, 1}";
type = Stem;
},
{
origin = "{0, 3}";
target = "{0, 2}";
type = Stem;
}
);
layerId = "BAA2CE79-BA31-4701-835E-3D9478C3F4B2";
paths = (
{
closed = 1;
nodes = (
"643 0 LINE",
"643 727 LINE",
"548 727 LINE",
"548 416 LINE {name = hr00;}",
"307 416 LINE",
"260 416 OFFCURVE",
"236 384 OFFCURVE",
"222 346 CURVE",
"548 346 LINE",
"548 0 LINE"
);
},
{
closed = 1;
nodes = (
"184 0 LINE",
"184 727 LINE",
"89 727 LINE",
"89 0 LINE"
);
}
);
width = 730;
},
{
anchors = (
{
name = bottom;
position = "{366, 0}";
},
{
name = center;
position = "{411, 364}";
},
{
name = top;
position = "{455, 727}";
},
{
name = topleft;
position = "{78, 727}";
}
);
hints = (
{
horizontal = 1;
origin = "{1, 2}";
target = up;
type = BottomGhost;
},
{
horizontal = 1;
origin = "{0, 5}";
target = "{0, 8}";
type = Stem;
},
{
horizontal = 1;
origin = "{1, 3}";
target = down;
type = TopGhost;
}
);
layerId = "3BBF7C5C-CA4C-45AB-AE18-0528A0ACCA90";
paths = (
{
closed = 1;
nodes = (
"643 0 LINE",
"732 727 LINE",
"637 727 LINE",
"599 416 LINE {name = hr00;}",
"358 416 LINE",
"311 416 OFFCURVE",
"283 384 OFFCURVE",
"264 346 CURVE",
"590 346 LINE",
"548 0 LINE"
);
},
{
closed = 1;
nodes = (
"184 0 LINE",
"273 727 LINE",
"178 727 LINE",
"89 0 LINE"
);
}
);
width = 730;
},
{
anchors = (
{
name = bottom;
position = "{384, 0}";
},
{
name = center;
position = "{384, 364}";
},
{
name = top;
position = "{384, 727}";
},
{
name = topleft;
position = "{20, 727}";
}
);
hints = (
{
horizontal = 1;
origin = "{1, 2}";
target = up;
type = BottomGhost;
},
{
horizontal = 1;
origin = "{0, 9}";
target = "{0, 2}";
type = Stem;
},
{
horizontal = 1;
origin = "{1, 3}";
target = down;
type = TopGhost;
},
{
origin = "{1, 2}";
target = "{1, 1}";
type = Stem;
},
{
origin = "{0, 7}";
target = "{0, 6}";
type = Stem;
}
);
layerId = "58254875-FB9E-4C1D-8B15-704836B9A7CF";
paths = (
{
closed = 1;
nodes = (
"682 0 LINE",
"682 727 LINE",
"541 727 LINE",
"541 433 LINE",
"364 433 LINE",
"306 433 OFFCURVE",
"277 374 OFFCURVE",
"264 330 CURVE {name = hr00;}",
"541 330 LINE",
"541 0 LINE"
);
},
{
closed = 1;
nodes = (
"226 0 LINE",
"226 727 LINE",
"83 727 LINE",
"83 0 LINE"
);
}
);
width = 764;
},
{
anchors = (
{
name = bottom;
position = "{384, 0}";
},
{
name = center;
position = "{428, 364}";
},
{
name = top;
position = "{473, 727}";
},
{
name = topleft;
position = "{78, 727}";
}
);
hints = (
{
horizontal = 1;
origin = "{1, 2}";
target = up;
type = BottomGhost;
},
{
horizontal = 1;
origin = "{0, 9}";
target = "{0, 2}";
type = Stem;
},
{
horizontal = 1;
origin = "{1, 3}";
target = down;
type = TopGhost;
}
);
layerId = "5E1C92F4-866D-4CC0-BA00-538F5374015A";
paths = (
{
closed = 1;
nodes = (
"682 0 LINE",
"771 727 LINE",
"630 727 LINE",
"594 433 LINE",
"417 433 LINE",
"359 433 OFFCURVE",
"322 374 OFFCURVE",
"304 330 CURVE {name = hr00;}",
"581 330 LINE",
"541 0 LINE"
);
},
{
closed = 1;
nodes = (
"226 0 LINE",
"315 727 LINE",
"172 727 LINE",
"83 0 LINE"
);
}
);
width = 764;
}
);
unicode = 0048;
},
{
glyphname = I;
layers = (
{
anchors = (
{
name = bottom;
position = "{135, 0}";
},
{
name = ogonek;
position = "{181, 0}";
},
{
name = top;
position = "{135, 727}";
},
{
name = topleft;
position = "{20, 727}";
}
);
hints = (
{
horizontal = 1;
origin = "{0, 3}";
target = up;
type = BottomGhost;
},
{
horizontal = 1;
origin = "{0, 2}";
target = down;
type = TopGhost;
},
{
origin = "{0, 3}";
target = "{0, 0}";
type = Stem;
}
);
layerId = "BAA2CE79-BA31-4701-835E-3D9478C3F4B2";
paths = (
{
closed = 1;
nodes = (
"181 0 LINE {name = hr00;}",
"181 727 LINE",
"89 727 LINE",
"89 0 LINE"
);
}
);
width = 270;
},
{
anchors = (
{
name = bottom;
position = "{135, 0}";
},
{
name = ogonek;
position = "{181, 0}";
},
{
name = top;
position = "{224, 727}";
},
{
name = topleft;
position = "{78, 727}";
}
);
hints = (
{
horizontal = 1;
origin = "{0, 3}";
target = up;
type = BottomGhost;
},
{
horizontal = 1;
origin = "{0, 2}";
target = down;
type = TopGhost;
}
);
layerId = "3BBF7C5C-CA4C-45AB-AE18-0528A0ACCA90";
paths = (
{
closed = 1;
nodes = (
"181 0 LINE {name = hr00;}",
"270 727 LINE",
"178 727 LINE",
"89 0 LINE"
);
}
);
width = 270;
},
{
anchors = (
{
name = bottom;
position = "{153, 0}";
},
{
name = ogonek;
position = "{222, 0}";
},
{
name = top;
position = "{153, 727}";
},
{
name = topleft;
position = "{20, 727}";
}
);
hints = (
{
horizontal = 1;
origin = "{0, 3}";
target = up;
type = BottomGhost;
},
{
horizontal = 1;
origin = "{0, 2}";
target = down;
type = TopGhost;
},
{
origin = "{0, 3}";
target = "{0, 0}";
type = Stem;
}
);
layerId = "58254875-FB9E-4C1D-8B15-704836B9A7CF";
paths = (
{
closed = 1;
nodes = (
"222 0 LINE {name = hr00;}",
"222 727 LINE",
"83 727 LINE",
"83 0 LINE"
);
}
);
width = 306;
},
{
anchors = (
{
name = bottom;
position = "{153, 0}";
},
{
name = ogonek;
position = "{222, 0}";
},
{
name = top;
position = "{242, 727}";
},
{
name = topleft;
position = "{78, 727}";
}
);
hints = (
{
horizontal = 1;
origin = "{0, 3}";
target = up;
type = BottomGhost;
},
{
horizontal = 1;
origin = "{0, 2}";
target = down;
type = TopGhost;
}
);
layerId = "5E1C92F4-866D-4CC0-BA00-538F5374015A";
paths = (
{
closed = 1;
nodes = (
"222 0 LINE {name = hr00;}",
"311 727 LINE",
"172 727 LINE",
"83 0 LINE"
);
}
);
width = 306;
}
);
unicode = 0049;
},
{
glyphname = J;
layers = (
{
anchors = (
{
name = bottom;
position = "{154, -181}";
},
{
name = top;
position = "{213, 727}";
}
);
hints = (
{
horizontal = 1;
origin = "{0, 2}";
target = up;
type = BottomGhost;
},
{
horizontal = 1;
origin = "{0, 7}";
target = down;
type = TopGhost;
},
{
origin = "{0, 6}";
target = "{0, 9}";
type = Stem;
}
);
layerId = "BAA2CE79-BA31-4701-835E-3D9478C3F4B2";
paths = (
{
closed = 1;
nodes = (
"174 -114 OFFCURVE",
"261 -47 OFFCURVE",
"261 128 CURVE {name = hr00;}",
"261 727 LINE",
"165 727 LINE",
"165 128 LINE",
"165 -29 OFFCURVE",
"95 -74 OFFCURVE",
"-5 -157 CURVE",
"35 -208 LINE"
);
}
);
width = 344;
},
{
anchors = (
{
name = bottom;
position = "{119, -190}";
},
{
name = top;
position = "{302, 727}";
}
);
hints = (
{
horizontal = 1;
origin = "{0, 2}";
target = up;
type = BottomGhost;
},
{
horizontal = 1;
origin = "{0, 7}";
target = down;
type = TopGhost;
}
);
layerId = "3BBF7C5C-CA4C-45AB-AE18-0528A0ACCA90";
paths = (
{
closed = 1;
nodes = (
"160 -114 OFFCURVE",
"255 -47 OFFCURVE",
"276 128 CURVE {name = hr00;}",
"350 727 LINE",
"254 727 LINE",
"180 128 LINE",
"161 -29 OFFCURVE",
"85 -74 OFFCURVE",
"-24 -157 CURVE",
"9 -208 LINE"
);
}
);
width = 344;
},
{
anchors = (
{
name = bottom;
position = "{170, -211}";
},
{
name = top;
position = "{219, 727}";
}
);
hints = (
{
horizontal = 1;
origin = "{0, 2}";
target = up;
type = BottomGhost;
},
{
horizontal = 1;
origin = "{0, 7}";
target = down;
type = TopGhost;
},
{
origin = "{0, 6}";
target = "{0, 9}";
type = Stem;
}
);
layerId = "58254875-FB9E-4C1D-8B15-704836B9A7CF";
paths = (
{
closed = 1;
nodes = (
"208 -119 OFFCURVE",
"290 -58 OFFCURVE",
"290 128 CURVE {name = hr00;}",
"290 727 LINE",
"148 727 LINE",
"148 128 LINE",
"148 -10 OFFCURVE",
"90 -58 OFFCURVE",
"-10 -140 CURVE",
"54 -222 LINE"
);
}
);
width = 369;
},
{
anchors = (
{
name = bottom;
position = "{146, -200}";
},
{
name = top;
position = "{308, 727}";
}
);
hints = (
{
horizontal = 1;
origin = "{0, 2}";
target = up;
type = BottomGhost;
},
{
horizontal = 1;
origin = "{0, 7}";
target = down;
type = TopGhost;
}
);
layerId = "5E1C92F4-866D-4CC0-BA00-538F5374015A";
paths = (
{
closed = 1;
nodes = (
"193 -119 OFFCURVE",
"282 -58 OFFCURVE",
"305 128 CURVE {name = hr00;}",
"379 727 LINE",
"237 727 LINE",
"163 128 LINE",
"146 -10 OFFCURVE",
"82 -58 OFFCURVE",
"-27 -140 CURVE",
"26 -222 LINE"
);
}
);
width = 369;
}
);
unicode = 004A;
},
{
glyphname = K;
layers = (
{
anchors = (
{
name = bottom;
position = "{332, 0}";
},
{
name = top;
position = "{331, 727}";
}
);
hints = (
{
horizontal = 1;
origin = "{1, 3}";
target = up;
type = BottomGhost;
},
{
horizontal = 1;
origin = "{1, 0}";
target = down;
type = TopGhost;
},
{
origin = "{1, 3}";
target = "{1, 2}";
type = Stem;
}
);
layerId = "BAA2CE79-BA31-4701-835E-3D9478C3F4B2";
paths = (
{
closed = 1;
nodes = (
"641 0 LINE",
"382 433 LINE {name = hr00;}",
"608 727 LINE",
"500 727 LINE",
"267 412 LINE SMOOTH",
"227 357 OFFCURVE",
"219 283 OFFCURVE",
"237 243 CURVE",
"316 347 LINE",
"325 365 LINE",
"332 347 LINE",
"526 0 LINE"
);
},
{
closed = 1;
nodes = (
"184 0 LINE",
"184 727 LINE",
"89 727 LINE",
"89 0 LINE"
);
}
);
width = 661;
},
{
anchors = (
{
name = bottom;
position = "{341, 0}";
},
{
name = top;
position = "{424, 727}";
}
);
hints = (
{
horizontal = 1;
origin = "{1, 3}";
target = up;
type = BottomGhost;
},
{
horizontal = 1;
origin = "{1, 0}";
target = down;
type = TopGhost;
}
);
layerId = "3BBF7C5C-CA4C-45AB-AE18-0528A0ACCA90";
paths = (
{
closed = 1;
nodes = (
"641 0 LINE",
"435 433 LINE {name = hr00;}",
"697 727 LINE",
"589 727 LINE",
"317 412 LINE SMOOTH",
"270 357 OFFCURVE",
"253 283 OFFCURVE",
"266 243 CURVE",
"358 347 LINE",
"369 365 LINE",
"374 347 LINE",
"526 0 LINE"
);
},
{
closed = 1;
nodes = (
"184 0 LINE",
"273 727 LINE",
"178 727 LINE",
"89 0 LINE"
);
}
);
width = 661;
},
{
anchors = (
{
name = bottom;
position = "{355, 0}";
},
{
name = top;
position = "{355, 727}";
}
);
hints = (
{
horizontal = 1;
origin = "{1, 3}";
target = up;
type = BottomGhost;
},
{
horizontal = 1;
origin = "{1, 0}";
target = down;
type = TopGhost;
},
{
origin = "{1, 3}";
target = "{1, 2}";
type = Stem;
}
);
layerId = "58254875-FB9E-4C1D-8B15-704836B9A7CF";
paths = (
{
closed = 1;
nodes = (
"693 0 LINE",
"434 436 LINE {name = hr00;}",
"658 727 LINE",
"501 727 LINE",
"336 497 LINE SMOOTH",
"289 433 OFFCURVE",
"260 332 OFFCURVE",
"283 243 CURVE",
"346 324 LINE",
"358 346 LINE",
"365 322 LINE",
"529 0 LINE"
);
},
{
closed = 1;
nodes = (
"226 0 LINE",
"226 727 LINE",
"83 727 LINE",
"83 0 LINE"
);
}
);
width = 709;
},
{
anchors = (
{
name = bottom;
position = "{365, 0}";
},
{
name = top;
position = "{451, 727}";
}
);
hints = (
{
horizontal = 1;
origin = "{1, 3}";
target = up;
type = BottomGhost;
},
{
horizontal = 1;
origin = "{1, 0}";
target = down;
type = TopGhost;
}
);
layerId = "5E1C92F4-866D-4CC0-BA00-538F5374015A";
paths = (
{
closed = 1;
nodes = (
"693 0 LINE",
"487 436 LINE {name = hr00;}",
"747 727 LINE",
"590 727 LINE",
"397 497 LINE SMOOTH",
"342 433 OFFCURVE",
"300 332 OFFCURVE",
"312 243 CURVE",
"385 324 LINE",
"400 346 LINE",
"404 322 LINE",
"529 0 LINE"
);
},
{
closed = 1;
nodes = (
"226 0 LINE",
"315 727 LINE",
"172 727 LINE",
"83 0 LINE"
);
}
);
width = 709;
}
);
unicode = 004B;
userData = {
com.typemytype.robofont.guides = (
{
angle = 0;
isGlobal = 0;
magnetic = 5;
x = 0;
y = 352;
}
);
};
},
{
glyphname = L;
layers = (
{
anchors = (
{
name = bottom;
position = "{289, 0}";
},
{
name = center;
position = "{137, 364}";
},
{
name = top;
position = "{137, 727}";
},
{
name = topright;
position = "{500, 727}";
}
);
hints = (
{
horizontal = 1;
origin = "{0, 4}";
target = "{0, 1}";
type = Stem;
},
{
horizontal = 1;
origin = "{0, 5}";
target = down;
type = TopGhost;
},
{
origin = "{0, 4}";
target = "{0, 1}";
type = Stem;
}
);
layerId = "BAA2CE79-BA31-4701-835E-3D9478C3F4B2";
paths = (
{
closed = 1;
nodes = (
"488 0 LINE",
"489 73 LINE",
"185 73 LINE",
"185 727 LINE",
"89 727 LINE {name = hr00;}",
"89 0 LINE"
);
}
);
width = 520;
},
{
anchors = (
{
name = bottom;
position = "{289, 0}";
},
{
name = center;
position = "{182, 364}";
},
{
name = top;
position = "{226, 727}";
},
{
name = topright;
position = "{558, 727}";
}
);
hints = (
{
horizontal = 1;
origin = "{0, 4}";
target = "{0, 1}";
type = Stem;
},
{
horizontal = 1;
origin = "{0, 5}";
target = down;
type = TopGhost;
}
);
layerId = "3BBF7C5C-CA4C-45AB-AE18-0528A0ACCA90";
paths = (
{
closed = 1;
nodes = (
"488 0 LINE",
"497 73 LINE",
"193 73 LINE",
"274 727 LINE",
"178 727 LINE {name = hr00;}",
"89 0 LINE"
);
}
);
width = 520;
},
{
anchors = (
{
name = bottom;
position = "{285, 0}";
},
{
name = center;
position = "{154, 364}";
},
{
name = top;
position = "{154, 727}";
},
{
name = topright;
position = "{511, 727}";
}
);
hints = (
{
horizontal = 1;
origin = "{0, 4}";
target = "{0, 1}";
type = Stem;
},
{
horizontal = 1;
origin = "{0, 5}";
target = down;
type = TopGhost;
},
{
origin = "{0, 4}";
target = "{0, 1}";
type = Stem;
}
);
layerId = "58254875-FB9E-4C1D-8B15-704836B9A7CF";
paths = (
{
closed = 1;
nodes = (
"488 0 LINE",
"488 104 LINE",
"226 104 LINE",
"226 727 LINE",
"82 727 LINE {name = hr00;}",
"82 0 LINE"
);
}
);
width = 531;
},
{
anchors = (
{
name = bottom;
position = "{285, 0}";
},
{
name = center;
position = "{199, 364}";
},
{
name = top;
position = "{243, 727}";
},
{
name = topright;
position = "{569, 727}";
}
);
hints = (
{
horizontal = 1;
origin = "{0, 4}";
target = "{0, 1}";
type = Stem;
},
{
horizontal = 1;
origin = "{0, 5}";
target = down;
type = TopGhost;
}
);
layerId = "5E1C92F4-866D-4CC0-BA00-538F5374015A";
paths = (
{
closed = 1;
nodes = (
"488 0 LINE",
"500 104 LINE",
"238 104 LINE",
"315 727 LINE",
"171 727 LINE {name = hr00;}",
"82 0 LINE"
);
}
);
width = 531;
}
);
unicode = 004C;
},
{
glyphname = M;
layers = (
{
anchors = (
{
name = bottom;
position = "{475, 0}";
},
{
name = top;
position = "{475, 727}";
}
);
hints = (
{
horizontal = 1;
origin = "{0, 17}";
target = up;
type = BottomGhost;
},
{
horizontal = 1;
origin = "{0, 18}";
target = down;
type = TopGhost;
}
);
layerId = "BAA2CE79-BA31-4701-835E-3D9478C3F4B2";
paths = (
{
closed = 1;
nodes = (
"159 0 LINE",
"215 583 LINE",
"218 625 LINE",
"231 583 LINE",
"430 10 LINE",
"519 10 LINE",
"717 582 LINE",
"729 625 LINE",
"732 582 LINE",
"789 0 LINE",
"880 0 LINE",
"800 727 LINE",
"677 727 LINE",
"482 143 LINE",
"475 112 LINE",
"468 143 LINE",
"273 727 LINE",
"150 727 LINE {name = hr00;}",
"69 0 LINE"
);
}
);
width = 949;
},
{
anchors = (
{
name = bottom;
position = "{474, 0}";
},
{
name = top;
position = "{560, 727}";
}
);
hints = (
{
horizontal = 1;
origin = "{0, 17}";
target = up;
type = BottomGhost;
},
{
horizontal = 1;
origin = "{0, 18}";
target = down;
type = TopGhost;
}
);
layerId = "3BBF7C5C-CA4C-45AB-AE18-0528A0ACCA90";
paths = (
{
closed = 1;
nodes = (
"159 0 LINE",
"286 583 LINE",
"294 625 LINE",
"302 583 LINE",
"431 10 LINE",
"520 10 LINE",
"788 582 LINE",
"805 625 LINE",
"803 582 LINE",
"789 0 LINE",
"880 0 LINE",
"889 727 LINE",
"766 727 LINE",
"499 143 LINE",
"488 112 LINE",
"485 143 LINE",
"362 727 LINE",
"239 727 LINE {name = hr00;}",
"69 0 LINE"
);
}
);
width = 949;
},
{
anchors = (
{
name = bottom;
position = "{491, 0}";
},
{
name = top;
position = "{491, 727}";
}
);
hints = (
{
horizontal = 1;
origin = "{0, 17}";
target = up;
type = BottomGhost;
},
{
horizontal = 1;
origin = "{0, 18}";
target = down;
type = TopGhost;
}
);
layerId = "58254875-FB9E-4C1D-8B15-704836B9A7CF";
paths = (
{
closed = 1;
nodes = (
"205 0 LINE",
"242 549 LINE",
"245 596 LINE",
"257 549 LINE",
"417 10 LINE",
"564 10 LINE",
"722 548 LINE",
"734 596 LINE",
"737 548 LINE",
"776 0 LINE",
"907 0 LINE",
"839 727 LINE",
"657 727 LINE",
"499 166 LINE",
"491 130 LINE",
"484 166 LINE",
"325 727 LINE",
"144 727 LINE {name = hr00;}",
"74 0 LINE"
);
}
);
width = 982;
},
{
anchors = (
{
name = bottom;
position = "{490, 0}";
},
{
name = top;
position = "{578, 727}";
}
);
hints = (
{
horizontal = 1;
origin = "{0, 17}";
target = up;
type = BottomGhost;
},
{
horizontal = 1;
origin = "{0, 18}";
target = down;
type = TopGhost;
}
);
layerId = "5E1C92F4-866D-4CC0-BA00-538F5374015A";
paths = (
{
closed = 1;
nodes = (
"205 0 LINE",
"309 549 LINE",
"318 596 LINE",
"324 549 LINE",
"418 10 LINE",
"565 10 LINE",
"789 548 LINE",
"807 596 LINE",
"804 548 LINE",
"776 0 LINE",
"907 0 LINE",
"928 727 LINE",
"746 727 LINE",
"519 166 LINE",
"506 130 LINE",
"504 166 LINE",
"414 727 LINE",
"233 727 LINE {name = hr00;}",
"74 0 LINE"
);
}
);
width = 982;
}
);
unicode = 004D;
userData = {
com.typemytype.robofont.guides = (
{
angle = 0;
isGlobal = 0;
magnetic = 5;
x = 0;
y = 191;
}
);
};
},
{
glyphname = N;
layers = (
{
anchors = (
{
name = bottom;
position = "{375, 0}";
},
{
name = top;
position = "{381, 727}";
}
);
hints = (
{
horizontal = 1;
origin = "{0, 3}";
target = up;
type = BottomGhost;
},
{
horizontal = 1;
origin = "{0, 4}";
target = down;
type = TopGhost;
},
{
origin = "{0, 3}";
target = "{0, 2}";
type = Stem;
},
{
origin = "{0, 8}";
target = "{0, 11}";
type = Stem;
}
);
layerId = "BAA2CE79-BA31-4701-835E-3D9478C3F4B2";
paths = (
{
closed = 1;
nodes = (
"185 0 LINE",
"185 581 LINE",
"183 615 LINE",
"197 581 LINE {name = hr00;}",
"561 0 LINE",
"646 0 LINE",
"646 727 LINE",
"562 727 LINE",
"562 165 LINE",
"564 130 LINE",
"552 163 LINE",
"199 727 LINE",
"104 727 LINE",
"104 0 LINE"
);
}
);
width = 749;
},
{
anchors = (
{
name = bottom;
position = "{376, 0}";
},
{
name = top;
position = "{470, 727}";
}
);
hints = (
{
horizontal = 1;
origin = "{0, 13}";
target = up;
type = BottomGhost;
},
{
horizontal = 1;
origin = "{0, 12}";
target = down;
type = TopGhost;
}
);
layerId = "3BBF7C5C-CA4C-45AB-AE18-0528A0ACCA90";
paths = (
{
closed = 1;
nodes = (
"185 0 LINE",
"256 581 LINE",
"258 615 LINE",
"268 581 LINE {name = hr00;}",
"561 0 LINE",
"646 0 LINE",
"735 727 LINE",
"651 727 LINE",
"582 165 LINE",
"579 130 LINE",
"572 163 LINE",
"288 727 LINE",
"193 727 LINE",
"104 0 LINE"
);
}
);
width = 749;
},
{
anchors = (
{
name = bottom;
position = "{388, 0}";
},
{
name = top;
position = "{392, 727}";
}
);
hints = (
{
horizontal = 1;
origin = "{0, 13}";
target = up;
type = BottomGhost;
},
{
horizontal = 1;
origin = "{0, 12}";
target = down;
type = TopGhost;
},
{
origin = "{0, 13}";
target = "{0, 0}";
type = Stem;
},
{
origin = "{0, 4}";
target = "{0, 5}";
type = Stem;
}
);
layerId = "58254875-FB9E-4C1D-8B15-704836B9A7CF";
paths = (
{
closed = 1;
nodes = (
"216 0 LINE",
"216 511 LINE",
"214 545 LINE",
"230 509 LINE {name = hr00;}",
"551 0 LINE",
"677 0 LINE",
"677 727 LINE",
"551 727 LINE",
"551 238 LINE",
"553 198 LINE",
"539 238 LINE",
"232 727 LINE",
"94 727 LINE",
"94 0 LINE"
);
}
);
width = 778;
},
{
anchors = (
{
name = bottom;
position = "{385, 0}";
},
{
name = top;
position = "{481, 727}";
}
);
hints = (
{
horizontal = 1;
origin = "{0, 3}";
target = up;
type = BottomGhost;
},
{
horizontal = 1;
origin = "{0, 4}";
target = down;
type = TopGhost;
}
);
layerId = "5E1C92F4-866D-4CC0-BA00-538F5374015A";
paths = (
{
closed = 1;
nodes = (
"216 0 LINE",
"278 511 LINE",
"280 545 LINE",
"292 509 LINE {name = hr00;}",
"551 0 LINE",
"677 0 LINE",
"766 727 LINE",
"640 727 LINE",
"580 238 LINE",
"577 198 LINE",
"568 238 LINE",
"321 727 LINE",
"183 727 LINE",
"94 0 LINE"
);
}
);
width = 778;
}
);
unicode = 004E;
userData = {
com.typemytype.robofont.guides = (
{
angle = 0;
isGlobal = 0;
magnetic = 5;
x = 0;
y = 579;
},
{
angle = 0;
isGlobal = 0;
magnetic = 5;
x = 0;
y = 148;
}
);
};
},
{
glyphname = O;
layers = (
{
anchors = (
{
name = bottom;
position = "{382, 0}";
},
{
name = center;
position = "{382, 364}";
},
{
name = ogonek;
position = "{712, 0}";
},
{
name = top;
position = "{382, 727}";
},
{
name = topleft;
position = "{20, 727}";
},
{
name = topright;
position = "{771, 727}";
}
);
hints = (
{
horizontal = 1;
origin = "{0, 11}";
target = "{1, 11}";
type = Stem;
},
{
horizontal = 1;
origin = "{1, 5}";
target = "{0, 5}";
type = Stem;
},
{
origin = "{0, 8}";
target = "{1, 2}";
type = Stem;
},
{
origin = "{1, 8}";
target = "{0, 2}";
type = Stem;
}
);
layerId = "BAA2CE79-BA31-4701-835E-3D9478C3F4B2";
paths = (
{
closed = 1;
nodes = (
"563 -14 OFFCURVE",
"719 133 OFFCURVE",
"719 364 CURVE",
"719 570 OFFCURVE",
"599 742 OFFCURVE",
"382 742 CURVE",
"226 742 OFFCURVE",
"45 619 OFFCURVE",
"45 364 CURVE {name = hr00;}",
"45 128 OFFCURVE",
"195 -14 OFFCURVE",
"382 -14 CURVE SMOOTH"
);
},
{
closed = 1;
nodes = (
"247 58 OFFCURVE",
"147 183 OFFCURVE",
"147 364 CURVE",
"147 552 OFFCURVE",
"253 669 OFFCURVE",
"382 669 CURVE SMOOTH",
"511 669 OFFCURVE",
"617 552 OFFCURVE",
"617 364 CURVE",
"617 193 OFFCURVE",
"523 58 OFFCURVE",
"382 58 CURVE"
);
}
);
width = 791;
},
{
anchors = (
{
name = bottom;
position = "{382, 0}";
},
{
name = center;
position = "{426, 364}";
},
{
name = ogonek;
position = "{681, 0}";
},
{
name = top;
position = "{471, 727}";
},
{
name = topleft;
position = "{118, 727}";
},
{
name = topright;
position = "{829, 727}";
}
);
hints = (
{
horizontal = 1;
origin = "{0, 11}";
target = "{1, 11}";
type = Stem;
},
{
horizontal = 1;
origin = "{1, 5}";
target = "{0, 5}";
type = Stem;
}
);
layerId = "3BBF7C5C-CA4C-45AB-AE18-0528A0ACCA90";
paths = (
{
closed = 1;
nodes = (
"561 -14 OFFCURVE",
"735 133 OFFCURVE",
"763 364 CURVE",
"788 570 OFFCURVE",
"690 742 OFFCURVE",
"473 742 CURVE",
"317 742 OFFCURVE",
"121 619 OFFCURVE",
"89 364 CURVE {name = hr00;}",
"60 128 OFFCURVE",
"193 -14 OFFCURVE",
"380 -14 CURVE SMOOTH"
);
},
{
closed = 1;
nodes = (
"254 58 OFFCURVE",
"169 183 OFFCURVE",
"191 364 CURVE",
"214 552 OFFCURVE",
"335 669 OFFCURVE",
"464 669 CURVE SMOOTH",
"593 669 OFFCURVE",
"684 552 OFFCURVE",
"661 364 CURVE",
"640 193 OFFCURVE",
"530 58 OFFCURVE",
"389 58 CURVE"
);
}
);
width = 791;
},
{
anchors = (
{
name = bottom;
position = "{405, 0}";
},
{
name = center;
position = "{405, 364}";
},
{
name = ogonek;
position = "{710, 0}";
},
{
name = top;
position = "{405, 727}";
},
{
name = topleft;
position = "{20, 727}";
},
{
name = topright;
position = "{769, 727}";
}
);
hints = (
{
horizontal = 1;
origin = "{0, 11}";
target = "{1, 11}";
type = Stem;
},
{
horizontal = 1;
origin = "{1, 5}";
target = "{0, 5}";
type = Stem;
},
{
origin = "{0, 8}";
target = "{1, 2}";
type = Stem;
},
{
origin = "{1, 8}";
target = "{0, 2}";
type = Stem;
}
);
layerId = "58254875-FB9E-4C1D-8B15-704836B9A7CF";
paths = (
{
closed = 1;
nodes = (
"637 -14 OFFCURVE",
"766 168 OFFCURVE",
"766 364 CURVE",
"766 541 OFFCURVE",
"666 742 OFFCURVE",
"405 742 CURVE",
"176 742 OFFCURVE",
"43 573 OFFCURVE",
"43 364 CURVE",
"43 149 OFFCURVE",
"174 -14 OFFCURVE",
"405 -14 CURVE"
);
},
{
closed = 1;
nodes = (
"267 89 OFFCURVE",
"195 226 OFFCURVE",
"195 364 CURVE",
"195 512 OFFCURVE",
"267 639 OFFCURVE",
"405 639 CURVE {name = hr00;}",
"537 639 OFFCURVE",
"615 521 OFFCURVE",
"615 364 CURVE",
"615 189 OFFCURVE",
"515 89 OFFCURVE",
"405 89 CURVE"
);
}
);
width = 789;
},
{
anchors = (
{
name = bottom;
position = "{404, 0}";
},
{
name = center;
position = "{449, 364}";
},
{
name = ogonek;
position = "{679, 10}";
},
{
name = top;
position = "{494, 727}";
},
{
name = topleft;
position = "{78, 727}";
},
{
name = topright;
position = "{827, 727}";
}
);
hints = (
{
horizontal = 1;
origin = "{1, 11}";
target = "{0, 5}";
type = Stem;
},
{
horizontal = 1;
origin = "{0, 11}";
target = "{1, 5}";
type = Stem;
}
);
layerId = "5E1C92F4-866D-4CC0-BA00-538F5374015A";
paths = (
{
closed = 1;
nodes = (
"635 -14 OFFCURVE",
"786 168 OFFCURVE",
"810 364 CURVE",
"832 541 OFFCURVE",
"757 742 OFFCURVE",
"496 742 CURVE",
"267 742 OFFCURVE",
"113 573 OFFCURVE",
"87 364 CURVE",
"61 149 OFFCURVE",
"172 -14 OFFCURVE",
"403 -14 CURVE"
);
},
{
closed = 1;
nodes = (
"277 89 OFFCURVE",
"222 226 OFFCURVE",
"239 364 CURVE",
"257 512 OFFCURVE",
"345 639 OFFCURVE",
"483 639 CURVE {name = hr00;}",
"615 639 OFFCURVE",
"678 521 OFFCURVE",
"659 364 CURVE",
"638 189 OFFCURVE",
"525 89 OFFCURVE",
"415 89 CURVE"
);
}
);
width = 789;
}
);
unicode = 004F;
},
{
glyphname = Oacute;
layers = (
{
components = (
{
name = O;
},
{
name = acutecomb.case;
transform = "{1, 0, 0, 1, 292, 0}";
}
);
hints = (
{
horizontal = 1;
place = "{364, 306}";
type = Stem;
},
{
horizontal = 1;
place = "{364, 526}";
type = Stem;
},
{
place = "{382, 235}";
type = Stem;
},
{
place = "{382, 337}";
type = Stem;
}
);
layerId = "BAA2CE79-BA31-4701-835E-3D9478C3F4B2";
width = 791;
},
{
components = (
{
name = O;
},
{
name = acutecomb.case;
transform = "{1, 0, 0, 1, 324, 0}";
}
);
hints = (
{
horizontal = 1;
place = "{-14, 72}";
type = Stem;
},
{
horizontal = 1;
place = "{669, 221}";
type = Stem;
}
);
layerId = "3BBF7C5C-CA4C-45AB-AE18-0528A0ACCA90";
width = 791;
},
{
components = (
{
name = O;
},
{
name = acutecomb.case;
transform = "{1, 0, 0, 1, 301, 0}";
}
);
hints = (
{
horizontal = 1;
place = "{-14, 103}";
type = Stem;
},
{
horizontal = 1;
place = "{639, 103}";
type = Stem;
},
{
horizontal = 1;
place = "{890, 21}";
target = up;
type = BottomGhost;
},
{
place = "{19, 152}";
type = Stem;
},
{
place = "{591, 151}";
type = Stem;
}
);
layerId = "58254875-FB9E-4C1D-8B15-704836B9A7CF";
width = 789;
},
{
components = (
{
name = O;
},
{
name = acutecomb.case;
transform = "{1, 0, 0, 1, 332, 0}";
}
);
hints = (
{
horizontal = 1;
place = "{-14, 103}";
type = Stem;
},
{
horizontal = 1;
place = "{639, 103}";
type = Stem;
},
{
horizontal = 1;
place = "{890, 21}";
target = up;
type = BottomGhost;
}
);
layerId = "5E1C92F4-866D-4CC0-BA00-538F5374015A";
width = 789;
},
{
associatedMasterId = "BAA2CE79-BA31-4701-835E-3D9478C3F4B2";
hints = (
{
horizontal = 1;
place = "{364, 306}";
type = Stem;
},
{
horizontal = 1;
place = "{364, 526}";
type = Stem;
},
{
place = "{382, 235}";
type = Stem;
},
{
place = "{382, 337}";
type = Stem;
}
);
layerId = "AB0FDFFB-3B96-4EA9-9378-7C92630AE827";
name = "Aug 21 18, 16:19";
paths = (
{
closed = 1;
nodes = (
"563 -14 OFFCURVE",
"719 133 OFFCURVE",
"719 364 CURVE",
"719 599 OFFCURVE",
"571 742 OFFCURVE",
"382 742 CURVE SMOOTH",
"202 742 OFFCURVE",
"45 595 OFFCURVE",
"45 364 CURVE SMOOTH",
"45 128 OFFCURVE",
"195 -14 OFFCURVE",
"382 -14 CURVE SMOOTH"
);
},
{
closed = 1;
nodes = (
"254 58 OFFCURVE",
"147 174 OFFCURVE",
"147 364 CURVE SMOOTH",
"147 552 OFFCURVE",
"253 669 OFFCURVE",
"382 669 CURVE SMOOTH",
"511 669 OFFCURVE",
"617 552 OFFCURVE",
"617 364 CURVE",
"617 174 OFFCURVE",
"511 58 OFFCURVE",
"382 58 CURVE SMOOTH"
);
},
{
closed = 1;
nodes = (
"379 758 OFFCURVE",
"416 763 OFFCURVE",
"443 792 CURVE",
"531 890 LINE {name = hr01;}",
"434 890 LINE",
"345 766 LINE"
);
}
);
width = 791;
},
{
associatedMasterId = "3BBF7C5C-CA4C-45AB-AE18-0528A0ACCA90";
hints = (
{
horizontal = 1;
origin = "{0, 11}";
target = "{1, 11}";
type = Stem;
},
{
horizontal = 1;
origin = "{1, 5}";
target = "{2, 4}";
type = Stem;
}
);
layerId = "9BCA219E-FFF1-4F33-9C14-A195ADA51289";
name = "Aug 21 18, 16:19";
paths = (
{
closed = 1;
nodes = (
"561 -14 OFFCURVE",
"735 133 OFFCURVE",
"763 364 CURVE",
"792 599 OFFCURVE",
"662 742 OFFCURVE",
"473 742 CURVE SMOOTH",
"293 742 OFFCURVE",
"118 595 OFFCURVE",
"89 364 CURVE SMOOTH",
"60 128 OFFCURVE",
"193 -14 OFFCURVE",
"380 -14 CURVE SMOOTH"
);
},
{
closed = 1;
nodes = (
"261 58 OFFCURVE",
"168 174 OFFCURVE",
"191 364 CURVE SMOOTH",
"214 552 OFFCURVE",
"335 669 OFFCURVE",
"464 669 CURVE SMOOTH",
"593 669 OFFCURVE",
"684 552 OFFCURVE",
"661 364 CURVE",
"638 174 OFFCURVE",
"518 58 OFFCURVE",
"389 58 CURVE SMOOTH"
);
},
{
closed = 1;
nodes = (
"472 758 OFFCURVE",
"509 763 OFFCURVE",
"540 792 CURVE",
"640 890 LINE",
"543 890 LINE {name = hr01;}",
"439 766 LINE"
);
}
);
width = 791;
},
{
associatedMasterId = "58254875-FB9E-4C1D-8B15-704836B9A7CF";
hints = (
{
horizontal = 1;
origin = "{0, 11}";
target = "{1, 11}";
type = Stem;
},
{
horizontal = 1;
origin = "{1, 5}";
target = "{0, 5}";
type = Stem;
},
{
horizontal = 1;
origin = "{2, 4}";
target = up;
type = BottomGhost;
},
{
origin = "{0, 8}";
target = "{1, 2}";
type = Stem;
},
{
origin = "{1, 8}";
target = "{0, 2}";
type = Stem;
}
);
layerId = "88CE8009-953B-4531-AF02-0CDCA0767977";
name = "Aug 21 18, 16:19";
paths = (
{
closed = 1;
nodes = (
"591 -14 OFFCURVE",
"742 145 OFFCURVE",
"742 364 CURVE SMOOTH",
"742 584 OFFCURVE",
"606 742 OFFCURVE",
"381 742 CURVE",
"160 742 OFFCURVE",
"19 582 OFFCURVE",
"19 364 CURVE",
"19 143 OFFCURVE",
"155 -14 OFFCURVE",
"381 -14 CURVE"
);
},
{
closed = 1;
nodes = (
"243 89 OFFCURVE",
"171 226 OFFCURVE",
"171 364 CURVE",
"171 512 OFFCURVE",
"243 639 OFFCURVE",
"381 639 CURVE",
"519 639 OFFCURVE",
"591 512 OFFCURVE",
"591 364 CURVE SMOOTH",
"591 226 OFFCURVE",
"519 89 OFFCURVE",
"381 89 CURVE {name = hr00;}"
);
},
{
closed = 1;
nodes = (
"364 756 OFFCURVE",
"437 763 OFFCURVE",
"477 808 CURVE",
"549 890 LINE",
"416 890 LINE",
"330 765 LINE"
);
}
);
width = 791;
},
{
associatedMasterId = "5E1C92F4-866D-4CC0-BA00-538F5374015A";
hints = (
{
horizontal = 1;
origin = "{0, 11}";
target = "{1, 11}";
type = Stem;
},
{
horizontal = 1;
origin = "{1, 5}";
target = "{0, 5}";
type = Stem;
},
{
horizontal = 1;
origin = "{2, 4}";
target = up;
type = BottomGhost;
}
);
layerId = "889A9DB2-A39B-4882-B3D1-6F318E28366E";
name = "Aug 21 18, 16:19";
paths = (
{
closed = 1;
nodes = (
"589 -14 OFFCURVE",
"759 145 OFFCURVE",
"786 364 CURVE SMOOTH",
"813 584 OFFCURVE",
"697 742 OFFCURVE",
"472 742 CURVE",
"251 742 OFFCURVE",
"90 582 OFFCURVE",
"63 364 CURVE",
"36 143 OFFCURVE",
"153 -14 OFFCURVE",
"379 -14 CURVE"
);
},
{
closed = 1;
nodes = (
"253 89 OFFCURVE",
"198 226 OFFCURVE",
"215 364 CURVE",
"233 512 OFFCURVE",
"321 639 OFFCURVE",
"459 639 CURVE",
"597 639 OFFCURVE",
"653 512 OFFCURVE",
"635 364 CURVE SMOOTH",
"618 226 OFFCURVE",
"529 89 OFFCURVE",
"391 89 CURVE {name = hr00;}"
);
},
{
closed = 1;
nodes = (
"456 756 OFFCURVE",
"530 763 OFFCURVE",
"576 808 CURVE",
"658 890 LINE",
"525 890 LINE",
"423 765 LINE"
);
}
);
width = 791;
}
);
unicode = 00D3;
},
{
glyphname = OE;
layers = (
{
anchors = (
{
name = bottom;
position = "{548, 0}";
},
{
name = top;
position = "{548, 727}";
}
);
hints = (
{
horizontal = 1;
origin = "{0, 15}";
target = "{0, 12}";
type = Stem;
},
{
horizontal = 1;
origin = "{2, 1}";
target = "{2, 4}";
type = Stem;
},
{
horizontal = 1;
origin = "{0, 11}";
target = "{0, 8}";
type = Stem;
},
{
origin = "{0, 2}";
target = "{1, 2}";
type = Stem;
},
{
origin = "{1, 8}";
target = "{0, 12}";
type = Stem;
},
{
horizontal = 1;
origin = "{0, 18}";
target = "{1, 5}";
type = Stem;
},
{
horizontal = 1;
origin = "{1, 12}";
target = "{0, 5}";
type = Stem;
}
);
layerId = "BAA2CE79-BA31-4701-835E-3D9478C3F4B2";
paths = (
{
closed = 1;
nodes = (
"415 -14 OFFCURVE",
"476 0 OFFCURVE",
"530 0 CURVE {name = hr01;}",
"929 0 LINE",
"929 72 LINE",
"595 72 LINE",
"595 655 LINE",
"914 655 LINE",
"914 727 LINE",
"530 727 LINE",
"480 727 OFFCURVE",
"420 742 OFFCURVE",
"382 742 CURVE SMOOTH {name = hr02;}",
"202 742 OFFCURVE",
"45 595 OFFCURVE",
"45 364 CURVE SMOOTH",
"45 128 OFFCURVE",
"195 -14 OFFCURVE",
"382 -14 CURVE"
);
},
{
closed = 1;
nodes = (
"254 58 OFFCURVE",
"147 174 OFFCURVE",
"147 364 CURVE SMOOTH",
"147 552 OFFCURVE",
"253 669 OFFCURVE",
"382 669 CURVE",
"416 669 OFFCURVE",
"463 662 OFFCURVE",
"500 650 CURVE",
"500 77 LINE",
"458 63 OFFCURVE",
"416 58 OFFCURVE",
"382 58 CURVE SMOOTH"
);
},
{
closed = 1;
nodes = (
"880 346 LINE",
"880 416 LINE",
"719 416 LINE",
"671 416 OFFCURVE",
"647 384 OFFCURVE",
"633 346 CURVE"
);
}
);
width = 988;
},
{
anchors = (
{
name = bottom;
position = "{547, 0}";
},
{
name = top;
position = "{636, 727}";
}
);
hints = (
{
horizontal = 1;
origin = "{0, 15}";
target = "{0, 12}";
type = Stem;
},
{
horizontal = 1;
origin = "{2, 1}";
target = "{2, 4}";
type = Stem;
},
{
horizontal = 1;
origin = "{0, 11}";
target = "{0, 8}";
type = Stem;
},
{
horizontal = 1;
origin = "{0, 18}";
target = "{1, 5}";
type = Stem;
},
{
horizontal = 1;
origin = "{1, 12}";
target = "{0, 5}";
type = Stem;
}
);
layerId = "3BBF7C5C-CA4C-45AB-AE18-0528A0ACCA90";
paths = (
{
closed = 1;
nodes = (
"413 -14 OFFCURVE",
"476 0 OFFCURVE",
"530 0 CURVE",
"929 0 LINE",
"937 72 LINE",
"603 72 LINE",
"675 655 LINE",
"994 655 LINE",
"1003 727 LINE",
"619 727 LINE {name = hr01;}",
"569 727 OFFCURVE",
"511 742 OFFCURVE",
"473 742 CURVE SMOOTH",
"293 742 OFFCURVE",
"118 595 OFFCURVE",
"89 364 CURVE SMOOTH",
"60 128 OFFCURVE",
"193 -14 OFFCURVE",
"380 -14 CURVE"
);
},
{
closed = 1;
nodes = (
"261 58 OFFCURVE",
"168 174 OFFCURVE",
"191 364 CURVE SMOOTH",
"214 552 OFFCURVE",
"335 669 OFFCURVE",
"464 669 CURVE",
"498 669 OFFCURVE",
"544 662 OFFCURVE",
"579 650 CURVE",
"509 77 LINE",
"465 63 OFFCURVE",
"423 58 OFFCURVE",
"389 58 CURVE SMOOTH"
);
},
{
closed = 1;
nodes = (
"922 346 LINE",
"931 416 LINE",
"770 416 LINE",
"722 416 OFFCURVE",
"694 384 OFFCURVE",
"675 346 CURVE"
);
}
);
width = 988;
},
{
anchors = (
{
name = bottom;
position = "{573, 0}";
},
{
name = top;
position = "{573, 727}";
}
);
hints = (
{
horizontal = 1;
origin = "{0, 9}";
target = "{0, 6}";
type = Stem;
},
{
horizontal = 1;
origin = "{2, 5}";
target = "{2, 2}";
type = Stem;
},
{
horizontal = 1;
origin = "{0, 5}";
target = "{0, 2}";
type = Stem;
},
{
origin = "{0, 15}";
target = "{1, 9}";
type = Stem;
},
{
origin = "{1, 2}";
target = "{0, 6}";
type = Stem;
},
{
horizontal = 1;
origin = "{0, 12}";
target = "{1, 12}";
type = Stem;
},
{
horizontal = 1;
origin = "{1, 6}";
target = "{0, 18}";
type = Stem;
}
);
layerId = "58254875-FB9E-4C1D-8B15-704836B9A7CF";
paths = (
{
closed = 1;
nodes = (
"453 -14 OFFCURVE",
"498 0 OFFCURVE",
"564 0 CURVE SMOOTH",
"953 0 LINE",
"953 103 LINE",
"644 103 LINE",
"644 624 LINE",
"937 624 LINE",
"937 727 LINE",
"564 727 LINE SMOOTH {name = hr01;}",
"503 727 OFFCURVE",
"459 742 OFFCURVE",
"405 742 CURVE SMOOTH",
"184 742 OFFCURVE",
"43 582 OFFCURVE",
"43 364 CURVE SMOOTH",
"43 143 OFFCURVE",
"179 -14 OFFCURVE",
"405 -14 CURVE SMOOTH {name = hr02;}"
);
},
{
closed = 1;
nodes = (
"267 89 OFFCURVE",
"195 226 OFFCURVE",
"195 364 CURVE SMOOTH",
"195 512 OFFCURVE",
"267 639 OFFCURVE",
"405 639 CURVE SMOOTH",
"440 639 OFFCURVE",
"472 633 OFFCURVE",
"501 622 CURVE",
"501 105 LINE",
"472 94 OFFCURVE",
"440 89 OFFCURVE",
"405 89 CURVE SMOOTH"
);
},
{
closed = 1;
nodes = (
"903 331 LINE",
"903 432 LINE",
"782 432 LINE SMOOTH",
"724 432 OFFCURVE",
"695 375 OFFCURVE",
"682 331 CURVE"
);
}
);
width = 1006;
},
{
anchors = (
{
name = bottom;
position = "{572, 0}";
},
{
name = top;
position = "{661, 727}";
}
);
hints = (
{
horizontal = 1;
origin = "{0, 9}";
target = "{0, 6}";
type = Stem;
},
{
horizontal = 1;
origin = "{2, 5}";
target = "{2, 2}";
type = Stem;
},
{
horizontal = 1;
origin = "{0, 5}";
target = "{0, 2}";
type = Stem;
},
{
horizontal = 1;
origin = "{0, 12}";
target = "{1, 12}";
type = Stem;
},
{
horizontal = 1;
origin = "{1, 6}";
target = "{0, 18}";
type = Stem;
}
);
layerId = "5E1C92F4-866D-4CC0-BA00-538F5374015A";
paths = (
{
closed = 1;
nodes = (
"451 -14 OFFCURVE",
"498 0 OFFCURVE",
"564 0 CURVE SMOOTH",
"953 0 LINE",
"965 103 LINE",
"656 103 LINE",
"720 624 LINE",
"1013 624 LINE",
"1026 727 LINE",
"653 727 LINE SMOOTH {name = hr01;}",
"592 727 OFFCURVE",
"550 742 OFFCURVE",
"496 742 CURVE SMOOTH",
"275 742 OFFCURVE",
"114 582 OFFCURVE",
"87 364 CURVE SMOOTH",
"60 143 OFFCURVE",
"177 -14 OFFCURVE",
"403 -14 CURVE SMOOTH {name = hr02;}"
);
},
{
closed = 1;
nodes = (
"277 89 OFFCURVE",
"222 226 OFFCURVE",
"239 364 CURVE SMOOTH",
"257 512 OFFCURVE",
"345 639 OFFCURVE",
"483 639 CURVE SMOOTH",
"518 639 OFFCURVE",
"549 633 OFFCURVE",
"577 622 CURVE",
"513 105 LINE",
"483 94 OFFCURVE",
"450 89 OFFCURVE",
"415 89 CURVE SMOOTH"
);
},
{
closed = 1;
nodes = (
"943 331 LINE",
"956 432 LINE",
"835 432 LINE SMOOTH",
"777 432 OFFCURVE",
"741 375 OFFCURVE",
"722 331 CURVE"
);
}
);
width = 1006;
}
);
leftMetricsKey = O;
rightMetricsKey = E;
unicode = 0152;
},
{
glyphname = P;
layers = (
{
anchors = (
{
name = bottom;
position = "{137, 0}";
},
{
name = top;
position = "{305, 727}";
}
);
hints = (
{
horizontal = 1;
origin = "{0, 26}";
target = up;
type = BottomGhost;
},
{
horizontal = 1;
origin = "{0, 3}";
target = "{0, 21}";
type = Stem;
},
{
origin = "{0, 25}";
target = "{0, 26}";
type = Stem;
},
{
origin = "{0, 6}";
target = "{0, 18}";
type = Stem;
}
);
layerId = "BAA2CE79-BA31-4701-835E-3D9478C3F4B2";
paths = (
{
closed = 1;
nodes = (
"184 0 LINE",
"184 661 LINE",
"220 665 OFFCURVE",
"257 667 OFFCURVE",
"294 667 CURVE SMOOTH",
"384 667 OFFCURVE",
"457 604 OFFCURVE",
"457 520 CURVE",
"457 435 OFFCURVE",
"381 374 OFFCURVE",
"312 374 CURVE SMOOTH",
"270 374 OFFCURVE",
"239 347 OFFCURVE",
"224 313 CURVE",
"261 303 OFFCURVE",
"295 302 OFFCURVE",
"324 305 CURVE SMOOTH",
"444 315 OFFCURVE",
"558 392 OFFCURVE",
"558 520 CURVE SMOOTH {name = hr00;}",
"558 641 OFFCURVE",
"455 740 OFFCURVE",
"294 740 CURVE",
"221 740 OFFCURVE",
"164 735 OFFCURVE",
"89 720 CURVE",
"89 0 LINE"
);
}
);
width = 609;
},
{
anchors = (
{
name = bottom;
position = "{137, 0}";
},
{
name = top;
position = "{387, 727}";
}
);
hints = (
{
horizontal = 1;
origin = "{0, 26}";
target = up;
type = BottomGhost;
},
{
horizontal = 1;
origin = "{0, 3}";
target = "{0, 21}";
type = Stem;
}
);
layerId = "3BBF7C5C-CA4C-45AB-AE18-0528A0ACCA90";
paths = (
{
closed = 1;
nodes = (
"184 0 LINE",
"265 661 LINE",
"301 665 OFFCURVE",
"338 667 OFFCURVE",
"375 667 CURVE SMOOTH",
"465 667 OFFCURVE",
"531 604 OFFCURVE",
"520 520 CURVE",
"510 435 OFFCURVE",
"426 374 OFFCURVE",
"357 374 CURVE SMOOTH",
"315 374 OFFCURVE",
"281 347 OFFCURVE",
"262 313 CURVE",
"298 303 OFFCURVE",
"332 302 OFFCURVE",
"361 305 CURVE SMOOTH",
"482 315 OFFCURVE",
"606 392 OFFCURVE",
"621 520 CURVE SMOOTH {name = hr00;}",
"636 641 OFFCURVE",
"545 740 OFFCURVE",
"384 740 CURVE",
"311 740 OFFCURVE",
"254 735 OFFCURVE",
"177 720 CURVE",
"89 0 LINE"
);
}
);
width = 609;
},
{
anchors = (
{
name = bottom;
position = "{155, 0}";
},
{
name = top;
position = "{323, 727}";
}
);
hints = (
{
horizontal = 1;
origin = "{0, 19}";
target = up;
type = BottomGhost;
},
{
horizontal = 1;
origin = "{0, 14}";
target = "{0, 23}";
type = Stem;
},
{
origin = "{0, 19}";
target = "{0, 18}";
type = Stem;
},
{
origin = "{0, 11}";
target = "{0, 26}";
type = Stem;
}
);
layerId = "58254875-FB9E-4C1D-8B15-704836B9A7CF";
paths = (
{
closed = 1;
nodes = (
"227 0 LINE",
"227 632 LINE",
"263 636 OFFCURVE",
"275 638 OFFCURVE",
"311 638 CURVE SMOOTH",
"394 638 OFFCURVE",
"450 582 OFFCURVE",
"450 513 CURVE",
"450 448 OFFCURVE",
"405 394 OFFCURVE",
"350 389 CURVE SMOOTH",
"305 385 OFFCURVE",
"279 336 OFFCURVE",
"264 298 CURVE",
"301 287 OFFCURVE",
"335 286 OFFCURVE",
"365 289 CURVE SMOOTH",
"484 300 OFFCURVE",
"597 380 OFFCURVE",
"597 513 CURVE SMOOTH {name = hr00;}",
"597 654 OFFCURVE",
"473 741 OFFCURVE",
"311 741 CURVE",
"239 741 OFFCURVE",
"191 736 OFFCURVE",
"83 718 CURVE",
"83 0 LINE"
);
}
);
width = 643;
},
{
anchors = (
{
name = bottom;
position = "{155, 0}";
},
{
name = top;
position = "{380, 727}";
}
);
hints = (
{
horizontal = 1;
origin = "{0, 19}";
target = up;
type = BottomGhost;
},
{
horizontal = 1;
origin = "{0, 14}";
target = "{0, 23}";
type = Stem;
}
);
layerId = "5E1C92F4-866D-4CC0-BA00-538F5374015A";
paths = (
{
closed = 1;
nodes = (
"227 0 LINE",
"304 632 LINE",
"341 636 OFFCURVE",
"353 638 OFFCURVE",
"389 638 CURVE SMOOTH",
"472 638 OFFCURVE",
"521 582 OFFCURVE",
"512 513 CURVE",
"505 448 OFFCURVE",
"453 394 OFFCURVE",
"397 389 CURVE SMOOTH",
"352 385 OFFCURVE",
"320 336 OFFCURVE",
"300 298 CURVE",
"336 287 OFFCURVE",
"370 286 OFFCURVE",
"400 289 CURVE SMOOTH",
"520 300 OFFCURVE",
"643 380 OFFCURVE",
"659 513 CURVE SMOOTH {name = hr00;}",
"677 654 OFFCURVE",
"563 741 OFFCURVE",
"401 741 CURVE",
"329 741 OFFCURVE",
"281 736 OFFCURVE",
"171 718 CURVE",
"83 0 LINE"
);
}
);
width = 643;
}
);
unicode = 0050;
},
{
glyphname = Thorn;
layers = (
{
anchors = (
{
name = bottom;
position = "{138, 0}";
},
{
name = top;
position = "{138, 727}";
}
);
hints = (
{
horizontal = 1;
origin = "{0, 19}";
target = up;
type = BottomGhost;
},
{
horizontal = 1;
origin = "{0, 14}";
target = "{0, 25}";
type = Stem;
},
{
horizontal = 1;
origin = "{0, 20}";
target = down;
type = TopGhost;
},
{
origin = "{0, 19}";
target = "{0, 18}";
type = Stem;
},
{
origin = "{0, 11}";
target = "{0, 28}";
type = Stem;
}
);
layerId = "BAA2CE79-BA31-4701-835E-3D9478C3F4B2";
paths = (
{
closed = 1;
nodes = (
"184 0 LINE",
"184 504 LINE",
"220 508 OFFCURVE",
"257 510 OFFCURVE",
"294 510 CURVE SMOOTH",
"384 510 OFFCURVE",
"457 447 OFFCURVE",
"457 363 CURVE SMOOTH",
"457 278 OFFCURVE",
"381 217 OFFCURVE",
"312 217 CURVE SMOOTH",
"270 217 OFFCURVE",
"239 190 OFFCURVE",
"224 156 CURVE",
"261 146 OFFCURVE",
"295 145 OFFCURVE",
"324 148 CURVE SMOOTH",
"444 158 OFFCURVE",
"558 235 OFFCURVE",
"558 363 CURVE SMOOTH {name = hr00;}",
"558 484 OFFCURVE",
"455 583 OFFCURVE",
"294 583 CURVE SMOOTH",
"254 583 OFFCURVE",
"219 581 OFFCURVE",
"184 577 CURVE",
"184 727 LINE",
"92 727 LINE",
"92 0 LINE"
);
}
);
width = 609;
},
{
anchors = (
{
name = bottom;
position = "{138, 0}";
},
{
name = top;
position = "{227, 727}";
}
);
hints = (
{
horizontal = 1;
origin = "{0, 19}";
target = up;
type = BottomGhost;
},
{
horizontal = 1;
origin = "{0, 14}";
target = "{0, 25}";
type = Stem;
},
{
horizontal = 1;
origin = "{0, 20}";
target = down;
type = TopGhost;
}
);
layerId = "3BBF7C5C-CA4C-45AB-AE18-0528A0ACCA90";
paths = (
{
closed = 1;
nodes = (
"184 0 LINE",
"245 504 LINE",
"282 508 OFFCURVE",
"319 510 OFFCURVE",
"356 510 CURVE SMOOTH",
"446 510 OFFCURVE",
"511 447 OFFCURVE",
"501 363 CURVE SMOOTH",
"491 278 OFFCURVE",
"407 217 OFFCURVE",
"338 217 CURVE SMOOTH",
"296 217 OFFCURVE",
"262 190 OFFCURVE",
"243 156 CURVE",
"278 146 OFFCURVE",
"312 145 OFFCURVE",
"342 148 CURVE SMOOTH",
"463 158 OFFCURVE",
"586 235 OFFCURVE",
"602 363 CURVE SMOOTH {name = hr00;}",
"617 484 OFFCURVE",
"526 583 OFFCURVE",
"365 583 CURVE SMOOTH",
"325 583 OFFCURVE",
"290 581 OFFCURVE",
"254 577 CURVE",
"273 727 LINE",
"181 727 LINE",
"92 0 LINE"
);
}
);
width = 609;
},
{
anchors = (
{
name = bottom;
position = "{139, 0}";
},
{
name = top;
position = "{139, 727}";
}
);
hints = (
{
horizontal = 1;
origin = "{0, 19}";
target = up;
type = BottomGhost;
},
{
horizontal = 1;
origin = "{0, 14}";
target = "{0, 25}";
type = Stem;
},
{
horizontal = 1;
origin = "{0, 20}";
target = down;
type = TopGhost;
},
{
origin = "{0, 19}";
target = "{0, 18}";
type = Stem;
},
{
origin = "{0, 11}";
target = "{0, 28}";
type = Stem;
}
);
layerId = "58254875-FB9E-4C1D-8B15-704836B9A7CF";
paths = (
{
closed = 1;
nodes = (
"207 0 LINE",
"207 488 LINE",
"243 492 OFFCURVE",
"255 494 OFFCURVE",
"291 494 CURVE SMOOTH",
"374 494 OFFCURVE",
"430 438 OFFCURVE",
"430 364 CURVE SMOOTH",
"430 294 OFFCURVE",
"385 240 OFFCURVE",
"330 235 CURVE SMOOTH",
"285 231 OFFCURVE",
"259 182 OFFCURVE",
"244 144 CURVE",
"281 133 OFFCURVE",
"315 132 OFFCURVE",
"345 135 CURVE SMOOTH",
"464 146 OFFCURVE",
"577 226 OFFCURVE",
"577 364 CURVE SMOOTH {name = hr00;}",
"577 511 OFFCURVE",
"453 597 OFFCURVE",
"291 597 CURVE SMOOTH",
"261 597 OFFCURVE",
"235 596 OFFCURVE",
"207 594 CURVE",
"207 727 LINE",
"71 727 LINE",
"71 0 LINE"
);
}
);
width = 609;
},
{
anchors = (
{
name = bottom;
position = "{139, 0}";
},
{
name = top;
position = "{228, 727}";
}
);
hints = (
{
horizontal = 1;
origin = "{0, 19}";
target = up;
type = BottomGhost;
},
{
horizontal = 1;
origin = "{0, 14}";
target = "{0, 25}";
type = Stem;
},
{
horizontal = 1;
origin = "{0, 20}";
target = down;
type = TopGhost;
}
);
layerId = "5E1C92F4-866D-4CC0-BA00-538F5374015A";
paths = (
{
closed = 1;
nodes = (
"207 0 LINE",
"266 488 LINE",
"303 492 OFFCURVE",
"315 494 OFFCURVE",
"351 494 CURVE SMOOTH",
"434 494 OFFCURVE",
"483 438 OFFCURVE",
"474 364 CURVE SMOOTH",
"466 294 OFFCURVE",
"414 240 OFFCURVE",
"358 235 CURVE SMOOTH",
"313 231 OFFCURVE",
"281 182 OFFCURVE",
"261 144 CURVE",
"297 133 OFFCURVE",
"331 132 OFFCURVE",
"361 135 CURVE SMOOTH",
"481 146 OFFCURVE",
"604 226 OFFCURVE",
"621 364 CURVE SMOOTH {name = hr00;}",
"639 511 OFFCURVE",
"526 597 OFFCURVE",
"364 597 CURVE SMOOTH",
"334 597 OFFCURVE",
"308 596 OFFCURVE",
"279 594 CURVE",
"296 727 LINE",
"160 727 LINE",
"71 0 LINE"
);
}
);
width = 609;
}
);
unicode = 00DE;
},
{
glyphname = Q;
layers = (
{
anchors = (
{
name = bottom;
position = "{394, 0}";
},
{
name = top;
position = "{394, 727}";
}
);
hints = (
{
horizontal = 1;
origin = "{0, 26}";
target = "{0, 17}";
type = Stem;
},
{
horizontal = 1;
origin = "{0, 11}";
target = "{0, 32}";
type = Stem;
},
{
origin = "{0, 29}";
target = "{0, 14}";
type = Stem;
},
{
origin = "{0, 8}";
target = "{0, 35}";
type = Stem;
}
);
layerId = "BAA2CE79-BA31-4701-835E-3D9478C3F4B2";
paths = (
{
closed = 1;
nodes = (
"441 -14 OFFCURVE",
"493 3 OFFCURVE",
"548 43 CURVE",
"526 67 OFFCURVE",
"481 76 OFFCURVE",
"446 67 CURVE SMOOTH",
"426 62 OFFCURVE",
"411 59 OFFCURVE",
"387 59 CURVE",
"256 59 OFFCURVE",
"154 178 OFFCURVE",
"154 364 CURVE SMOOTH",
"154 552 OFFCURVE",
"262 669 OFFCURVE",
"390 669 CURVE SMOOTH",
"519 669 OFFCURVE",
"624 552 OFFCURVE",
"624 364 CURVE",
"624 306 OFFCURVE",
"615 246 OFFCURVE",
"586 192 CURVE",
"579 168 LINE",
"566 187 LINE",
"466 291 LINE",
"412 238 LINE",
"659 -13 LINE",
"713 39 LINE {name = hr00;}",
"637 116 LINE",
"699 204 OFFCURVE",
"726 273 OFFCURVE",
"726 364 CURVE",
"726 599 OFFCURVE",
"579 742 OFFCURVE",
"390 742 CURVE SMOOTH",
"210 742 OFFCURVE",
"53 595 OFFCURVE",
"53 364 CURVE SMOOTH",
"53 134 OFFCURVE",
"197 -14 OFFCURVE",
"387 -14 CURVE"
);
}
);
width = 788;
},
{
anchors = (
{
name = bottom;
position = "{387, 0}";
},
{
name = top;
position = "{479, 727}";
}
);
hints = (
{
horizontal = 1;
origin = "{0, 26}";
target = "{0, 17}";
type = Stem;
},
{
horizontal = 1;
origin = "{0, 11}";
target = "{0, 32}";
type = Stem;
}
);
layerId = "3BBF7C5C-CA4C-45AB-AE18-0528A0ACCA90";
paths = (
{
closed = 1;
nodes = (
"439 -14 OFFCURVE",
"493 3 OFFCURVE",
"553 43 CURVE",
"534 67 OFFCURVE",
"490 76 OFFCURVE",
"454 67 CURVE SMOOTH",
"433 62 OFFCURVE",
"418 59 OFFCURVE",
"394 59 CURVE",
"263 59 OFFCURVE",
"175 178 OFFCURVE",
"198 364 CURVE SMOOTH",
"221 552 OFFCURVE",
"344 669 OFFCURVE",
"472 669 CURVE SMOOTH",
"601 669 OFFCURVE",
"691 552 OFFCURVE",
"668 364 CURVE",
"661 306 OFFCURVE",
"645 246 OFFCURVE",
"609 192 CURVE",
"599 168 LINE",
"588 187 LINE",
"501 291 LINE",
"441 238 LINE",
"657 -13 LINE",
"717 39 LINE {name = hr00;}",
"651 116 LINE",
"724 204 OFFCURVE",
"759 273 OFFCURVE",
"770 364 CURVE",
"799 599 OFFCURVE",
"670 742 OFFCURVE",
"481 742 CURVE SMOOTH",
"301 742 OFFCURVE",
"126 595 OFFCURVE",
"97 364 CURVE SMOOTH",
"69 134 OFFCURVE",
"195 -14 OFFCURVE",
"385 -14 CURVE"
);
}
);
width = 788;
},
{
anchors = (
{
name = bottom;
position = "{402, 0}";
},
{
name = top;
position = "{408, 727}";
}
);
hints = (
{
horizontal = 1;
origin = "{0, 13}";
target = up;
type = BottomGhost;
},
{
horizontal = 1;
origin = "{0, 24}";
target = "{0, 5}";
type = Stem;
},
{
origin = "{0, 2}";
target = "{0, 27}";
type = Stem;
},
{
origin = "{0, 21}";
target = "{0, 8}";
type = Stem;
},
{
horizontal = 1;
origin = "{0, 39}";
target = "{0, 30}";
type = Stem;
}
);
layerId = "58254875-FB9E-4C1D-8B15-704836B9A7CF";
paths = (
{
closed = 1;
nodes = (
"440 -14 OFFCURVE",
"492 2 OFFCURVE",
"540 34 CURVE",
"519 58 OFFCURVE",
"479 91 OFFCURVE",
"435 91 CURVE SMOOTH",
"423 91 OFFCURVE",
"403 89 OFFCURVE",
"394 89 CURVE {name = hr02;}",
"267 89 OFFCURVE",
"195 226 OFFCURVE",
"195 364 CURVE",
"195 512 OFFCURVE",
"267 639 OFFCURVE",
"405 639 CURVE",
"543 639 OFFCURVE",
"615 512 OFFCURVE",
"615 364 CURVE SMOOTH",
"615 319 OFFCURVE",
"607 268 OFFCURVE",
"589 226 CURVE",
"583 200 LINE",
"570 221 LINE",
"490 303 LINE",
"414 226 LINE",
"661 -26 LINE {name = hr01;}",
"737 50 LINE",
"675 114 LINE",
"729 183 OFFCURVE",
"766 273 OFFCURVE",
"766 364 CURVE SMOOTH",
"766 584 OFFCURVE",
"630 742 OFFCURVE",
"405 742 CURVE",
"184 742 OFFCURVE",
"43 582 OFFCURVE",
"43 364 CURVE",
"43 143 OFFCURVE",
"179 -14 OFFCURVE",
"394 -14 CURVE"
);
}
);
width = 781;
},
{
anchors = (
{
name = bottom;
position = "{394, 0}";
},
{
name = top;
position = "{494, 727}";
}
);
hints = (
{
horizontal = 1;
origin = "{0, 13}";
target = up;
type = BottomGhost;
},
{
horizontal = 1;
origin = "{0, 24}";
target = "{0, 5}";
type = Stem;
},
{
horizontal = 1;
origin = "{0, 39}";
target = "{0, 30}";
type = Stem;
}
);
layerId = "5E1C92F4-866D-4CC0-BA00-538F5374015A";
paths = (
{
closed = 1;
nodes = (
"438 -14 OFFCURVE",
"492 2 OFFCURVE",
"544 34 CURVE",
"526 58 OFFCURVE",
"490 91 OFFCURVE",
"446 91 CURVE SMOOTH",
"434 91 OFFCURVE",
"413 89 OFFCURVE",
"404 89 CURVE {name = hr02;}",
"277 89 OFFCURVE",
"222 226 OFFCURVE",
"239 364 CURVE",
"257 512 OFFCURVE",
"345 639 OFFCURVE",
"483 639 CURVE",
"621 639 OFFCURVE",
"677 512 OFFCURVE",
"659 364 CURVE SMOOTH",
"654 319 OFFCURVE",
"639 268 OFFCURVE",
"616 226 CURVE",
"607 200 LINE",
"597 221 LINE",
"527 303 LINE",
"441 226 LINE",
"657 -26 LINE {name = hr01;}",
"743 50 LINE",
"688 114 LINE",
"751 183 OFFCURVE",
"799 273 OFFCURVE",
"810 364 CURVE SMOOTH",
"837 584 OFFCURVE",
"721 742 OFFCURVE",
"496 742 CURVE",
"275 742 OFFCURVE",
"114 582 OFFCURVE",
"87 364 CURVE",
"60 143 OFFCURVE",
"177 -14 OFFCURVE",
"392 -14 CURVE"
);
}
);
width = 781;
}
);
unicode = 0051;
userData = {
com.typemytype.robofont.guides = (
{
angle = 0;
isGlobal = 0;
magnetic = 5;
x = 0;
y = 204;
}
);
};
},
{
glyphname = R;
layers = (
{
anchors = (
{
name = bottom;
position = "{324, 0}";
},
{
name = top;
position = "{315, 727}";
}
);
hints = (
{
horizontal = 1;
origin = "{0, 28}";
target = up;
type = BottomGhost;
},
{
horizontal = 1;
origin = "{0, 23}";
target = "{0, 31}";
type = Stem;
},
{
origin = "{0, 28}";
target = "{0, 27}";
type = Stem;
},
{
origin = "{0, 20}";
target = "{0, 35}";
type = Stem;
}
);
layerId = "BAA2CE79-BA31-4701-835E-3D9478C3F4B2";
paths = (
{
closed = 1;
nodes = (
"184 0 LINE",
"184 659 LINE",
"232 668 OFFCURVE",
"257 668 OFFCURVE",
"294 668 CURVE SMOOTH",
"384 668 OFFCURVE",
"457 606 OFFCURVE",
"457 527 CURVE SMOOTH",
"457 445 OFFCURVE",
"381 386 OFFCURVE",
"312 384 CURVE SMOOTH",
"270 383 OFFCURVE",
"239 357 OFFCURVE",
"224 323 CURVE",
"261 314 OFFCURVE",
"295 312 OFFCURVE",
"333 316 CURVE",
"438 276 OFFCURVE",
"433 115 OFFCURVE",
"486 0 CURVE",
"586 0 LINE",
"525 135 OFFCURVE",
"533 266 OFFCURVE",
"435 332 CURVE",
"415 340 LINE",
"439 348 LINE",
"508 383 OFFCURVE",
"558 445 OFFCURVE",
"558 526 CURVE SMOOTH {name = hr00;}",
"558 643 OFFCURVE",
"455 741 OFFCURVE",
"294 741 CURVE SMOOTH",
"221 741 OFFCURVE",
"164 733 OFFCURVE",
"89 718 CURVE",
"89 0 LINE"
);
}
);
width = 648;
},
{
anchors = (
{
name = bottom;
position = "{322, 0}";
},
{
name = top;
position = "{397, 727}";
}
);
hints = (
{
horizontal = 1;
origin = "{0, 28}";
target = up;
type = BottomGhost;
},
{
horizontal = 1;
origin = "{0, 23}";
target = "{0, 31}";
type = Stem;
}
);
layerId = "3BBF7C5C-CA4C-45AB-AE18-0528A0ACCA90";
paths = (
{
closed = 1;
nodes = (
"184 0 LINE",
"264 659 LINE",
"314 668 OFFCURVE",
"339 668 OFFCURVE",
"376 668 CURVE SMOOTH",
"466 668 OFFCURVE",
"531 606 OFFCURVE",
"521 527 CURVE SMOOTH",
"511 445 OFFCURVE",
"428 386 OFFCURVE",
"359 384 CURVE SMOOTH",
"317 383 OFFCURVE",
"282 357 OFFCURVE",
"263 323 CURVE",
"290 316 OFFCURVE",
"359 313 OFFCURVE",
"371 316 CURVE",
"471 276 OFFCURVE",
"447 115 OFFCURVE",
"486 0 CURVE",
"586 0 LINE",
"541 135 OFFCURVE",
"565 266 OFFCURVE",
"475 332 CURVE",
"456 340 LINE",
"481 348 LINE",
"555 383 OFFCURVE",
"612 445 OFFCURVE",
"622 526 CURVE SMOOTH {name = hr00;}",
"636 643 OFFCURVE",
"545 741 OFFCURVE",
"384 741 CURVE SMOOTH",
"311 741 OFFCURVE",
"254 733 OFFCURVE",
"177 718 CURVE",
"89 0 LINE"
);
}
);
width = 648;
},
{
anchors = (
{
name = bottom;
position = "{339, 0}";
},
{
name = top;
position = "{328, 727}";
}
);
hints = (
{
horizontal = 1;
origin = "{0, 28}";
target = up;
type = BottomGhost;
},
{
horizontal = 1;
origin = "{0, 24}";
target = "{0, 32}";
type = Stem;
},
{
origin = "{0, 28}";
target = "{0, 27}";
type = Stem;
},
{
origin = "{0, 22}";
target = "{0, 35}";
type = Stem;
}
);
layerId = "58254875-FB9E-4C1D-8B15-704836B9A7CF";
paths = (
{
closed = 1;
nodes = (
"227 0 LINE",
"227 632 LINE",
"263 636 OFFCURVE",
"275 638 OFFCURVE",
"311 638 CURVE SMOOTH",
"389 638 OFFCURVE",
"450 587 OFFCURVE",
"450 518 CURVE SMOOTH",
"450 453 OFFCURVE",
"405 405 OFFCURVE",
"350 400 CURVE SMOOTH",
"305 396 OFFCURVE",
"279 346 OFFCURVE",
"264 308 CURVE",
"298 298 OFFCURVE",
"330 297 OFFCURVE",
"358 299 CURVE",
"433 241 OFFCURVE",
"434 102 OFFCURVE",
"481 0 CURVE",
"628 0 LINE",
"569 128 OFFCURVE",
"573 252 OFFCURVE",
"492 321 CURVE",
"470 332 LINE",
"498 343 LINE",
"557 379 OFFCURVE",
"597 439 OFFCURVE",
"597 518 CURVE SMOOTH {name = hr00;}",
"597 659 OFFCURVE",
"468 741 OFFCURVE",
"311 741 CURVE SMOOTH",
"239 741 OFFCURVE",
"191 736 OFFCURVE",
"83 718 CURVE",
"83 0 LINE"
);
}
);
width = 684;
},
{
anchors = (
{
name = bottom;
position = "{344, 0}";
},
{
name = top;
position = "{418, 727}";
}
);
hints = (
{
horizontal = 1;
origin = "{0, 28}";
target = up;
type = BottomGhost;
},
{
horizontal = 1;
origin = "{0, 24}";
target = "{0, 32}";
type = Stem;
}
);
layerId = "5E1C92F4-866D-4CC0-BA00-538F5374015A";
paths = (
{
closed = 1;
nodes = (
"227 0 LINE",
"304 632 LINE",
"341 636 OFFCURVE",
"353 638 OFFCURVE",
"389 638 CURVE SMOOTH",
"467 638 OFFCURVE",
"522 587 OFFCURVE",
"513 518 CURVE SMOOTH",
"505 453 OFFCURVE",
"454 405 OFFCURVE",
"399 400 CURVE SMOOTH",
"353 396 OFFCURVE",
"321 346 OFFCURVE",
"301 308 CURVE",
"334 298 OFFCURVE",
"366 297 OFFCURVE",
"394 299 CURVE",
"462 241 OFFCURVE",
"446 102 OFFCURVE",
"481 0 CURVE",
"628 0 LINE",
"584 128 OFFCURVE",
"603 252 OFFCURVE",
"531 321 CURVE",
"510 332 LINE",
"540 343 LINE",
"603 379 OFFCURVE",
"650 439 OFFCURVE",
"660 518 CURVE SMOOTH {name = hr00;}",
"677 659 OFFCURVE",
"558 741 OFFCURVE",
"401 741 CURVE SMOOTH",
"329 741 OFFCURVE",
"281 736 OFFCURVE",
"171 718 CURVE",
"83 0 LINE"
);
}
);
width = 684;
}
);
unicode = 0052;
},
{
glyphname = S;
layers = (
{
anchors = (
{
name = bottom;
position = "{287, 0}";
},
{
name = top;
position = "{281, 727}";
}
);
hints = (
{
horizontal = 1;
origin = "{0, 8}";
target = "{0, 15}";
type = Stem;
},
{
horizontal = 1;
origin = "{0, 31}";
target = "{0, 24}";
type = Stem;
},
{
origin = "{0, 21}";
target = "{0, 2}";
type = Stem;
},
{
origin = "{0, 18}";
target = "{0, 5}";
type = Stem;
}
);
layerId = "BAA2CE79-BA31-4701-835E-3D9478C3F4B2";
paths = (
{
closed = 1;
nodes = (
"419 -12 OFFCURVE",
"504 82 OFFCURVE",
"504 181 CURVE SMOOTH",
"504 408 OFFCURVE",
"165 402 OFFCURVE",
"165 559 CURVE SMOOTH",
"165 617 OFFCURVE",
"206 667 OFFCURVE",
"281 667 CURVE {name = hr00;}",
"318 667 OFFCURVE",
"368 662 OFFCURVE",
"425 645 CURVE",
"452 710 LINE",
"384 731 OFFCURVE",
"328 740 OFFCURVE",
"271 740 CURVE",
"151 740 OFFCURVE",
"69 659 OFFCURVE",
"69 559 CURVE SMOOTH",
"69 333 OFFCURVE",
"405 354 OFFCURVE",
"405 183 CURVE SMOOTH",
"405 114 OFFCURVE",
"350 60 OFFCURVE",
"256 60 CURVE",
"210 60 OFFCURVE",
"145 71 OFFCURVE",
"85 98 CURVE",
"59 33 LINE",
"127 0 OFFCURVE",
"210 -12 OFFCURVE",
"267 -12 CURVE"
);
}
);
width = 554;
},
{
anchors = (
{
name = bottom;
position = "{262, 0}";
},
{
name = top;
position = "{360, 727}";
}
);
hints = (
{
horizontal = 1;
origin = "{0, 31}";
target = "{0, 24}";
type = Stem;
},
{
horizontal = 1;
origin = "{0, 8}";
target = "{0, 15}";
type = Stem;
}
);
layerId = "3BBF7C5C-CA4C-45AB-AE18-0528A0ACCA90";
paths = (
{
closed = 1;
nodes = (
"417 -12 OFFCURVE",
"514 82 OFFCURVE",
"526 181 CURVE SMOOTH",
"554 408 OFFCURVE",
"214 402 OFFCURVE",
"233 559 CURVE SMOOTH",
"240 617 OFFCURVE",
"287 667 OFFCURVE",
"362 667 CURVE {name = hr00;}",
"399 667 OFFCURVE",
"449 662 OFFCURVE",
"504 645 CURVE",
"539 710 LINE",
"473 731 OFFCURVE",
"418 740 OFFCURVE",
"361 740 CURVE",
"241 740 OFFCURVE",
"149 659 OFFCURVE",
"137 559 CURVE SMOOTH",
"109 333 OFFCURVE",
"448 354 OFFCURVE",
"427 183 CURVE SMOOTH",
"418 114 OFFCURVE",
"357 60 OFFCURVE",
"263 60 CURVE",
"217 60 OFFCURVE",
"153 71 OFFCURVE",
"97 98 CURVE",
"63 33 LINE",
"127 0 OFFCURVE",
"208 -12 OFFCURVE",
"265 -12 CURVE"
);
}
);
width = 554;
},
{
anchors = (
{
name = bottom;
position = "{289, 0}";
},
{
name = top;
position = "{286, 727}";
}
);
hints = (
{
horizontal = 1;
origin = "{0, 8}";
target = "{0, 15}";
type = Stem;
},
{
horizontal = 1;
origin = "{0, 31}";
target = "{0, 24}";
type = Stem;
},
{
origin = "{0, 21}";
target = "{0, 2}";
type = Stem;
},
{
origin = "{0, 18}";
target = "{0, 5}";
type = Stem;
}
);
layerId = "58254875-FB9E-4C1D-8B15-704836B9A7CF";
paths = (
{
closed = 1;
nodes = (
"428 -13 OFFCURVE",
"531 59 OFFCURVE",
"531 188 CURVE SMOOTH",
"531 420 OFFCURVE",
"190 426 OFFCURVE",
"190 562 CURVE SMOOTH",
"190 607 OFFCURVE",
"229 640 OFFCURVE",
"289 640 CURVE {name = hr00;}",
"333 640 OFFCURVE",
"380 633 OFFCURVE",
"439 616 CURVE",
"476 707 LINE",
"392 734 OFFCURVE",
"341 740 OFFCURVE",
"280 740 CURVE",
"161 740 OFFCURVE",
"60 681 OFFCURVE",
"60 550 CURVE SMOOTH",
"60 332 OFFCURVE",
"399 330 OFFCURVE",
"399 185 CURVE SMOOTH",
"399 133 OFFCURVE",
"347 90 OFFCURVE",
"276 90 CURVE",
"225 90 OFFCURVE",
"161 101 OFFCURVE",
"89 135 CURVE",
"51 42 LINE",
"142 0 OFFCURVE",
"219 -13 OFFCURVE",
"276 -13 CURVE"
);
}
);
width = 577;
},
{
anchors = (
{
name = bottom;
position = "{274, 0}";
},
{
name = top;
position = "{364, 727}";
}
);
hints = (
{
horizontal = 1;
origin = "{0, 31}";
target = "{0, 24}";
type = Stem;
},
{
horizontal = 1;
origin = "{0, 8}";
target = "{0, 15}";
type = Stem;
}
);
layerId = "5E1C92F4-866D-4CC0-BA00-538F5374015A";
paths = (
{
closed = 1;
nodes = (
"426 -13 OFFCURVE",
"538 59 OFFCURVE",
"554 188 CURVE SMOOTH",
"582 420 OFFCURVE",
"242 426 OFFCURVE",
"259 562 CURVE SMOOTH",
"264 607 OFFCURVE",
"307 640 OFFCURVE",
"367 640 CURVE {name = hr00;}",
"411 640 OFFCURVE",
"457 633 OFFCURVE",
"514 616 CURVE",
"562 707 LINE",
"482 734 OFFCURVE",
"431 740 OFFCURVE",
"370 740 CURVE",
"251 740 OFFCURVE",
"143 681 OFFCURVE",
"127 550 CURVE SMOOTH",
"100 332 OFFCURVE",
"439 330 OFFCURVE",
"421 185 CURVE SMOOTH",
"415 133 OFFCURVE",
"358 90 OFFCURVE",
"287 90 CURVE",
"236 90 OFFCURVE",
"173 101 OFFCURVE",
"105 135 CURVE",
"56 42 LINE",
"142 0 OFFCURVE",
"217 -13 OFFCURVE",
"274 -13 CURVE"
);
}
);
width = 577;
}
);
unicode = 0053;
},
{
glyphname = T;
layers = (
{
anchors = (
{
name = bottom;
position = "{272, 0}";
},
{
name = center;
position = "{272, 364}";
},
{
name = top;
position = "{272, 727}";
}
);
hints = (
{
horizontal = 1;
origin = "{0, 5}";
target = up;
type = BottomGhost;
},
{
horizontal = 1;
origin = "{0, 7}";
target = "{0, 0}";
type = Stem;
},
{
origin = "{0, 5}";
target = "{0, 4}";
type = Stem;
}
);
layerId = "BAA2CE79-BA31-4701-835E-3D9478C3F4B2";
paths = (
{
closed = 1;
nodes = (
"318 0 LINE",
"318 655 LINE",
"531 655 LINE",
"531 727 LINE",
"10 727 LINE",
"10 655 LINE {name = hr00;}",
"222 655 LINE",
"222 0 LINE"
);
}
);
width = 544;
},
{
anchors = (
{
name = bottom;
position = "{270, 0}";
},
{
name = center;
position = "{314, 364}";
},
{
name = top;
position = "{360, 727}";
}
);
hints = (
{
horizontal = 1;
origin = "{0, 5}";
target = up;
type = BottomGhost;
},
{
horizontal = 1;
origin = "{0, 7}";
target = "{0, 0}";
type = Stem;
}
);
layerId = "3BBF7C5C-CA4C-45AB-AE18-0528A0ACCA90";
paths = (
{
closed = 1;
nodes = (
"318 0 LINE",
"398 655 LINE",
"611 655 LINE",
"620 727 LINE",
"99 727 LINE",
"90 655 LINE {name = hr00;}",
"302 655 LINE",
"222 0 LINE"
);
}
);
width = 544;
},
{
anchors = (
{
name = bottom;
position = "{267, 0}";
},
{
name = center;
position = "{267, 364}";
},
{
name = top;
position = "{267, 727}";
}
);
hints = (
{
horizontal = 1;
origin = "{0, 5}";
target = up;
type = BottomGhost;
},
{
horizontal = 1;
origin = "{0, 7}";
target = "{0, 0}";
type = Stem;
},
{
origin = "{0, 5}";
target = "{0, 4}";
type = Stem;
}
);
layerId = "58254875-FB9E-4C1D-8B15-704836B9A7CF";
paths = (
{
closed = 1;
nodes = (
"337 0 LINE",
"337 624 LINE",
"527 624 LINE",
"527 727 LINE",
"5 727 LINE",
"5 624 LINE {name = hr00;}",
"195 624 LINE",
"195 0 LINE"
);
}
);
width = 534;
},
{
anchors = (
{
name = bottom;
position = "{266, 0}";
},
{
name = center;
position = "{310, 364}";
},
{
name = top;
position = "{355, 727}";
}
);
hints = (
{
horizontal = 1;
origin = "{0, 5}";
target = up;
type = BottomGhost;
},
{
horizontal = 1;
origin = "{0, 7}";
target = "{0, 0}";
type = Stem;
}
);
layerId = "5E1C92F4-866D-4CC0-BA00-538F5374015A";
paths = (
{
closed = 1;
nodes = (
"337 0 LINE",
"413 624 LINE",
"603 624 LINE",
"616 727 LINE",
"94 727 LINE",
"81 624 LINE {name = hr00;}",
"271 624 LINE",
"195 0 LINE"
);
}
);
width = 534;
}
);
unicode = 0054;
},
{
glyphname = U;
layers = (
{
anchors = (
{
name = bottom;
position = "{347, 0}";
},
{
name = ogonek;
position = "{625, 0}";
},
{
name = top;
position = "{347, 727}";
},
{
name = topright;
position = "{674, 727}";
}
);
hints = (
{
horizontal = 1;
origin = "{0, 17}";
target = "{0, 8}";
type = Stem;
},
{
horizontal = 1;
origin = "{0, 3}";
target = down;
type = TopGhost;
},
{
origin = "{0, 2}";
target = "{0, 5}";
type = Stem;
},
{
origin = "{0, 11}";
target = "{0, 14}";
type = Stem;
}
);
layerId = "BAA2CE79-BA31-4701-835E-3D9478C3F4B2";
paths = (
{
closed = 1;
nodes = (
"506 -14 OFFCURVE",
"616 99 OFFCURVE",
"616 268 CURVE SMOOTH",
"616 727 LINE",
"522 727 LINE",
"522 252 LINE SMOOTH",
"522 134 OFFCURVE",
"453 58 OFFCURVE",
"347 58 CURVE SMOOTH",
"241 58 OFFCURVE",
"172 134 OFFCURVE",
"172 252 CURVE SMOOTH",
"172 727 LINE",
"78 727 LINE",
"78 268 LINE SMOOTH",
"78 99 OFFCURVE",
"177 -14 OFFCURVE",
"347 -14 CURVE SMOOTH {name = hr00;}"
);
}
);
width = 694;
},
{
anchors = (
{
name = bottom;
position = "{347, 0}";
},
{
name = ogonek;
position = "{594, 0}";
},
{
name = top;
position = "{436, 727}";
},
{
name = topright;
position = "{732, 727}";
}
);
hints = (
{
horizontal = 1;
origin = "{0, 17}";
target = "{0, 8}";
type = Stem;
},
{
horizontal = 1;
origin = "{0, 3}";
target = down;
type = TopGhost;
}
);
layerId = "3BBF7C5C-CA4C-45AB-AE18-0528A0ACCA90";
paths = (
{
closed = 1;
nodes = (
"504 -14 OFFCURVE",
"628 99 OFFCURVE",
"648 268 CURVE SMOOTH",
"705 727 LINE",
"611 727 LINE",
"552 252 LINE SMOOTH",
"538 134 OFFCURVE",
"460 58 OFFCURVE",
"354 58 CURVE SMOOTH",
"248 58 OFFCURVE",
"188 134 OFFCURVE",
"202 252 CURVE SMOOTH",
"261 727 LINE",
"167 727 LINE",
"110 268 LINE SMOOTH",
"90 99 OFFCURVE",
"175 -14 OFFCURVE",
"345 -14 CURVE SMOOTH {name = hr00;}"
);
}
);
width = 694;
},
{
anchors = (
{
name = bottom;
position = "{374, 0}";
},
{
name = ogonek;
position = "{654, 0}";
},
{
name = top;
position = "{374, 727}";
},
{
name = topright;
position = "{707, 727}";
}
);
hints = (
{
horizontal = 1;
origin = "{0, 17}";
target = "{0, 8}";
type = Stem;
},
{
horizontal = 1;
origin = "{0, 3}";
target = down;
type = TopGhost;
},
{
origin = "{0, 2}";
target = "{0, 5}";
type = Stem;
},
{
origin = "{0, 11}";
target = "{0, 14}";
type = Stem;
}
);
layerId = "58254875-FB9E-4C1D-8B15-704836B9A7CF";
paths = (
{
closed = 1;
nodes = (
"553 -14 OFFCURVE",
"664 101 OFFCURVE",
"664 278 CURVE SMOOTH",
"664 727 LINE",
"524 727 LINE",
"524 263 LINE SMOOTH",
"524 154 OFFCURVE",
"459 89 OFFCURVE",
"374 89 CURVE SMOOTH",
"288 89 OFFCURVE",
"224 154 OFFCURVE",
"224 263 CURVE SMOOTH",
"224 727 LINE",
"83 727 LINE",
"83 278 LINE SMOOTH",
"83 89 OFFCURVE",
"195 -14 OFFCURVE",
"374 -14 CURVE SMOOTH {name = hr00;}"
);
}
);
width = 727;
},
{
anchors = (
{
name = bottom;
position = "{374, 0}";
},
{
name = ogonek;
position = "{623, 0}";
},
{
name = top;
position = "{463, 727}";
},
{
name = topright;
position = "{765, 727}";
}
);
hints = (
{
horizontal = 1;
origin = "{0, 17}";
target = "{0, 8}";
type = Stem;
},
{
horizontal = 1;
origin = "{0, 3}";
target = down;
type = TopGhost;
}
);
layerId = "5E1C92F4-866D-4CC0-BA00-538F5374015A";
paths = (
{
closed = 1;
nodes = (
"551 -14 OFFCURVE",
"676 101 OFFCURVE",
"698 278 CURVE SMOOTH",
"753 727 LINE",
"613 727 LINE",
"556 263 LINE SMOOTH",
"542 154 OFFCURVE",
"469 89 OFFCURVE",
"384 89 CURVE SMOOTH",
"298 89 OFFCURVE",
"242 154 OFFCURVE",
"256 263 CURVE SMOOTH",
"313 727 LINE",
"172 727 LINE",
"117 278 LINE SMOOTH",
"93 89 OFFCURVE",
"193 -14 OFFCURVE",
"372 -14 CURVE SMOOTH {name = hr00;}"
);
}
);
width = 727;
}
);
unicode = 0055;
},
{
glyphname = V;
layers = (
{
anchors = (
{
name = bottom;
position = "{315, 0}";
},
{
name = top;
position = "{315, 727}";
}
);
hints = (
{
horizontal = 1;
origin = "{0, 8}";
target = up;
type = BottomGhost;
},
{
horizontal = 1;
origin = "{0, 0}";
target = down;
type = TopGhost;
}
);
layerId = "BAA2CE79-BA31-4701-835E-3D9478C3F4B2";
paths = (
{
closed = 1;
nodes = (
"368 0 LINE",
"621 727 LINE",
"522 727 LINE",
"327 129 LINE",
"319 97 LINE",
"312 130 LINE",
"116 727 LINE",
"13 727 LINE",
"268 0 LINE {name = hr00;}"
);
}
);
width = 630;
},
{
anchors = (
{
name = bottom;
position = "{318, 0}";
},
{
name = top;
position = "{408, 727}";
}
);
hints = (
{
horizontal = 1;
origin = "{0, 8}";
target = up;
type = BottomGhost;
},
{
horizontal = 1;
origin = "{0, 0}";
target = down;
type = TopGhost;
}
);
layerId = "3BBF7C5C-CA4C-45AB-AE18-0528A0ACCA90";
paths = (
{
closed = 1;
nodes = (
"368 0 LINE",
"710 727 LINE",
"611 727 LINE",
"342 129 LINE",
"330 97 LINE",
"327 130 LINE",
"205 727 LINE",
"102 727 LINE",
"268 0 LINE {name = hr00;}"
);
}
);
width = 630;
},
{
anchors = (
{
name = bottom;
position = "{334, 0}";
},
{
name = top;
position = "{334, 727}";
}
);
hints = (
{
horizontal = 1;
origin = "{0, 8}";
target = up;
type = BottomGhost;
},
{
horizontal = 1;
origin = "{0, 0}";
target = down;
type = TopGhost;
}
);
layerId = "58254875-FB9E-4C1D-8B15-704836B9A7CF";
paths = (
{
closed = 1;
nodes = (
"410 0 LINE",
"663 727 LINE",
"516 727 LINE",
"345 174 LINE",
"338 137 LINE",
"331 175 LINE",
"160 727 LINE",
"8 727 LINE",
"263 0 LINE {name = hr00;}"
);
}
);
width = 667;
},
{
anchors = (
{
name = bottom;
position = "{337, 0}";
},
{
name = top;
position = "{427, 727}";
}
);
hints = (
{
horizontal = 1;
origin = "{0, 8}";
target = up;
type = BottomGhost;
},
{
horizontal = 1;
origin = "{0, 0}";
target = down;
type = TopGhost;
}
);
layerId = "5E1C92F4-866D-4CC0-BA00-538F5374015A";
paths = (
{
closed = 1;
nodes = (
"410 0 LINE",
"752 727 LINE",
"605 727 LINE",
"366 174 LINE",
"354 137 LINE",
"352 175 LINE",
"249 727 LINE",
"97 727 LINE",
"263 0 LINE {name = hr00;}"
);
}
);
width = 667;
}
);
unicode = 0056;
userData = {
com.typemytype.robofont.guides = (
{
angle = 0;
isGlobal = 0;
magnetic = 5;
x = 0;
y = 143;
}
);
};
},
{
glyphname = W;
layers = (
{
anchors = (
{
name = bottom;
position = "{489, 0}";
},
{
name = top;
position = "{490, 727}";
}
);
hints = (
{
horizontal = 1;
origin = "{0, 11}";
target = up;
type = BottomGhost;
},
{
horizontal = 1;
origin = "{0, 12}";
target = down;
type = TopGhost;
}
);
layerId = "BAA2CE79-BA31-4701-835E-3D9478C3F4B2";
paths = (
{
closed = 1;
nodes = (
"332 0 LINE",
"480 568 LINE",
"488 608 LINE",
"496 566 LINE",
"645 0 LINE",
"757 0 LINE",
"952 727 LINE",
"858 727 LINE",
"711 134 LINE",
"702 87 LINE",
"692 136 LINE",
"541 717 LINE {name = hr00;}",
"439 717 LINE",
"284 137 LINE",
"273 88 LINE",
"265 137 LINE",
"117 727 LINE",
"21 727 LINE",
"216 0 LINE"
);
}
);
width = 972;
},
{
anchors = (
{
name = bottom;
position = "{489, 0}";
},
{
name = top;
position = "{579, 727}";
}
);
hints = (
{
horizontal = 1;
origin = "{0, 11}";
target = up;
type = BottomGhost;
},
{
horizontal = 1;
origin = "{0, 12}";
target = down;
type = TopGhost;
}
);
layerId = "3BBF7C5C-CA4C-45AB-AE18-0528A0ACCA90";
paths = (
{
closed = 1;
nodes = (
"332 0 LINE",
"549 568 LINE",
"562 608 LINE",
"565 566 LINE",
"645 0 LINE",
"757 0 LINE",
"1041 727 LINE",
"947 727 LINE",
"727 134 LINE",
"712 87 LINE",
"708 136 LINE",
"629 717 LINE {name = hr00;}",
"527 717 LINE",
"300 137 LINE",
"283 88 LINE",
"281 137 LINE",
"206 727 LINE",
"110 727 LINE",
"216 0 LINE"
);
}
);
width = 972;
},
{
anchors = (
{
name = bottom;
position = "{532, 0}";
},
{
name = top;
position = "{533, 727}";
}
);
hints = (
{
horizontal = 1;
origin = "{0, 11}";
target = up;
type = BottomGhost;
},
{
horizontal = 1;
origin = "{0, 12}";
target = down;
type = TopGhost;
}
);
layerId = "58254875-FB9E-4C1D-8B15-704836B9A7CF";
paths = (
{
closed = 1;
nodes = (
"381 0 LINE",
"523 536 LINE",
"531 576 LINE",
"540 535 LINE",
"682 0 LINE",
"823 0 LINE",
"1028 727 LINE",
"892 727 LINE",
"757 192 LINE",
"749 138 LINE",
"739 194 LINE",
"611 717 LINE {name = hr00;}",
"454 717 LINE",
"324 193 LINE",
"313 138 LINE",
"305 193 LINE",
"170 727 LINE",
"31 727 LINE",
"237 0 LINE"
);
}
);
width = 1059;
},
{
anchors = (
{
name = bottom;
position = "{532, 0}";
},
{
name = top;
position = "{622, 727}";
}
);
hints = (
{
horizontal = 1;
origin = "{0, 11}";
target = up;
type = BottomGhost;
},
{
horizontal = 1;
origin = "{0, 12}";
target = down;
type = TopGhost;
}
);
layerId = "5E1C92F4-866D-4CC0-BA00-538F5374015A";
paths = (
{
closed = 1;
nodes = (
"381 0 LINE",
"588 536 LINE",
"601 576 LINE",
"605 535 LINE",
"682 0 LINE",
"823 0 LINE",
"1117 727 LINE",
"981 727 LINE",
"780 192 LINE",
"765 138 LINE",
"762 194 LINE",
"699 717 LINE {name = hr00;}",
"542 717 LINE",
"347 193 LINE",
"329 138 LINE",
"328 193 LINE",
"259 727 LINE",
"120 727 LINE",
"237 0 LINE"
);
}
);
width = 1059;
}
);
unicode = 0057;
userData = {
com.typemytype.robofont.guides = (
{
angle = 0;
isGlobal = 0;
magnetic = 5;
x = 0;
y = 152;
},
{
angle = 0;
isGlobal = 0;
magnetic = 5;
x = 0;
y = 522;
}
);
};
},
{
glyphname = X;
layers = (
{
anchors = (
{
name = bottom;
position = "{313, 0}";
},
{
name = top;
position = "{313, 727}";
}
);
hints = (
{
horizontal = 1;
origin = "{1, 0}";
target = up;
type = BottomGhost;
},
{
horizontal = 1;
origin = "{0, 9}";
target = down;
type = TopGhost;
}
);
layerId = "BAA2CE79-BA31-4701-835E-3D9478C3F4B2";
paths = (
{
closed = 1;
nodes = (
"590 0 LINE",
"365 377 LINE",
"577 727 LINE",
"471 727 LINE",
"322 462 LINE",
"314 437 LINE",
"305 462 LINE",
"158 727 LINE",
"47 727 LINE {name = hr00;}",
"482 0 LINE"
);
},
{
closed = 1;
nodes = (
"137 0 LINE",
"253 210 LINE",
"277 250 OFFCURVE",
"257 299 OFFCURVE",
"234 330 CURVE",
"34 0 LINE"
);
}
);
width = 626;
},
{
anchors = (
{
name = bottom;
position = "{310, 0}";
},
{
name = top;
position = "{404, 727}";
}
);
hints = (
{
horizontal = 1;
origin = "{1, 0}";
target = up;
type = BottomGhost;
},
{
horizontal = 1;
origin = "{0, 9}";
target = down;
type = TopGhost;
}
);
layerId = "3BBF7C5C-CA4C-45AB-AE18-0528A0ACCA90";
paths = (
{
closed = 1;
nodes = (
"590 0 LINE",
"411 377 LINE",
"666 727 LINE",
"560 727 LINE",
"378 462 LINE",
"367 437 LINE",
"361 462 LINE",
"247 727 LINE",
"136 727 LINE {name = hr00;}",
"482 0 LINE"
);
},
{
closed = 1;
nodes = (
"137 0 LINE",
"278 210 LINE",
"307 250 OFFCURVE",
"293 299 OFFCURVE",
"274 330 CURVE",
"34 0 LINE"
);
}
);
width = 626;
},
{
anchors = (
{
name = bottom;
position = "{331, 0}";
},
{
name = top;
position = "{331, 727}";
}
);
hints = (
{
horizontal = 1;
origin = "{1, 0}";
target = up;
type = BottomGhost;
},
{
horizontal = 1;
origin = "{0, 9}";
target = down;
type = TopGhost;
}
);
layerId = "58254875-FB9E-4C1D-8B15-704836B9A7CF";
paths = (
{
closed = 1;
nodes = (
"630 0 LINE",
"402 368 LINE",
"619 727 LINE",
"462 727 LINE",
"339 488 LINE",
"331 457 LINE",
"321 488 LINE",
"198 727 LINE",
"40 727 LINE {name = hr00;}",
"475 0 LINE"
);
},
{
closed = 1;
nodes = (
"182 0 LINE",
"263 145 LINE",
"297 207 OFFCURVE",
"252 291 OFFCURVE",
"227 325 CURVE",
"29 0 LINE"
);
}
);
width = 661;
},
{
anchors = (
{
name = bottom;
position = "{329, 0}";
},
{
name = top;
position = "{419, 727}";
}
);
hints = (
{
horizontal = 1;
origin = "{1, 0}";
target = up;
type = BottomGhost;
},
{
horizontal = 1;
origin = "{0, 9}";
target = down;
type = TopGhost;
}
);
layerId = "5E1C92F4-866D-4CC0-BA00-538F5374015A";
paths = (
{
closed = 1;
nodes = (
"630 0 LINE",
"447 368 LINE",
"708 727 LINE",
"551 727 LINE",
"398 488 LINE",
"387 457 LINE",
"380 488 LINE",
"287 727 LINE",
"129 727 LINE {name = hr00;}",
"475 0 LINE"
);
},
{
closed = 1;
nodes = (
"182 0 LINE",
"280 145 LINE",
"322 207 OFFCURVE",
"287 291 OFFCURVE",
"266 325 CURVE",
"29 0 LINE"
);
}
);
width = 661;
}
);
unicode = 0058;
userData = {
com.typemytype.robofont.guides = (
{
angle = 0;
isGlobal = 0;
magnetic = 5;
x = 0;
y = 457;
}
);
};
},
{
glyphname = Y;
layers = (
{
anchors = (
{
name = bottom;
position = "{324, 0}";
},
{
name = top;
position = "{322, 727}";
},
{
name = topleft;
position = "{20, 727}";
}
);
hints = (
{
horizontal = 1;
origin = "{0, 1}";
target = up;
type = BottomGhost;
},
{
horizontal = 1;
origin = "{0, 3}";
target = down;
type = TopGhost;
},
{
origin = "{0, 1}";
target = "{0, 0}";
type = Stem;
}
);
layerId = "BAA2CE79-BA31-4701-835E-3D9478C3F4B2";
paths = (
{
closed = 1;
nodes = (
"370 0 LINE",
"370 337 LINE {name = hr00;}",
"136 727 LINE",
"28 727 LINE",
"277 309 LINE",
"277 0 LINE"
);
},
{
closed = 1;
nodes = (
"612 727 LINE",
"507 727 LINE",
"381 502 LINE",
"354 455 OFFCURVE",
"374 407 OFFCURVE",
"398 376 CURVE"
);
}
);
width = 660;
},
{
anchors = (
{
name = bottom;
position = "{324, 0}";
},
{
name = top;
position = "{408, 727}";
},
{
name = topleft;
position = "{78, 727}";
}
);
hints = (
{
horizontal = 1;
origin = "{0, 1}";
target = up;
type = BottomGhost;
},
{
horizontal = 1;
origin = "{0, 3}";
target = down;
type = TopGhost;
}
);
layerId = "3BBF7C5C-CA4C-45AB-AE18-0528A0ACCA90";
paths = (
{
closed = 1;
nodes = (
"370 0 LINE",
"411 337 LINE {name = hr00;}",
"225 727 LINE",
"117 727 LINE",
"314 309 LINE",
"277 0 LINE"
);
},
{
closed = 1;
nodes = (
"701 727 LINE",
"596 727 LINE",
"442 502 LINE",
"409 455 OFFCURVE",
"423 407 OFFCURVE",
"444 376 CURVE"
);
}
);
width = 660;
},
{
anchors = (
{
name = bottom;
position = "{345, 0}";
},
{
name = top;
position = "{342, 727}";
},
{
name = topleft;
position = "{20, 727}";
}
);
hints = (
{
horizontal = 1;
origin = "{0, 1}";
target = up;
type = BottomGhost;
},
{
horizontal = 1;
origin = "{0, 3}";
target = down;
type = TopGhost;
},
{
origin = "{0, 1}";
target = "{0, 0}";
type = Stem;
}
);
layerId = "58254875-FB9E-4C1D-8B15-704836B9A7CF";
paths = (
{
closed = 1;
nodes = (
"414 0 LINE",
"414 339 LINE {name = hr00;}",
"181 727 LINE",
"25 727 LINE",
"276 322 LINE",
"276 0 LINE"
);
},
{
closed = 1;
nodes = (
"656 727 LINE",
"502 727 LINE",
"408 557 LINE",
"374 493 OFFCURVE",
"418 411 OFFCURVE",
"444 377 CURVE"
);
}
);
width = 699;
},
{
anchors = (
{
name = bottom;
position = "{345, 0}";
},
{
name = top;
position = "{429, 727}";
},
{
name = topleft;
position = "{78, 727}";
}
);
hints = (
{
horizontal = 1;
origin = "{0, 1}";
target = up;
type = BottomGhost;
},
{
horizontal = 1;
origin = "{0, 3}";
target = down;
type = TopGhost;
}
);
layerId = "5E1C92F4-866D-4CC0-BA00-538F5374015A";
paths = (
{
closed = 1;
nodes = (
"414 0 LINE",
"455 339 LINE {name = hr00;}",
"270 727 LINE",
"114 727 LINE",
"315 322 LINE",
"276 0 LINE"
);
},
{
closed = 1;
nodes = (
"745 727 LINE",
"591 727 LINE",
"476 557 LINE",
"434 493 OFFCURVE",
"468 411 OFFCURVE",
"490 377 CURVE"
);
}
);
width = 699;
}
);
unicode = 0059;
},
{
glyphname = Z;
layers = (
{
anchors = (
{
name = bottom;
position = "{347, 0}";
},
{
name = top;
position = "{363, 727}";
}
);
hints = (
{
horizontal = 1;
origin = "{0, 13}";
target = "{0, 2}";
type = Stem;
},
{
horizontal = 1;
origin = "{0, 8}";
target = "{0, 7}";
type = Stem;
}
);
layerId = "BAA2CE79-BA31-4701-835E-3D9478C3F4B2";
paths = (
{
closed = 1;
nodes = (
"608 0 LINE",
"608 72 LINE",
"218 72 LINE",
"196 69 LINE",
"211 84 LINE",
"598 689 LINE",
"598 727 LINE",
"129 727 LINE {name = hr00;}",
"129 655 LINE",
"463 655 LINE",
"487 658 LINE",
"471 641 LINE",
"85 38 LINE",
"85 0 LINE"
);
}
);
width = 598;
},
{
anchors = (
{
name = bottom;
position = "{347, 0}";
},
{
name = top;
position = "{449, 727}";
}
);
hints = (
{
horizontal = 1;
origin = "{0, 13}";
target = "{0, 2}";
type = Stem;
},
{
horizontal = 1;
origin = "{0, 8}";
target = "{0, 7}";
type = Stem;
}
);
layerId = "3BBF7C5C-CA4C-45AB-AE18-0528A0ACCA90";
paths = (
{
closed = 1;
nodes = (
"608 0 LINE",
"616 72 LINE",
"226 72 LINE",
"204 69 LINE",
"221 84 LINE",
"682 689 LINE",
"687 727 LINE",
"218 727 LINE {name = hr00;}",
"209 655 LINE",
"543 655 LINE",
"567 658 LINE",
"549 641 LINE",
"89 38 LINE",
"85 0 LINE"
);
}
);
width = 598;
},
{
anchors = (
{
name = bottom;
position = "{320, 0}";
},
{
name = top;
position = "{331, 727}";
}
);
hints = (
{
horizontal = 1;
origin = "{0, 13}";
target = "{0, 2}";
type = Stem;
},
{
horizontal = 1;
origin = "{0, 8}";
target = "{0, 7}";
type = Stem;
}
);
layerId = "58254875-FB9E-4C1D-8B15-704836B9A7CF";
paths = (
{
closed = 1;
nodes = (
"593 0 LINE",
"593 103 LINE",
"235 103 LINE",
"212 100 LINE",
"228 115 LINE",
"584 668 LINE",
"584 727 LINE",
"78 727 LINE {name = hr00;}",
"78 626 LINE",
"394 626 LINE",
"418 629 LINE",
"402 612 LINE",
"47 59 LINE",
"47 0 LINE"
);
}
);
width = 612;
},
{
anchors = (
{
name = bottom;
position = "{320, 0}";
},
{
name = top;
position = "{425, 727}";
}
);
hints = (
{
horizontal = 1;
origin = "{0, 13}";
target = "{0, 2}";
type = Stem;
},
{
horizontal = 1;
origin = "{0, 8}";
target = "{0, 7}";
type = Stem;
}
);
layerId = "5E1C92F4-866D-4CC0-BA00-538F5374015A";
paths = (
{
closed = 1;
nodes = (
"593 0 LINE",
"605 103 LINE",
"247 103 LINE",
"224 100 LINE",
"242 115 LINE",
"666 668 LINE",
"673 727 LINE",
"167 727 LINE {name = hr00;}",
"154 626 LINE",
"470 626 LINE",
"495 629 LINE",
"477 612 LINE",
"54 59 LINE",
"47 0 LINE"
);
}
);
width = 612;
}
);
unicode = 005A;
userData = {
com.typemytype.robofont.guides = (
{
angle = 0;
isGlobal = 0;
magnetic = 5;
x = 0;
y = 38;
},
{
angle = 0;
isGlobal = 0;
magnetic = 5;
x = 0;
y = 689;
},
{
angle = 90;
isGlobal = 0;
magnetic = 5;
x = 385;
y = 0;
}
);
};
},
{
glyphname = a;
layers = (
{
anchors = (
{
name = bottom;
position = "{267, 0}";
},
{
name = ogonek;
position = "{469, 0}";
},
{
name = top;
position = "{268, 517}";
}
);
hints = (
{
horizontal = 1;
origin = "{0, 3}";
target = up;
type = BottomGhost;
},
{
horizontal = 1;
origin = "{0, 33}";
target = "{0, 40}";
type = Stem;
},
{
origin = "{0, 14}";
target = "{0, 23}";
type = Stem;
},
{
origin = "{0, 29}";
target = "{0, 44}";
type = Stem;
}
);
layerId = "BAA2CE79-BA31-4701-835E-3D9478C3F4B2";
paths = (
{
closed = 1;
nodes = (
"262 -10 OFFCURVE",
"302 0 OFFCURVE",
"353 51 CURVE",
"364 69 LINE",
"365 51 LINE",
"373 30 OFFCURVE",
"382 11 OFFCURVE",
"401 0 CURVE {name = hr01;}",
"469 0 LINE",
"460 35 OFFCURVE",
"453 91 OFFCURVE",
"453 171 CURVE SMOOTH",
"453 314 LINE SMOOTH",
"453 449 OFFCURVE",
"379 527 OFFCURVE",
"251 527 CURVE SMOOTH",
"207 527 OFFCURVE",
"159 521 OFFCURVE",
"94 493 CURVE",
"117 431 LINE",
"165 448 OFFCURVE",
"197 455 OFFCURVE",
"233 455 CURVE SMOOTH",
"324 455 OFFCURVE",
"359 400 OFFCURVE",
"359 321 CURVE",
"359 134 LINE",
"320 83 OFFCURVE",
"272 62 OFFCURVE",
"227 62 CURVE SMOOTH",
"176 62 OFFCURVE",
"145 97 OFFCURVE",
"145 138 CURVE SMOOTH",
"145 175 OFFCURVE",
"163 211 OFFCURVE",
"251 225 CURVE SMOOTH",
"304 233 OFFCURVE",
"319 278 OFFCURVE",
"323 302 CURVE",
"118 278 OFFCURVE",
"46 233 OFFCURVE",
"46 132 CURVE SMOOTH",
"46 51 OFFCURVE",
"110 -10 OFFCURVE",
"214 -10 CURVE SMOOTH"
);
}
);
width = 527;
},
{
anchors = (
{
name = bottom;
position = "{267, 0}";
},
{
name = ogonek;
position = "{507, 5}";
},
{
name = top;
position = "{363, 517}";
}
);
hints = (
{
horizontal = 1;
origin = "{0, 3}";
target = up;
type = BottomGhost;
},
{
horizontal = 1;
origin = "{0, 10}";
target = "{0, 28}";
type = Stem;
}
);
layerId = "3BBF7C5C-CA4C-45AB-AE18-0528A0ACCA90";
paths = (
{
closed = 1;
nodes = (
"296 0 OFFCURVE",
"334 14 OFFCURVE",
"368 38 CURVE",
"346 67 OFFCURVE",
"319 75 OFFCURVE",
"290 71 CURVE SMOOTH",
"198 56 OFFCURVE",
"164 143 OFFCURVE",
"178 256 CURVE SMOOTH",
"194 384 OFFCURVE",
"269 455 OFFCURVE",
"369 455 CURVE SMOOTH",
"399 455 OFFCURVE",
"424 452 OFFCURVE",
"454 444 CURVE",
"411 97 LINE SMOOTH",
"405 45 OFFCURVE",
"420 12 OFFCURVE",
"439 0 CURVE",
"507 5 LINE",
"503 40 OFFCURVE",
"502 96 OFFCURVE",
"512 176 CURVE {name = hr00;}",
"551 495 LINE",
"485 518 OFFCURVE",
"434 527 OFFCURVE",
"378 527 CURVE SMOOTH",
"223 527 OFFCURVE",
"100 419 OFFCURVE",
"80 256 CURVE SMOOTH",
"60 93 OFFCURVE",
"147 -21 OFFCURVE",
"266 -5 CURVE SMOOTH"
);
}
);
width = 565;
},
{
anchors = (
{
name = bottom;
position = "{279, 0}";
},
{
name = ogonek;
position = "{501, 0}";
},
{
name = top;
position = "{281, 517}";
}
);
hints = (
{
horizontal = 1;
origin = "{0, 7}";
target = "{0, 22}";
type = Stem;
},
{
horizontal = 1;
origin = "{0, 29}";
target = "{0, 36}";
type = Stem;
},
{
origin = "{0, 10}";
target = "{0, 19}";
type = Stem;
},
{
origin = "{0, 25}";
target = "{0, 40}";
type = Stem;
},
{
horizontal = 1;
origin = "{0, 44}";
target = up;
type = BottomGhost;
}
);
layerId = "58254875-FB9E-4C1D-8B15-704836B9A7CF";
paths = (
{
closed = 1;
nodes = (
"246 -13 OFFCURVE",
"286 -2 OFFCURVE",
"346 53 CURVE",
"358 70 LINE",
"361 50 LINE",
"369 30 OFFCURVE",
"380 10 OFFCURVE",
"398 0 CURVE",
"501 0 LINE {name = hr02;}",
"489 47 OFFCURVE",
"485 89 OFFCURVE",
"485 126 CURVE SMOOTH",
"485 311 LINE SMOOTH",
"485 451 OFFCURVE",
"405 528 OFFCURVE",
"263 528 CURVE SMOOTH",
"216 528 OFFCURVE",
"148 517 OFFCURVE",
"89 490 CURVE",
"123 402 LINE",
"170 419 OFFCURVE",
"207 425 OFFCURVE",
"240 425 CURVE SMOOTH",
"310 425 OFFCURVE",
"350 380 OFFCURVE",
"350 311 CURVE SMOOTH",
"350 160 LINE",
"315 119 OFFCURVE",
"275 90 OFFCURVE",
"237 90 CURVE SMOOTH",
"202 90 OFFCURVE",
"174 116 OFFCURVE",
"174 151 CURVE SMOOTH",
"174 184 OFFCURVE",
"196 212 OFFCURVE",
"246 220 CURVE SMOOTH",
"288 228 OFFCURVE",
"307 266 OFFCURVE",
"314 313 CURVE",
"103 297 OFFCURVE",
"40 221 OFFCURVE",
"40 138 CURVE SMOOTH",
"40 59 OFFCURVE",
"99 -13 OFFCURVE",
"195 -13 CURVE SMOOTH {name = hr01;}"
);
}
);
width = 542;
},
{
anchors = (
{
name = bottom;
position = "{285, 0}";
},
{
name = ogonek;
position = "{550, 0}";
},
{
name = top;
position = "{385, 517}";
}
);
hints = (
{
horizontal = 1;
origin = "{0, 22}";
target = "{0, 16}";
type = Stem;
},
{
horizontal = 1;
origin = "{0, 10}";
target = "{0, 28}";
type = Stem;
}
);
layerId = "5E1C92F4-866D-4CC0-BA00-538F5374015A";
paths = (
{
closed = 1;
nodes = (
"283 -7 OFFCURVE",
"326 10 OFFCURVE",
"366 32 CURVE",
"345 69 OFFCURVE",
"328 100 OFFCURVE",
"289 97 CURVE SMOOTH {name = hr01;}",
"221 92 OFFCURVE",
"216 176 OFFCURVE",
"224 240 CURVE SMOOTH",
"237 350 OFFCURVE",
"295 426 OFFCURVE",
"386 426 CURVE SMOOTH",
"400 426 OFFCURVE",
"424 424 OFFCURVE",
"450 418 CURVE",
"412 105 LINE SMOOTH",
"406 56 OFFCURVE",
"427 9 OFFCURVE",
"443 0 CURVE",
"550 0 LINE",
"544 47 OFFCURVE",
"545 89 OFFCURVE",
"550 126 CURVE",
"596 499 LINE",
"499 524 OFFCURVE",
"449 529 OFFCURVE",
"393 529 CURVE SMOOTH",
"214 529 OFFCURVE",
"94 399 OFFCURVE",
"75 240 CURVE SMOOTH",
"60 121 OFFCURVE",
"122 -16 OFFCURVE",
"249 -9 CURVE SMOOTH"
);
}
);
width = 613;
},
{
anchors = (
{
name = bottom;
position = "{293, 0}";
},
{
name = ogonek;
position = "{502, 5}";
},
{
name = top;
position = "{290, 517}";
}
);
associatedMasterId = "BAA2CE79-BA31-4701-835E-3D9478C3F4B2";
hints = (
{
horizontal = 1;
place = "{69, 21}";
target = up;
type = BottomGhost;
},
{
horizontal = 1;
place = "{175, 58}";
type = Stem;
},
{
place = "{412, 64}";
type = Stem;
},
{
place = "{203, 22}";
type = Stem;
}
);
layerId = "D6F52D5C-CC45-4C78-BFA6-49A819939AB8";
name = "testin [0, 0.5]";
paths = (
{
closed = 1;
nodes = (
"292 -1 OFFCURVE",
"328 14 OFFCURVE",
"359 38 CURVE",
"334 67 OFFCURVE",
"306 75 OFFCURVE",
"277 71 CURVE SMOOTH",
"187 59 OFFCURVE",
"142 143 OFFCURVE",
"143 256 CURVE SMOOTH",
"144 384 OFFCURVE",
"209 455 OFFCURVE",
"309 455 CURVE SMOOTH",
"339 455 OFFCURVE",
"364 452 OFFCURVE",
"395 444 CURVE",
"395 97 LINE SMOOTH",
"395 45 OFFCURVE",
"414 12 OFFCURVE",
"435 0 CURVE",
"502 5 LINE",
"494 40 OFFCURVE",
"486 96 OFFCURVE",
"486 176 CURVE {name = hr00;}",
"486 495 LINE",
"417 518 OFFCURVE",
"365 527 OFFCURVE",
"309 527 CURVE SMOOTH",
"154 527 OFFCURVE",
"45 419 OFFCURVE",
"45 256 CURVE SMOOTH",
"45 93 OFFCURVE",
"146 -21 OFFCURVE",
"263 -5 CURVE SMOOTH"
);
}
);
width = 562;
},
{
anchors = (
{
name = bottom;
position = "{248, 0}";
},
{
name = ogonek;
position = "{473, 0}";
},
{
name = top;
position = "{341, 517}";
}
);
associatedMasterId = "3BBF7C5C-CA4C-45AB-AE18-0528A0ACCA90";
hints = (
{
horizontal = 1;
place = "{67, 21}";
target = up;
type = BottomGhost;
},
{
horizontal = 1;
place = "{455, 36}";
type = Stem;
}
);
layerId = "9068953E-976B-4E6F-9B1A-0B703C34EC0C";
name = "testing]1000, 0.5]";
paths = (
{
closed = 1;
nodes = (
"265 -10 OFFCURVE",
"306 0 OFFCURVE",
"364 51 CURVE",
"377 69 LINE",
"376 51 LINE",
"381 30 OFFCURVE",
"388 11 OFFCURVE",
"405 0 CURVE {name = hr01;}",
"473 0 LINE",
"469 35 OFFCURVE",
"468 91 OFFCURVE",
"478 171 CURVE",
"496 314 LINE",
"512 449 OFFCURVE",
"448 527 OFFCURVE",
"320 527 CURVE SMOOTH",
"276 527 OFFCURVE",
"227 521 OFFCURVE",
"159 493 CURVE",
"174 431 LINE",
"224 448 OFFCURVE",
"257 455 OFFCURVE",
"293 455 CURVE SMOOTH",
"384 455 OFFCURVE",
"412 400 OFFCURVE",
"403 321 CURVE",
"380 134 LINE",
"334 83 OFFCURVE",
"284 62 OFFCURVE",
"239 62 CURVE SMOOTH",
"188 62 OFFCURVE",
"161 97 OFFCURVE",
"166 138 CURVE SMOOTH",
"171 175 OFFCURVE",
"193 211 OFFCURVE",
"283 225 CURVE SMOOTH",
"337 233 OFFCURVE",
"357 278 OFFCURVE",
"364 302 CURVE",
"156 278 OFFCURVE",
"79 233 OFFCURVE",
"66 132 CURVE SMOOTH",
"57 51 OFFCURVE",
"113 -10 OFFCURVE",
"217 -10 CURVE SMOOTH"
);
}
);
width = 527;
},
{
anchors = (
{
name = bottom;
position = "{308, 0}";
},
{
name = ogonek;
position = "{541, 0}";
},
{
name = top;
position = "{309, 517}";
}
);
associatedMasterId = "58254875-FB9E-4C1D-8B15-704836B9A7CF";
hints = (
{
horizontal = 1;
origin = "{0, 18}";
target = "{0, 11}";
type = Stem;
},
{
horizontal = 1;
origin = "{0, 5}";
target = "{0, 8}";
type = Stem;
},
{
origin = "{0, 19}";
target = "{0, 8}";
type = Stem;
},
{
origin = "{0, 14}";
target = "{0, 29}";
type = Stem;
},
{
horizontal = 1;
origin = "{0, 32}";
target = up;
type = BottomGhost;
}
);
layerId = "07B8616B-02FD-4E43-B632-E984E006E8F0";
name = "[0, 0.5]";
paths = (
{
closed = 1;
nodes = (
"275 -7 OFFCURVE",
"316 10 OFFCURVE",
"353 32 CURVE",
"327 69 OFFCURVE",
"307 100 OFFCURVE",
"268 97 CURVE SMOOTH {name = hr01;}",
"201 92 OFFCURVE",
"185 176 OFFCURVE",
"185 240 CURVE SMOOTH",
"185 350 OFFCURVE",
"234 426 OFFCURVE",
"325 426 CURVE SMOOTH",
"339 426 OFFCURVE",
"363 424 OFFCURVE",
"390 418 CURVE",
"390 105 LINE SMOOTH",
"390 56 OFFCURVE",
"417 9 OFFCURVE",
"434 0 CURVE",
"541 0 LINE",
"529 47 OFFCURVE",
"525 89 OFFCURVE",
"525 126 CURVE",
"525 499 LINE",
"425 524 OFFCURVE",
"375 529 OFFCURVE",
"319 529 CURVE SMOOTH",
"140 529 OFFCURVE",
"36 399 OFFCURVE",
"36 240 CURVE SMOOTH",
"36 121 OFFCURVE",
"115 -16 OFFCURVE",
"241 -9 CURVE SMOOTH"
);
}
);
width = 598;
},
{
anchors = (
{
name = bottom;
position = "{261, 0}";
},
{
name = ogonek;
position = "{499, 0}";
},
{
name = top;
position = "{343, 517}";
}
);
associatedMasterId = "5E1C92F4-866D-4CC0-BA00-538F5374015A";
hints = (
{
horizontal = 1;
place = "{126, 70}";
type = Stem;
},
{
horizontal = 1;
place = "{426, 27}";
type = Stem;
}
);
layerId = "73B746DC-75B8-440C-98A0-1BEA21CD6140";
name = "]1000, 0.5]";
paths = (
{
closed = 1;
nodes = (
"243 -13 OFFCURVE",
"284 -2 OFFCURVE",
"351 53 CURVE",
"365 70 LINE",
"366 50 LINE",
"371 30 OFFCURVE",
"380 10 OFFCURVE",
"396 0 CURVE",
"499 0 LINE {name = hr02;}",
"493 47 OFFCURVE",
"494 89 OFFCURVE",
"499 126 CURVE SMOOTH",
"522 311 LINE SMOOTH",
"539 451 OFFCURVE",
"468 528 OFFCURVE",
"326 528 CURVE SMOOTH",
"279 528 OFFCURVE",
"210 517 OFFCURVE",
"148 490 CURVE",
"171 402 LINE",
"220 419 OFFCURVE",
"258 425 OFFCURVE",
"291 425 CURVE SMOOTH",
"361 425 OFFCURVE",
"396 380 OFFCURVE",
"387 311 CURVE SMOOTH",
"368 160 LINE",
"328 119 OFFCURVE",
"284 90 OFFCURVE",
"246 90 CURVE SMOOTH",
"211 90 OFFCURVE",
"187 116 OFFCURVE",
"191 151 CURVE SMOOTH",
"195 184 OFFCURVE",
"220 212 OFFCURVE",
"271 220 CURVE SMOOTH",
"314 227 OFFCURVE",
"338 266 OFFCURVE",
"351 313 CURVE",
"138 297 OFFCURVE",
"66 221 OFFCURVE",
"55 138 CURVE SMOOTH",
"45 59 OFFCURVE",
"96 -13 OFFCURVE",
"192 -13 CURVE SMOOTH {name = hr01;}"
);
}
);
width = 556;
}
);
unicode = 0061;
},
{
glyphname = aacute;
layers = (
{
components = (
{
name = a;
},
{
name = acutecomb;
transform = "{1, 0, 0, 1, 182, 0}";
}
);
hints = (
{
horizontal = 1;
place = "{740, 21}";
target = up;
type = BottomGhost;
},
{
horizontal = 1;
place = "{740, 0}";
type = Stem;
},
{
horizontal = 1;
place = "{69, -20}";
target = down;
type = TopGhost;
},
{
place = "{316, 98}";
type = Stem;
},
{
place = "{218, 98}";
type = Stem;
}
);
layerId = "BAA2CE79-BA31-4701-835E-3D9478C3F4B2";
width = 527;
},
{
background = {
paths = (
{
closed = 1;
nodes = (
"296 0 OFFCURVE",
"334 14 OFFCURVE",
"368 38 CURVE",
"346 67 OFFCURVE",
"319 75 OFFCURVE",
"290 71 CURVE SMOOTH",
"198 56 OFFCURVE",
"164 143 OFFCURVE",
"178 256 CURVE SMOOTH",
"194 384 OFFCURVE",
"269 455 OFFCURVE",
"369 455 CURVE SMOOTH",
"399 455 OFFCURVE",
"424 452 OFFCURVE",
"454 444 CURVE",
"409 82 LINE",
"403 44 OFFCURVE",
"420 12 OFFCURVE",
"439 0 CURVE {name = hr01;}",
"507 5 LINE",
"503 40 OFFCURVE",
"502 96 OFFCURVE",
"512 176 CURVE",
"551 495 LINE",
"485 518 OFFCURVE",
"434 527 OFFCURVE",
"378 527 CURVE SMOOTH",
"223 527 OFFCURVE",
"100 419 OFFCURVE",
"80 256 CURVE SMOOTH",
"60 93 OFFCURVE",
"147 -21 OFFCURVE",
"266 -5 CURVE SMOOTH"
);
},
{
closed = 1;
nodes = (
"359 593 OFFCURVE",
"397 599 OFFCURVE",
"428 631 CURVE",
"529 740 LINE",
"432 740 LINE",
"326 602 LINE"
);
}
);
};
components = (
{
name = a;
},
{
name = acutecomb;
transform = "{1, 0, 0, 1, 245, 0}";
}
);
hints = (
{
horizontal = 1;
place = "{67, 21}";
target = up;
type = BottomGhost;
},
{
horizontal = 1;
place = "{455, 36}";
type = Stem;
}
);
layerId = "3BBF7C5C-CA4C-45AB-AE18-0528A0ACCA90";
width = 565;
},
{
components = (
{
name = a;
},
{
name = acutecomb;
transform = "{1, 0, 0, 1, 178, 0}";
}
);
hints = (
{
horizontal = 1;
place = "{602, 43}";
type = Stem;
},
{
horizontal = 1;
place = "{740, 0}";
type = Stem;
},
{
horizontal = 1;
place = "{39, -20}";
target = down;
type = TopGhost;
},
{
place = "{347, 146}";
type = Stem;
},
{
place = "{201, 146}";
type = Stem;
},
{
horizontal = 1;
place = "{593, 21}";
target = up;
type = BottomGhost;
}
);
layerId = "58254875-FB9E-4C1D-8B15-704836B9A7CF";
width = 542;
},
{
components = (
{
name = a;
},
{
name = acutecomb;
transform = "{1, 0, 0, 1, 250, 0}";
}
);
hints = (
{
horizontal = 1;
place = "{126, 70}";
type = Stem;
},
{
horizontal = 1;
place = "{426, 27}";
type = Stem;
}
);
layerId = "5E1C92F4-866D-4CC0-BA00-538F5374015A";
width = 613;
}
);
unicode = 00E1;
},
{
glyphname = ae;
layers = (
{
anchors = (
{
name = bottom;
position = "{415, 0}";
},
{
name = top;
position = "{424, 517}";
}
);
hints = (
{
horizontal = 1;
origin = "{0, 21}";
target = "{0, 36}";
type = Stem;
},
{
horizontal = 1;
origin = "{0, 60}";
target = "{0, 63}";
type = Stem;
},
{
horizontal = 1;
origin = "{0, 43}";
target = "{0, 50}";
type = Stem;
},
{
origin = "{0, 24}";
target = "{0, 33}";
type = Stem;
},
{
origin = "{0, 39}";
target = "{0, 5}";
type = Stem;
}
);
layerId = "BAA2CE79-BA31-4701-835E-3D9478C3F4B2";
paths = (
{
closed = 1;
nodes = (
"307 -10 OFFCURVE",
"382 45 OFFCURVE",
"409 131 CURVE",
"436 52 OFFCURVE",
"518 -10 OFFCURVE",
"601 -10 CURVE SMOOTH",
"649 -10 OFFCURVE",
"711 -1 OFFCURVE",
"775 32 CURVE",
"750 98 LINE",
"693 69 OFFCURVE",
"657 62 OFFCURVE",
"611 62 CURVE SMOOTH",
"520 62 OFFCURVE",
"452 143 OFFCURVE",
"452 262 CURVE SMOOTH",
"452 385 OFFCURVE",
"510 455 OFFCURVE",
"594 455 CURVE SMOOTH",
"659 455 OFFCURVE",
"709 394 OFFCURVE",
"700 317 CURVE {name = hr00;}",
"573 317 LINE",
"525 317 OFFCURVE",
"502 288 OFFCURVE",
"488 250 CURVE",
"778 250 LINE",
"822 393 OFFCURVE",
"741 527 OFFCURVE",
"604 527 CURVE SMOOTH",
"524 527 OFFCURVE",
"449 481 OFFCURVE",
"416 419 CURVE",
"389 482 OFFCURVE",
"328 527 OFFCURVE",
"251 527 CURVE SMOOTH",
"207 527 OFFCURVE",
"159 521 OFFCURVE",
"94 493 CURVE",
"117 431 LINE",
"165 448 OFFCURVE",
"197 455 OFFCURVE",
"233 455 CURVE SMOOTH",
"324 455 OFFCURVE",
"359 400 OFFCURVE",
"359 321 CURVE SMOOTH",
"359 262 LINE",
"359 134 OFFCURVE",
"311 62 OFFCURVE",
"227 62 CURVE SMOOTH",
"176 62 OFFCURVE",
"145 97 OFFCURVE",
"145 138 CURVE SMOOTH",
"145 175 OFFCURVE",
"163 211 OFFCURVE",
"251 225 CURVE SMOOTH",
"304 233 OFFCURVE",
"319 278 OFFCURVE",
"323 302 CURVE",
"118 278 OFFCURVE",
"46 233 OFFCURVE",
"46 132 CURVE SMOOTH",
"46 51 OFFCURVE",
"110 -10 OFFCURVE",
"214 -10 CURVE SMOOTH"
);
}
);
width = 850;
},
{
anchors = (
{
name = bottom;
position = "{419, 0}";
},
{
name = top;
position = "{487, 517}";
}
);
hints = (
{
horizontal = 1;
origin = "{0, 21}";
target = "{0, 36}";
type = Stem;
},
{
horizontal = 1;
origin = "{0, 60}";
target = "{0, 63}";
type = Stem;
},
{
horizontal = 1;
origin = "{0, 43}";
target = "{0, 50}";
type = Stem;
}
);
layerId = "3BBF7C5C-CA4C-45AB-AE18-0528A0ACCA90";
paths = (
{
closed = 1;
nodes = (
"305 -10 OFFCURVE",
"387 45 OFFCURVE",
"425 131 CURVE",
"442 52 OFFCURVE",
"516 -10 OFFCURVE",
"599 -10 CURVE SMOOTH",
"647 -10 OFFCURVE",
"710 -1 OFFCURVE",
"778 32 CURVE",
"762 98 LINE",
"701 69 OFFCURVE",
"664 62 OFFCURVE",
"618 62 CURVE SMOOTH",
"527 62 OFFCURVE",
"469 143 OFFCURVE",
"484 262 CURVE SMOOTH",
"499 385 OFFCURVE",
"565 455 OFFCURVE",
"649 455 CURVE SMOOTH",
"714 455 OFFCURVE",
"757 394 OFFCURVE",
"738 317 CURVE {name = hr00;}",
"611 317 LINE",
"563 317 OFFCURVE",
"537 288 OFFCURVE",
"518 250 CURVE",
"808 250 LINE",
"870 393 OFFCURVE",
"805 527 OFFCURVE",
"668 527 CURVE SMOOTH",
"588 527 OFFCURVE",
"508 481 OFFCURVE",
"467 419 CURVE",
"448 482 OFFCURVE",
"392 527 OFFCURVE",
"315 527 CURVE SMOOTH",
"271 527 OFFCURVE",
"222 521 OFFCURVE",
"154 493 CURVE",
"169 431 LINE",
"220 448 OFFCURVE",
"252 455 OFFCURVE",
"288 455 CURVE SMOOTH",
"379 455 OFFCURVE",
"408 400 OFFCURVE",
"398 321 CURVE SMOOTH",
"391 262 LINE",
"375 134 OFFCURVE",
"318 62 OFFCURVE",
"234 62 CURVE SMOOTH",
"183 62 OFFCURVE",
"156 97 OFFCURVE",
"161 138 CURVE SMOOTH",
"166 175 OFFCURVE",
"188 211 OFFCURVE",
"278 225 CURVE SMOOTH",
"332 233 OFFCURVE",
"353 278 OFFCURVE",
"360 302 CURVE",
"152 278 OFFCURVE",
"74 233 OFFCURVE",
"62 132 CURVE SMOOTH",
"52 51 OFFCURVE",
"108 -10 OFFCURVE",
"212 -10 CURVE SMOOTH"
);
}
);
width = 850;
},
{
anchors = (
{
name = bottom;
position = "{410, 0}";
},
{
name = top;
position = "{425, 517}";
}
);
hints = (
{
horizontal = 1;
origin = "{0, 21}";
target = "{0, 36}";
type = Stem;
},
{
horizontal = 1;
origin = "{0, 60}";
target = "{0, 27}";
type = Stem;
},
{
horizontal = 1;
origin = "{0, 50}";
target = down;
type = TopGhost;
},
{
origin = "{0, 24}";
target = "{0, 33}";
type = Stem;
},
{
origin = "{0, 39}";
target = "{0, 5}";
type = Stem;
},
{
horizontal = 1;
origin = "{0, 43}";
target = "{0, 56}";
type = Stem;
}
);
layerId = "58254875-FB9E-4C1D-8B15-704836B9A7CF";
paths = (
{
closed = 1;
nodes = (
"274 -13 OFFCURVE",
"365 26 OFFCURVE",
"407 121 CURVE",
"429 57 OFFCURVE",
"507 -13 OFFCURVE",
"601 -13 CURVE SMOOTH",
"663 -13 OFFCURVE",
"725 0 OFFCURVE",
"797 34 CURVE",
"762 127 LINE",
"704 101 OFFCURVE",
"662 90 OFFCURVE",
"616 90 CURVE SMOOTH",
"532 90 OFFCURVE",
"475 157 OFFCURVE",
"475 272 CURVE SMOOTH",
"475 386 OFFCURVE",
"537 433 OFFCURVE",
"592 433 CURVE SMOOTH",
"653 433 OFFCURVE",
"688 378 OFFCURVE",
"680 317 CURVE",
"591 317 LINE",
"557 317 OFFCURVE",
"527 281 OFFCURVE",
"513 235 CURVE",
"793 235 LINE",
"852 407 OFFCURVE",
"747 530 OFFCURVE",
"599 530 CURVE SMOOTH {name = hr02;}",
"530 530 OFFCURVE",
"455 487 OFFCURVE",
"417 420 CURVE",
"379 491 OFFCURVE",
"313 528 OFFCURVE",
"250 528 CURVE SMOOTH {name = hr01;}",
"203 528 OFFCURVE",
"135 517 OFFCURVE",
"76 490 CURVE",
"110 402 LINE",
"157 419 OFFCURVE",
"194 425 OFFCURVE",
"227 425 CURVE SMOOTH",
"297 425 OFFCURVE",
"337 380 OFFCURVE",
"337 311 CURVE SMOOTH",
"337 265 LINE",
"337 162 OFFCURVE",
"294 90 OFFCURVE",
"224 90 CURVE SMOOTH",
"189 90 OFFCURVE",
"161 116 OFFCURVE",
"161 151 CURVE SMOOTH",
"161 184 OFFCURVE",
"183 212 OFFCURVE",
"233 220 CURVE",
"275 228 OFFCURVE",
"294 266 OFFCURVE",
"301 313 CURVE",
"90 297 OFFCURVE",
"27 221 OFFCURVE",
"27 138 CURVE SMOOTH",
"27 44 OFFCURVE",
"100 -13 OFFCURVE",
"207 -13 CURVE SMOOTH"
);
}
);
width = 850;
},
{
anchors = (
{
name = bottom;
position = "{405, 0}";
},
{
name = top;
position = "{478, 517}";
}
);
hints = (
{
horizontal = 1;
origin = "{0, 21}";
target = "{0, 36}";
type = Stem;
},
{
horizontal = 1;
origin = "{0, 60}";
target = "{0, 27}";
type = Stem;
},
{
horizontal = 1;
origin = "{0, 50}";
target = down;
type = TopGhost;
},
{
horizontal = 1;
origin = "{0, 43}";
target = "{0, 56}";
type = Stem;
}
);
layerId = "5E1C92F4-866D-4CC0-BA00-538F5374015A";
paths = (
{
closed = 1;
nodes = (
"272 -13 OFFCURVE",
"368 26 OFFCURVE",
"421 121 CURVE",
"435 57 OFFCURVE",
"505 -13 OFFCURVE",
"599 -13 CURVE SMOOTH",
"661 -13 OFFCURVE",
"725 0 OFFCURVE",
"801 34 CURVE",
"777 127 LINE",
"716 101 OFFCURVE",
"673 90 OFFCURVE",
"627 90 CURVE SMOOTH",
"543 90 OFFCURVE",
"494 157 OFFCURVE",
"508 272 CURVE SMOOTH",
"522 386 OFFCURVE",
"590 433 OFFCURVE",
"645 433 CURVE SMOOTH",
"706 433 OFFCURVE",
"734 378 OFFCURVE",
"718 317 CURVE",
"629 317 LINE SMOOTH",
"595 317 OFFCURVE",
"561 281 OFFCURVE",
"541 235 CURVE",
"821 235 LINE",
"901 407 OFFCURVE",
"812 530 OFFCURVE",
"664 530 CURVE SMOOTH {name = hr02;}",
"595 530 OFFCURVE",
"514 487 OFFCURVE",
"468 420 CURVE",
"439 491 OFFCURVE",
"377 528 OFFCURVE",
"314 528 CURVE SMOOTH {name = hr01;}",
"267 528 OFFCURVE",
"198 517 OFFCURVE",
"136 490 CURVE",
"159 402 LINE",
"208 419 OFFCURVE",
"246 425 OFFCURVE",
"279 425 CURVE SMOOTH",
"349 425 OFFCURVE",
"383 380 OFFCURVE",
"375 311 CURVE SMOOTH",
"369 265 LINE SMOOTH",
"356 162 OFFCURVE",
"305 90 OFFCURVE",
"235 90 CURVE SMOOTH",
"200 90 OFFCURVE",
"175 116 OFFCURVE",
"179 151 CURVE SMOOTH",
"183 184 OFFCURVE",
"209 212 OFFCURVE",
"260 220 CURVE",
"302 228 OFFCURVE",
"326 266 OFFCURVE",
"339 313 CURVE",
"126 297 OFFCURVE",
"54 221 OFFCURVE",
"43 138 CURVE",
"32 44 OFFCURVE",
"98 -13 OFFCURVE",
"205 -13 CURVE SMOOTH"
);
}
);
width = 850;
}
);
unicode = 00E6;
},
{
glyphname = b;
layers = (
{
anchors = (
{
name = bottom;
position = "{290, 0}";
},
{
name = top;
position = "{130, 758}";
}
);
hints = (
{
horizontal = 1;
origin = "{0, 8}";
target = "{0, 17}";
type = Stem;
},
{
horizontal = 1;
origin = "{0, 23}";
target = "{0, 2}";
type = Stem;
},
{
horizontal = 1;
origin = "{0, 12}";
target = down;
type = TopGhost;
},
{
origin = "{0, 11}";
target = "{0, 14}";
type = Stem;
},
{
origin = "{0, 20}";
target = "{0, 5}";
type = Stem;
}
);
layerId = "BAA2CE79-BA31-4701-835E-3D9478C3F4B2";
paths = (
{
closed = 1;
nodes = (
"427 -10 OFFCURVE",
"529 102 OFFCURVE",
"529 261 CURVE SMOOTH",
"529 435 OFFCURVE",
"427 523 OFFCURVE",
"318 523 CURVE SMOOTH",
"288 523 OFFCURVE",
"245 513 OFFCURVE",
"210 496 CURVE {name = hr00;}",
"231 465 OFFCURVE",
"257 449 OFFCURVE",
"287 451 CURVE SMOOTH",
"373 456 OFFCURVE",
"431 393 OFFCURVE",
"431 261 CURVE SMOOTH",
"431 143 OFFCURVE",
"372 62 OFFCURVE",
"277 62 CURVE SMOOTH",
"247 62 OFFCURVE",
"208 66 OFFCURVE",
"176 78 CURVE",
"176 758 LINE",
"83 758 LINE",
"83 40 LINE",
"140 7 OFFCURVE",
"205 -10 OFFCURVE",
"277 -10 CURVE SMOOTH"
);
}
);
width = 582;
},
{
anchors = (
{
name = bottom;
position = "{269, 0}";
},
{
name = top;
position = "{222, 758}";
}
);
hints = (
{
horizontal = 1;
origin = "{0, 8}";
target = "{0, 17}";
type = Stem;
},
{
horizontal = 1;
origin = "{0, 23}";
target = "{0, 2}";
type = Stem;
},
{
horizontal = 1;
origin = "{0, 12}";
target = down;
type = TopGhost;
}
);
layerId = "3BBF7C5C-CA4C-45AB-AE18-0528A0ACCA90";
paths = (
{
closed = 1;
nodes = (
"425 -10 OFFCURVE",
"541 102 OFFCURVE",
"561 261 CURVE SMOOTH",
"582 435 OFFCURVE",
"488 528 OFFCURVE",
"379 522 CURVE SMOOTH",
"349 521 OFFCURVE",
"305 509 OFFCURVE",
"269 490 CURVE {name = hr00;}",
"288 460 OFFCURVE",
"313 445 OFFCURVE",
"343 448 CURVE SMOOTH",
"428 458 OFFCURVE",
"479 393 OFFCURVE",
"463 261 CURVE SMOOTH",
"448 143 OFFCURVE",
"379 62 OFFCURVE",
"284 62 CURVE SMOOTH",
"254 62 OFFCURVE",
"216 66 OFFCURVE",
"185 78 CURVE",
"268 751 LINE",
"176 758 LINE",
"87 40 LINE",
"140 7 OFFCURVE",
"203 -10 OFFCURVE",
"275 -10 CURVE SMOOTH"
);
}
);
width = 582;
},
{
anchors = (
{
name = bottom;
position = "{304, 0}";
},
{
name = top;
position = "{143, 758}";
}
);
hints = (
{
horizontal = 1;
origin = "{0, 11}";
target = "{0, 20}";
type = Stem;
},
{
horizontal = 1;
origin = "{0, 26}";
target = "{0, 5}";
type = Stem;
},
{
horizontal = 1;
origin = "{0, 15}";
target = down;
type = TopGhost;
},
{
origin = "{0, 14}";
target = "{0, 17}";
type = Stem;
},
{
origin = "{0, 23}";
target = "{0, 8}";
type = Stem;
}
);
layerId = "58254875-FB9E-4C1D-8B15-704836B9A7CF";
paths = (
{
closed = 1;
nodes = (
"462 -15 OFFCURVE",
"568 114 OFFCURVE",
"568 277 CURVE SMOOTH",
"568 397 OFFCURVE",
"489 526 OFFCURVE",
"362 526 CURVE SMOOTH",
"328 526 OFFCURVE",
"286 518 OFFCURVE",
"248 502 CURVE",
"268 461 OFFCURVE",
"286 423 OFFCURVE",
"330 425 CURVE SMOOTH {name = hr00;}",
"397 428 OFFCURVE",
"419 341 OFFCURVE",
"419 277 CURVE SMOOTH",
"419 167 OFFCURVE",
"371 88 OFFCURVE",
"293 88 CURVE SMOOTH",
"266 88 OFFCURVE",
"243 90 OFFCURVE",
"212 98 CURVE",
"212 758 LINE",
"73 758 LINE",
"73 42 LINE",
"154 0 OFFCURVE",
"220 -15 OFFCURVE",
"293 -15 CURVE SMOOTH"
);
}
);
width = 610;
},
{
anchors = (
{
name = bottom;
position = "{276, 0}";
},
{
name = top;
position = "{236, 758}";
}
);
hints = (
{
horizontal = 1;
origin = "{0, 11}";
target = "{0, 20}";
type = Stem;
},
{
horizontal = 1;
origin = "{0, 26}";
target = "{0, 5}";
type = Stem;
},
{
horizontal = 1;
origin = "{0, 15}";
target = down;
type = TopGhost;
}
);
layerId = "5E1C92F4-866D-4CC0-BA00-538F5374015A";
paths = (
{
closed = 1;
nodes = (
"460 -15 OFFCURVE",
"581 114 OFFCURVE",
"602 277 CURVE SMOOTH",
"616 397 OFFCURVE",
"552 533 OFFCURVE",
"425 526 CURVE SMOOTH",
"391 524 OFFCURVE",
"349 514 OFFCURVE",
"309 496 CURVE",
"327 456 OFFCURVE",
"342 418 OFFCURVE",
"387 423 CURVE SMOOTH {name = hr00;}",
"453 429 OFFCURVE",
"460 341 OFFCURVE",
"453 277 CURVE SMOOTH",
"439 167 OFFCURVE",
"381 88 OFFCURVE",
"303 88 CURVE SMOOTH",
"276 88 OFFCURVE",
"254 90 OFFCURVE",
"224 98 CURVE",
"304 751 LINE",
"166 758 LINE",
"78 42 LINE",
"154 0 OFFCURVE",
"218 -15 OFFCURVE",
"291 -15 CURVE SMOOTH"
);
}
);
width = 610;
}
);
unicode = 0062;
},
{
glyphname = c;
layers = (
{
anchors = (
{
name = bottom;
position = "{257, 0}";
},
{
name = top;
position = "{256, 517}";
}
);
hints = (
{
horizontal = 1;
origin = "{0, 25}";
target = "{0, 18}";
type = Stem;
},
{
horizontal = 1;
origin = "{0, 12}";
target = "{0, 5}";
type = Stem;
},
{
origin = "{0, 2}";
target = "{0, 15}";
type = Stem;
}
);
layerId = "BAA2CE79-BA31-4701-835E-3D9478C3F4B2";
paths = (
{
closed = 1;
nodes = (
"314 -10 OFFCURVE",
"364 -2 OFFCURVE",
"418 25 CURVE",
"393 91 LINE",
"347 70 OFFCURVE",
"312 62 OFFCURVE",
"283 62 CURVE SMOOTH",
"206 62 OFFCURVE",
"141 124 OFFCURVE",
"141 259 CURVE SMOOTH",
"141 393 OFFCURVE",
"207 455 OFFCURVE",
"283 455 CURVE SMOOTH",
"313 455 OFFCURVE",
"344 451 OFFCURVE",
"382 441 CURVE",
"405 506 LINE",
"365 521 OFFCURVE",
"319 527 OFFCURVE",
"283 527 CURVE SMOOTH",
"154 527 OFFCURVE",
"42 432 OFFCURVE",
"42 259 CURVE SMOOTH",
"42 85 OFFCURVE",
"149 -10 OFFCURVE",
"283 -10 CURVE SMOOTH {name = hr00;}"
);
}
);
width = 427;
},
{
anchors = (
{
name = bottom;
position = "{248, 0}";
},
{
name = top;
position = "{313, 517}";
}
);
hints = (
{
horizontal = 1;
origin = "{0, 25}";
target = "{0, 18}";
type = Stem;
},
{
horizontal = 1;
origin = "{0, 12}";
target = "{0, 5}";
type = Stem;
}
);
layerId = "3BBF7C5C-CA4C-45AB-AE18-0528A0ACCA90";
paths = (
{
closed = 1;
nodes = (
"312 -10 OFFCURVE",
"363 -2 OFFCURVE",
"421 25 CURVE",
"404 91 LINE",
"355 70 OFFCURVE",
"319 62 OFFCURVE",
"290 62 CURVE SMOOTH",
"213 62 OFFCURVE",
"156 124 OFFCURVE",
"172 259 CURVE SMOOTH",
"189 393 OFFCURVE",
"262 455 OFFCURVE",
"338 455 CURVE SMOOTH",
"368 455 OFFCURVE",
"399 451 OFFCURVE",
"436 441 CURVE",
"467 506 LINE",
"428 521 OFFCURVE",
"383 527 OFFCURVE",
"347 527 CURVE SMOOTH",
"218 527 OFFCURVE",
"95 432 OFFCURVE",
"73 259 CURVE SMOOTH",
"52 85 OFFCURVE",
"147 -10 OFFCURVE",
"281 -10 CURVE SMOOTH {name = hr00;}"
);
}
);
width = 427;
},
{
anchors = (
{
name = bottom;
position = "{259, 0}";
},
{
name = top;
position = "{261, 517}";
}
);
hints = (
{
horizontal = 1;
origin = "{0, 19}";
target = "{0, 12}";
type = Stem;
},
{
horizontal = 1;
origin = "{0, 6}";
target = "{0, 25}";
type = Stem;
},
{
origin = "{0, 22}";
target = "{0, 9}";
type = Stem;
}
);
layerId = "58254875-FB9E-4C1D-8B15-704836B9A7CF";
paths = (
{
closed = 1;
nodes = (
"332 -13 OFFCURVE",
"379 -2 OFFCURVE",
"431 22 CURVE",
"397 114 LINE",
"354 97 OFFCURVE",
"324 90 OFFCURVE",
"296 90 CURVE SMOOTH",
"224 90 OFFCURVE",
"176 154 OFFCURVE",
"176 259 CURVE SMOOTH",
"176 363 OFFCURVE",
"224 427 OFFCURVE",
"296 427 CURVE SMOOTH",
"318 427 OFFCURVE",
"351 423 OFFCURVE",
"383 415 CURVE",
"417 508 LINE",
"377 523 OFFCURVE",
"332 530 OFFCURVE",
"296 530 CURVE SMOOTH {name = hr00;}",
"157 530 OFFCURVE",
"28 440 OFFCURVE",
"28 259 CURVE SMOOTH",
"28 67 OFFCURVE",
"157 -13 OFFCURVE",
"296 -13 CURVE SMOOTH"
);
}
);
width = 430;
},
{
anchors = (
{
name = bottom;
position = "{257, 0}";
},
{
name = top;
position = "{317, 517}";
}
);
hints = (
{
horizontal = 1;
origin = "{0, 19}";
target = "{0, 12}";
type = Stem;
},
{
horizontal = 1;
origin = "{0, 6}";
target = "{0, 25}";
type = Stem;
}
);
layerId = "5E1C92F4-866D-4CC0-BA00-538F5374015A";
paths = (
{
closed = 1;
nodes = (
"330 -13 OFFCURVE",
"378 -2 OFFCURVE",
"433 22 CURVE",
"410 114 LINE",
"365 97 OFFCURVE",
"335 90 OFFCURVE",
"307 90 CURVE SMOOTH",
"235 90 OFFCURVE",
"194 154 OFFCURVE",
"207 259 CURVE SMOOTH",
"220 363 OFFCURVE",
"276 427 OFFCURVE",
"348 427 CURVE SMOOTH",
"370 427 OFFCURVE",
"402 423 OFFCURVE",
"433 415 CURVE",
"479 508 LINE",
"441 523 OFFCURVE",
"397 530 OFFCURVE",
"361 530 CURVE SMOOTH {name = hr00;}",
"222 530 OFFCURVE",
"82 440 OFFCURVE",
"59 259 CURVE SMOOTH",
"36 67 OFFCURVE",
"155 -13 OFFCURVE",
"294 -13 CURVE SMOOTH"
);
}
);
width = 430;
}
);
unicode = 0063;
},
{
glyphname = d;
layers = (
{
anchors = (
{
name = bottom;
position = "{299, 0}";
},
{
name = center;
position = "{419, 640}";
},
{
name = top;
position = "{464, 758}";
},
{
name = topright;
position = "{578, 758}";
}
);
hints = (
{
horizontal = 1;
origin = "{0, 24}";
target = up;
type = BottomGhost;
},
{
horizontal = 1;
origin = "{0, 8}";
target = "{0, 2}";
type = Stem;
},
{
horizontal = 1;
origin = "{0, 18}";
target = down;
type = TopGhost;
},
{
origin = "{0, 35}";
target = "{0, 11}";
type = Stem;
},
{
origin = "{0, 17}";
target = "{0, 20}";
type = Stem;
},
{
horizontal = 1;
origin = "{0, 32}";
target = "{0, 14}";
type = Stem;
}
);
layerId = "BAA2CE79-BA31-4701-835E-3D9478C3F4B2";
paths = (
{
closed = 1;
nodes = (
"312 -10 OFFCURVE",
"372 6 OFFCURVE",
"413 53 CURVE",
"421 70 LINE",
"423 54 LINE",
"433 27 OFFCURVE",
"442 14 OFFCURVE",
"458 0 CURVE {name = hr01;}",
"525 0 LINE",
"517 35 OFFCURVE",
"510 91 OFFCURVE",
"510 171 CURVE SMOOTH",
"510 758 LINE",
"417 758 LINE",
"417 135 LINE",
"376 85 OFFCURVE",
"332 62 OFFCURVE",
"286 62 CURVE {name = hr02;}",
"198 62 OFFCURVE",
"150 145 OFFCURVE",
"150 261 CURVE",
"150 397 OFFCURVE",
"220 453 OFFCURVE",
"289 451 CURVE SMOOTH",
"336 450 OFFCURVE",
"365 473 OFFCURVE",
"383 506 CURVE",
"347 519 OFFCURVE",
"313 523 OFFCURVE",
"283 523 CURVE SMOOTH",
"164 523 OFFCURVE",
"51 421 OFFCURVE",
"51 261 CURVE",
"51 108 OFFCURVE",
"131 -10 OFFCURVE",
"271 -10 CURVE"
);
}
);
width = 598;
},
{
anchors = (
{
name = bottom;
position = "{267, 0}";
},
{
name = center;
position = "{484, 640}";
},
{
name = top;
position = "{556, 758}";
},
{
name = topright;
position = "{670, 758}";
}
);
hints = (
{
horizontal = 1;
origin = "{0, 24}";
target = up;
type = BottomGhost;
},
{
horizontal = 1;
origin = "{0, 8}";
target = "{0, 2}";
type = Stem;
},
{
horizontal = 1;
origin = "{0, 18}";
target = down;
type = TopGhost;
},
{
horizontal = 1;
origin = "{0, 32}";
target = "{0, 14}";
type = Stem;
}
);
layerId = "3BBF7C5C-CA4C-45AB-AE18-0528A0ACCA90";
paths = (
{
closed = 1;
nodes = (
"310 -10 OFFCURVE",
"372 6 OFFCURVE",
"419 53 CURVE",
"429 70 LINE",
"429 54 LINE",
"436 27 OFFCURVE",
"443 14 OFFCURVE",
"458 0 CURVE {name = hr01;}",
"526 5 LINE",
"522 40 OFFCURVE",
"521 96 OFFCURVE",
"531 176 CURVE SMOOTH",
"602 751 LINE",
"510 758 LINE",
"433 135 LINE",
"386 85 OFFCURVE",
"339 62 OFFCURVE",
"293 62 CURVE",
"205 62 OFFCURVE",
"167 145 OFFCURVE",
"182 261 CURVE",
"198 397 OFFCURVE",
"275 453 OFFCURVE",
"344 451 CURVE SMOOTH",
"391 450 OFFCURVE",
"423 473 OFFCURVE",
"445 506 CURVE",
"410 519 OFFCURVE",
"377 523 OFFCURVE",
"347 523 CURVE SMOOTH",
"228 523 OFFCURVE",
"102 421 OFFCURVE",
"83 261 CURVE",
"64 108 OFFCURVE",
"129 -10 OFFCURVE",
"269 -10 CURVE {name = hr02;}"
);
}
);
width = 598;
},
{
anchors = (
{
name = bottom;
position = "{309, 0}";
},
{
name = center;
position = "{416, 635}";
},
{
name = top;
position = "{472, 758}";
},
{
name = topright;
position = "{611, 758}";
}
);
hints = (
{
horizontal = 1;
origin = "{0, 27}";
target = up;
type = BottomGhost;
},
{
horizontal = 1;
origin = "{0, 11}";
target = "{0, 5}";
type = Stem;
},
{
horizontal = 1;
origin = "{0, 21}";
target = down;
type = TopGhost;
},
{
origin = "{0, 2}";
target = "{0, 14}";
type = Stem;
},
{
origin = "{0, 20}";
target = "{0, 23}";
type = Stem;
},
{
horizontal = 1;
origin = "{0, 35}";
target = "{0, 17}";
type = Stem;
}
);
layerId = "58254875-FB9E-4C1D-8B15-704836B9A7CF";
paths = (
{
closed = 1;
nodes = (
"300 -13 OFFCURVE",
"340 1 OFFCURVE",
"392 48 CURVE",
"409 70 LINE",
"414 47 LINE",
"421 28 OFFCURVE",
"432 9 OFFCURVE",
"449 0 CURVE",
"556 0 LINE {name = hr01;}",
"545 47 OFFCURVE",
"541 89 OFFCURVE",
"541 126 CURVE",
"541 758 LINE",
"402 758 LINE",
"402 160 LINE",
"360 112 OFFCURVE",
"324 90 OFFCURVE",
"286 90 CURVE",
"219 90 OFFCURVE",
"180 169 OFFCURVE",
"180 262 CURVE",
"180 356 OFFCURVE",
"209 423 OFFCURVE",
"291 428 CURVE SMOOTH",
"324 431 OFFCURVE",
"348 462 OFFCURVE",
"366 508 CURVE",
"314 523 OFFCURVE",
"286 526 OFFCURVE",
"252 526 CURVE SMOOTH",
"137 526 OFFCURVE",
"32 403 OFFCURVE",
"32 262 CURVE",
"32 104 OFFCURVE",
"116 -13 OFFCURVE",
"261 -13 CURVE"
);
}
);
width = 619;
},
{
anchors = (
{
name = bottom;
position = "{278, 0}";
},
{
name = center;
position = "{489, 635}";
},
{
name = top;
position = "{563, 758}";
},
{
name = topright;
position = "{695, 758}";
}
);
hints = (
{
horizontal = 1;
origin = "{0, 27}";
target = up;
type = BottomGhost;
},
{
horizontal = 1;
origin = "{0, 11}";
target = "{0, 5}";
type = Stem;
},
{
horizontal = 1;
origin = "{0, 21}";
target = down;
type = TopGhost;
},
{
horizontal = 1;
origin = "{0, 35}";
target = "{0, 17}";
type = Stem;
}
);
layerId = "5E1C92F4-866D-4CC0-BA00-538F5374015A";
paths = (
{
closed = 1;
nodes = (
"298 -13 OFFCURVE",
"340 1 OFFCURVE",
"397 48 CURVE",
"417 70 LINE",
"419 47 LINE",
"424 28 OFFCURVE",
"433 9 OFFCURVE",
"449 0 CURVE {name = hr01;}",
"557 5 LINE",
"551 52 OFFCURVE",
"552 94 OFFCURVE",
"557 131 CURVE",
"633 751 LINE",
"495 758 LINE",
"421 160 LINE",
"373 112 OFFCURVE",
"335 90 OFFCURVE",
"297 90 CURVE",
"230 90 OFFCURVE",
"200 169 OFFCURVE",
"212 262 CURVE",
"223 356 OFFCURVE",
"260 423 OFFCURVE",
"343 428 CURVE SMOOTH",
"376 431 OFFCURVE",
"404 462 OFFCURVE",
"428 508 CURVE",
"378 523 OFFCURVE",
"350 526 OFFCURVE",
"316 526 CURVE SMOOTH",
"201 526 OFFCURVE",
"81 403 OFFCURVE",
"64 262 CURVE",
"44 104 OFFCURVE",
"114 -13 OFFCURVE",
"259 -13 CURVE"
);
}
);
width = 619;
}
);
unicode = 0064;
},
{
glyphname = eth;
layers = (
{
hints = (
{
horizontal = 1;
origin = "{0, 2}";
target = "{1, 8}";
type = Stem;
},
{
horizontal = 1;
origin = "{1, 2}";
target = "{0, 8}";
type = Stem;
},
{
horizontal = 1;
origin = "{0, 24}";
target = down;
type = TopGhost;
}
);
layerId = "3BBF7C5C-CA4C-45AB-AE18-0528A0ACCA90";
paths = (
{
closed = 1;
nodes = (
"408 -10 OFFCURVE",
"532 85 OFFCURVE",
"553 259 CURVE {name = hr00;}",
"577 451 OFFCURVE",
"468 606 OFFCURVE",
"425 646 CURVE",
"520 689 LINE",
"505 733 LINE",
"386 679 LINE",
"347 710 OFFCURVE",
"300 738 OFFCURVE",
"255 760 CURVE",
"216 702 LINE",
"250 684 OFFCURVE",
"279 667 OFFCURVE",
"307 645 CURVE",
"202 596 LINE",
"215 553 LINE",
"348 613 LINE",
"399 570 OFFCURVE",
"421 534 OFFCURVE",
"449 481 CURVE",
"415 514 OFFCURVE",
"387 527 OFFCURVE",
"343 527 CURVE SMOOTH",
"216 527 OFFCURVE",
"93 432 OFFCURVE",
"71 259 CURVE SMOOTH",
"50 85 OFFCURVE",
"145 -10 OFFCURVE",
"279 -10 CURVE SMOOTH"
);
},
{
closed = 1;
nodes = (
"211 62 OFFCURVE",
"154 124 OFFCURVE",
"170 259 CURVE SMOOTH",
"187 393 OFFCURVE",
"260 455 OFFCURVE",
"336 455 CURVE SMOOTH",
"412 455 OFFCURVE",
"471 393 OFFCURVE",
"454 259 CURVE SMOOTH",
"438 124 OFFCURVE",
"364 62 OFFCURVE",
"288 62 CURVE SMOOTH"
);
}
);
width = 557;
},
{
hints = (
{
horizontal = 1;
origin = "{0, 2}";
target = "{1, 2}";
type = Stem;
},
{
horizontal = 1;
origin = "{1, 8}";
target = "{0, 8}";
type = Stem;
},
{
horizontal = 1;
origin = "{0, 21}";
target = down;
type = TopGhost;
},
{
origin = "{0, 5}";
target = "{1, 11}";
type = Stem;
},
{
origin = "{1, 5}";
target = "{0, 30}";
type = Stem;
}
);
layerId = "58254875-FB9E-4C1D-8B15-704836B9A7CF";
paths = (
{
closed = 1;
nodes = (
"431 -13 OFFCURVE",
"550 105 OFFCURVE",
"550 259 CURVE SMOOTH {name = hr00;}",
"550 418 OFFCURVE",
"472 549 OFFCURVE",
"360 644 CURVE",
"440 682 LINE",
"411 741 LINE",
"301 688 LINE",
"258 718 OFFCURVE",
"211 742 OFFCURVE",
"163 762 CURVE",
"120 686 LINE",
"148 673 OFFCURVE",
"176 658 OFFCURVE",
"204 642 CURVE",
"125 604 LINE",
"152 546 LINE",
"267 600 LINE",
"301 575 OFFCURVE",
"331 546 OFFCURVE",
"356 515 CURVE",
"333 525 OFFCURVE",
"305 530 OFFCURVE",
"282 530 CURVE SMOOTH",
"132 530 OFFCURVE",
"14 412 OFFCURVE",
"14 259 CURVE SMOOTH",
"14 92 OFFCURVE",
"132 -13 OFFCURVE",
"282 -13 CURVE SMOOTH"
);
},
{
closed = 1;
nodes = (
"204 89 OFFCURVE",
"162 165 OFFCURVE",
"162 259 CURVE SMOOTH",
"162 352 OFFCURVE",
"204 428 OFFCURVE",
"282 428 CURVE SMOOTH",
"360 428 OFFCURVE",
"401 352 OFFCURVE",
"401 259 CURVE SMOOTH",
"401 165 OFFCURVE",
"360 89 OFFCURVE",
"282 89 CURVE SMOOTH"
);
}
);
width = 557;
},
{
hints = (
{
horizontal = 1;
origin = "{0, 2}";
target = "{1, 2}";
type = Stem;
},
{
horizontal = 1;
origin = "{1, 8}";
target = "{0, 8}";
type = Stem;
},
{
horizontal = 1;
origin = "{0, 21}";
target = down;
type = TopGhost;
}
);
layerId = "5E1C92F4-866D-4CC0-BA00-538F5374015A";
paths = (
{
closed = 1;
nodes = (
"429 -13 OFFCURVE",
"562 105 OFFCURVE",
"581 259 CURVE SMOOTH {name = hr00;}",
"601 418 OFFCURVE",
"539 549 OFFCURVE",
"439 644 CURVE",
"523 682 LINE",
"501 741 LINE",
"385 688 LINE",
"346 718 OFFCURVE",
"302 742 OFFCURVE",
"256 762 CURVE",
"204 686 LINE",
"230 673 OFFCURVE",
"256 658 OFFCURVE",
"282 642 CURVE",
"199 604 LINE",
"219 546 LINE",
"340 600 LINE",
"371 575 OFFCURVE",
"398 546 OFFCURVE",
"419 515 CURVE",
"397 525 OFFCURVE",
"370 530 OFFCURVE",
"347 530 CURVE SMOOTH",
"197 530 OFFCURVE",
"64 412 OFFCURVE",
"45 259 CURVE SMOOTH",
"25 92 OFFCURVE",
"130 -13 OFFCURVE",
"280 -13 CURVE SMOOTH"
);
},
{
closed = 1;
nodes = (
"214 89 OFFCURVE",
"182 165 OFFCURVE",
"193 259 CURVE SMOOTH",
"205 352 OFFCURVE",
"256 428 OFFCURVE",
"334 428 CURVE SMOOTH",
"412 428 OFFCURVE",
"444 352 OFFCURVE",
"432 259 CURVE SMOOTH",
"421 165 OFFCURVE",
"370 89 OFFCURVE",
"292 89 CURVE SMOOTH"
);
}
);
width = 557;
},
{
associatedMasterId = "BAA2CE79-BA31-4701-835E-3D9478C3F4B2";
hints = (
{
horizontal = 1;
origin = "{0, 5}";
target = "{0, 24}";
type = Stem;
},
{
horizontal = 1;
origin = "{0, 30}";
target = "{0, 11}";
type = Stem;
},
{
horizontal = 1;
origin = "{0, 36}";
target = down;
type = TopGhost;
},
{
origin = "{0, 8}";
target = "{0, 33}";
type = Stem;
},
{
origin = "{0, 27}";
target = "{0, 2}";
type = Stem;
}
);
layerId = "B084D0AC-863B-426F-B1CA-331EEA2CDE19";
name = "Aug 21 18, 17:02";
paths = (
{
closed = 1;
nodes = (
"40 85 OFFCURVE",
"147 -10 OFFCURVE",
"281 -10 CURVE SMOOTH",
"410 -10 OFFCURVE",
"522 85 OFFCURVE",
"522 259 CURVE SMOOTH {name = hr00;}",
"522 451 OFFCURVE",
"394 606 OFFCURVE",
"346 646 CURVE",
"436 689 LINE",
"415 733 LINE",
"303 679 LINE",
"260 710 OFFCURVE",
"210 738 OFFCURVE",
"162 760 CURVE",
"130 702 LINE",
"167 684 OFFCURVE",
"198 667 OFFCURVE",
"228 645 CURVE",
"129 596 LINE",
"148 553 LINE",
"273 613 LINE",
"382 531 OFFCURVE",
"423 428 OFFCURVE",
"423 259 CURVE SMOOTH",
"423 124 OFFCURVE",
"357 62 OFFCURVE",
"281 62 CURVE SMOOTH",
"204 62 OFFCURVE",
"139 124 OFFCURVE",
"139 259 CURVE SMOOTH",
"139 393 OFFCURVE",
"205 455 OFFCURVE",
"270 455 CURVE SMOOTH",
"307 455 OFFCURVE",
"328 483 OFFCURVE",
"340 518 CURVE",
"313 525 OFFCURVE",
"297 527 OFFCURVE",
"281 527 CURVE SMOOTH",
"152 527 OFFCURVE",
"40 432 OFFCURVE",
"40 259 CURVE SMOOTH"
);
}
);
width = 557;
},
{
hints = (
{
horizontal = 1;
origin = "{0, 2}";
target = "{1, 8}";
type = Stem;
},
{
horizontal = 1;
origin = "{1, 2}";
target = "{0, 8}";
type = Stem;
},
{
horizontal = 1;
origin = "{0, 24}";
target = down;
type = TopGhost;
},
{
origin = "{0, 5}";
target = "{1, 5}";
type = Stem;
},
{
origin = "{1, 11}";
target = "{0, 30}";
type = Stem;
}
);
layerId = "BAA2CE79-BA31-4701-835E-3D9478C3F4B2";
paths = (
{
closed = 1;
nodes = (
"410 -10 OFFCURVE",
"522 85 OFFCURVE",
"522 259 CURVE {name = hr00;}",
"522 451 OFFCURVE",
"394 606 OFFCURVE",
"346 646 CURVE",
"436 689 LINE",
"415 733 LINE",
"303 679 LINE",
"260 710 OFFCURVE",
"210 738 OFFCURVE",
"162 760 CURVE",
"130 702 LINE",
"167 684 OFFCURVE",
"198 667 OFFCURVE",
"228 645 CURVE",
"129 596 LINE",
"148 553 LINE",
"273 613 LINE",
"309 586 OFFCURVE",
"348 547 OFFCURVE",
"391 487 CURVE",
"357 513 OFFCURVE",
"320 527 OFFCURVE",
"281 527 CURVE SMOOTH",
"152 527 OFFCURVE",
"40 432 OFFCURVE",
"40 259 CURVE SMOOTH",
"40 85 OFFCURVE",
"147 -10 OFFCURVE",
"281 -10 CURVE SMOOTH"
);
},
{
closed = 1;
nodes = (
"204 62 OFFCURVE",
"139 124 OFFCURVE",
"139 259 CURVE SMOOTH",
"139 393 OFFCURVE",
"205 455 OFFCURVE",
"281 455 CURVE SMOOTH",
"357 455 OFFCURVE",
"423 393 OFFCURVE",
"423 259 CURVE SMOOTH",
"423 124 OFFCURVE",
"357 62 OFFCURVE",
"281 62 CURVE SMOOTH"
);
}
);
width = 557;
}
);
unicode = 00F0;
},
{
glyphname = e;
layers = (
{
anchors = (
{
name = bottom;
position = "{279, 0}";
},
{
name = ogonek;
position = "{420, 0}";
},
{
name = top;
position = "{287, 517}";
}
);
hints = (
{
horizontal = 1;
origin = "{0, 15}";
target = "{0, 8}";
type = Stem;
},
{
horizontal = 1;
origin = "{0, 25}";
target = "{0, 28}";
type = Stem;
},
{
horizontal = 1;
origin = "{0, 2}";
target = "{0, 21}";
type = Stem;
},
{
origin = "{0, 18}";
target = "{0, 5}";
type = Stem;
}
);
layerId = "BAA2CE79-BA31-4701-835E-3D9478C3F4B2";
paths = (
{
closed = 1;
nodes = (
"346 -10 OFFCURVE",
"408 -1 OFFCURVE",
"472 32 CURVE",
"447 98 LINE",
"390 69 OFFCURVE",
"354 62 OFFCURVE",
"308 62 CURVE SMOOTH",
"217 62 OFFCURVE",
"149 143 OFFCURVE",
"149 262 CURVE SMOOTH",
"149 385 OFFCURVE",
"207 455 OFFCURVE",
"291 455 CURVE SMOOTH",
"356 455 OFFCURVE",
"406 394 OFFCURVE",
"397 317 CURVE {name = hr00;}",
"270 317 LINE",
"222 317 OFFCURVE",
"199 288 OFFCURVE",
"185 250 CURVE",
"475 250 LINE",
"519 393 OFFCURVE",
"438 527 OFFCURVE",
"301 527 CURVE SMOOTH",
"150 527 OFFCURVE",
"56 425 OFFCURVE",
"56 263 CURVE SMOOTH",
"56 106 OFFCURVE",
"151 -10 OFFCURVE",
"298 -10 CURVE SMOOTH"
);
}
);
width = 544;
},
{
anchors = (
{
name = bottom;
position = "{283, 0}";
},
{
name = ogonek;
position = "{409, 0}";
},
{
name = top;
position = "{349, 517}";
}
);
hints = (
{
horizontal = 1;
origin = "{0, 15}";
target = "{0, 8}";
type = Stem;
},
{
horizontal = 1;
origin = "{0, 25}";
target = "{0, 28}";
type = Stem;
},
{
horizontal = 1;
origin = "{0, 2}";
target = "{0, 21}";
type = Stem;
}
);
layerId = "3BBF7C5C-CA4C-45AB-AE18-0528A0ACCA90";
paths = (
{
closed = 1;
nodes = (
"344 -10 OFFCURVE",
"407 -1 OFFCURVE",
"475 32 CURVE",
"459 98 LINE",
"398 69 OFFCURVE",
"361 62 OFFCURVE",
"315 62 CURVE SMOOTH",
"224 62 OFFCURVE",
"166 143 OFFCURVE",
"181 262 CURVE SMOOTH",
"196 385 OFFCURVE",
"262 455 OFFCURVE",
"346 455 CURVE SMOOTH",
"411 455 OFFCURVE",
"454 394 OFFCURVE",
"435 317 CURVE {name = hr00;}",
"308 317 LINE",
"260 317 OFFCURVE",
"234 288 OFFCURVE",
"215 250 CURVE",
"505 250 LINE",
"567 393 OFFCURVE",
"502 527 OFFCURVE",
"365 527 CURVE SMOOTH",
"214 527 OFFCURVE",
"108 425 OFFCURVE",
"88 263 CURVE SMOOTH",
"69 106 OFFCURVE",
"149 -10 OFFCURVE",
"296 -10 CURVE SMOOTH"
);
}
);
width = 544;
},
{
anchors = (
{
name = bottom;
position = "{296, 0}";
},
{
name = ogonek;
position = "{426, 0}";
},
{
name = top;
position = "{296, 517}";
}
);
hints = (
{
horizontal = 1;
origin = "{0, 15}";
target = "{0, 8}";
type = Stem;
},
{
horizontal = 1;
origin = "{0, 25}";
target = "{0, 28}";
type = Stem;
},
{
horizontal = 1;
origin = "{0, 2}";
target = "{0, 21}";
type = Stem;
},
{
origin = "{0, 18}";
target = "{0, 5}";
type = Stem;
}
);
layerId = "58254875-FB9E-4C1D-8B15-704836B9A7CF";
paths = (
{
closed = 1;
nodes = (
"371 -13 OFFCURVE",
"433 0 OFFCURVE",
"505 34 CURVE",
"470 127 LINE",
"412 101 OFFCURVE",
"370 90 OFFCURVE",
"324 90 CURVE SMOOTH",
"240 90 OFFCURVE",
"183 157 OFFCURVE",
"183 272 CURVE SMOOTH",
"183 386 OFFCURVE",
"245 433 OFFCURVE",
"300 433 CURVE SMOOTH",
"361 433 OFFCURVE",
"396 378 OFFCURVE",
"388 317 CURVE {name = hr00;}",
"299 317 LINE",
"265 317 OFFCURVE",
"235 281 OFFCURVE",
"221 235 CURVE",
"501 235 LINE",
"560 407 OFFCURVE",
"455 530 OFFCURVE",
"307 530 CURVE SMOOTH",
"162 530 OFFCURVE",
"45 432 OFFCURVE",
"45 267 CURVE SMOOTH",
"45 132 OFFCURVE",
"126 -13 OFFCURVE",
"309 -13 CURVE SMOOTH"
);
}
);
width = 564;
},
{
anchors = (
{
name = bottom;
position = "{295, 0}";
},
{
name = ogonek;
position = "{416, 0}";
},
{
name = top;
position = "{359, 517}";
}
);
hints = (
{
horizontal = 1;
origin = "{0, 15}";
target = "{0, 8}";
type = Stem;
},
{
horizontal = 1;
origin = "{0, 25}";
target = "{0, 28}";
type = Stem;
},
{
horizontal = 1;
origin = "{0, 2}";
target = "{0, 21}";
type = Stem;
}
);
layerId = "5E1C92F4-866D-4CC0-BA00-538F5374015A";
paths = (
{
closed = 1;
nodes = (
"369 -13 OFFCURVE",
"433 0 OFFCURVE",
"509 34 CURVE",
"485 127 LINE",
"424 101 OFFCURVE",
"381 90 OFFCURVE",
"335 90 CURVE SMOOTH",
"251 90 OFFCURVE",
"202 157 OFFCURVE",
"216 272 CURVE SMOOTH",
"230 386 OFFCURVE",
"298 433 OFFCURVE",
"353 433 CURVE SMOOTH",
"414 433 OFFCURVE",
"442 378 OFFCURVE",
"426 317 CURVE {name = hr00;}",
"337 317 LINE",
"303 317 OFFCURVE",
"269 281 OFFCURVE",
"249 235 CURVE",
"529 235 LINE",
"609 407 OFFCURVE",
"520 530 OFFCURVE",
"372 530 CURVE SMOOTH",
"227 530 OFFCURVE",
"98 432 OFFCURVE",
"77 267 CURVE SMOOTH",
"61 132 OFFCURVE",
"124 -13 OFFCURVE",
"307 -13 CURVE SMOOTH"
);
}
);
width = 564;
}
);
unicode = 0065;
},
{
glyphname = edieresis;
layers = (
{
components = (
{
name = e;
},
{
name = dieresiscomb;
transform = "{1, 0, 0, 1, 97, 0}";
}
);
hints = (
{
horizontal = 1;
place = "{317, 174}";
type = Stem;
},
{
horizontal = 1;
place = "{425, 435}";
type = Stem;
},
{
horizontal = 1;
place = "{32, 361}";
type = Stem;
},
{
horizontal = 1;
place = "{670, 0}";
type = Stem;
},
{
place = "{188, 0}";
type = Stem;
},
{
place = "{383, 0}";
type = Stem;
}
);
layerId = "BAA2CE79-BA31-4701-835E-3D9478C3F4B2";
width = 544;
},
{
components = (
{
name = e;
},
{
name = dieresiscomb;
transform = "{1, 0, 0, 1, 127, 0}";
}
);
hints = (
{
horizontal = 1;
place = "{317, 174}";
type = Stem;
},
{
horizontal = 1;
place = "{425, 435}";
type = Stem;
},
{
horizontal = 1;
place = "{32, 361}";
type = Stem;
},
{
horizontal = 1;
place = "{670, 0}";
type = Stem;
}
);
layerId = "3BBF7C5C-CA4C-45AB-AE18-0528A0ACCA90";
width = 544;
},
{
background = {
paths = (
{
closed = 1;
nodes = (
"360 -13 OFFCURVE",
"422 0 OFFCURVE",
"494 34 CURVE",
"459 127 LINE",
"401 101 OFFCURVE",
"359 90 OFFCURVE",
"313 90 CURVE SMOOTH",
"229 90 OFFCURVE",
"172 157 OFFCURVE",
"172 272 CURVE SMOOTH",
"172 386 OFFCURVE",
"234 433 OFFCURVE",
"289 433 CURVE SMOOTH",
"350 433 OFFCURVE",
"385 378 OFFCURVE",
"377 317 CURVE",
"288 317 LINE",
"254 317 OFFCURVE",
"224 281 OFFCURVE",
"210 235 CURVE",
"490 235 LINE",
"549 407 OFFCURVE",
"444 530 OFFCURVE",
"296 530 CURVE SMOOTH",
"151 530 OFFCURVE",
"34 432 OFFCURVE",
"34 267 CURVE SMOOTH",
"34 132 OFFCURVE",
"115 -13 OFFCURVE",
"298 -13 CURVE SMOOTH"
);
},
{
closed = 1;
nodes = (
"222 607 OFFCURVE",
"251 635 OFFCURVE",
"251 670 CURVE SMOOTH",
"251 705 OFFCURVE",
"222 733 OFFCURVE",
"187 733 CURVE SMOOTH",
"153 733 OFFCURVE",
"124 705 OFFCURVE",
"124 670 CURVE SMOOTH {name = hr01;}",
"124 635 OFFCURVE",
"153 607 OFFCURVE",
"187 607 CURVE SMOOTH"
);
},
{
closed = 1;
nodes = (
"417 607 OFFCURVE",
"446 635 OFFCURVE",
"446 670 CURVE SMOOTH",
"446 705 OFFCURVE",
"417 733 OFFCURVE",
"382 733 CURVE SMOOTH",
"348 733 OFFCURVE",
"319 705 OFFCURVE",
"319 670 CURVE SMOOTH",
"319 635 OFFCURVE",
"348 607 OFFCURVE",
"382 607 CURVE SMOOTH"
);
}
);
};
components = (
{
name = e;
},
{
name = dieresiscomb;
transform = "{1, 0, 0, 1, 95, 0}";
}
);
hints = (
{
horizontal = 1;
place = "{317, 160}";
type = Stem;
},
{
horizontal = 1;
place = "{432, 445}";
type = Stem;
},
{
horizontal = 1;
place = "{34, 373}";
type = Stem;
},
{
horizontal = 1;
place = "{670, 0}";
type = Stem;
},
{
place = "{187, 0}";
type = Stem;
},
{
place = "{382, 0}";
type = Stem;
}
);
layerId = "58254875-FB9E-4C1D-8B15-704836B9A7CF";
width = 564;
},
{
background = {
paths = (
{
closed = 1;
nodes = (
"358 -13 OFFCURVE",
"422 0 OFFCURVE",
"498 34 CURVE",
"474 127 LINE",
"413 101 OFFCURVE",
"370 90 OFFCURVE",
"324 90 CURVE SMOOTH",
"240 90 OFFCURVE",
"191 157 OFFCURVE",
"205 272 CURVE SMOOTH",
"219 386 OFFCURVE",
"287 433 OFFCURVE",
"342 433 CURVE SMOOTH",
"403 433 OFFCURVE",
"431 378 OFFCURVE",
"415 317 CURVE {name = hr00;}",
"326 317 LINE",
"292 317 OFFCURVE",
"258 281 OFFCURVE",
"238 235 CURVE",
"518 235 LINE",
"598 407 OFFCURVE",
"509 530 OFFCURVE",
"361 530 CURVE SMOOTH",
"216 530 OFFCURVE",
"87 432 OFFCURVE",
"66 267 CURVE SMOOTH",
"50 132 OFFCURVE",
"113 -13 OFFCURVE",
"296 -13 CURVE SMOOTH"
);
},
{
closed = 1;
nodes = (
"296 607 OFFCURVE",
"328 635 OFFCURVE",
"333 670 CURVE SMOOTH",
"337 705 OFFCURVE",
"312 733 OFFCURVE",
"277 733 CURVE SMOOTH",
"243 733 OFFCURVE",
"210 705 OFFCURVE",
"206 670 CURVE SMOOTH",
"201 635 OFFCURVE",
"227 607 OFFCURVE",
"261 607 CURVE SMOOTH"
);
},
{
closed = 1;
nodes = (
"491 607 OFFCURVE",
"523 635 OFFCURVE",
"528 670 CURVE SMOOTH",
"532 705 OFFCURVE",
"507 733 OFFCURVE",
"472 733 CURVE SMOOTH",
"438 733 OFFCURVE",
"405 705 OFFCURVE",
"401 670 CURVE SMOOTH",
"396 635 OFFCURVE",
"422 607 OFFCURVE",
"456 607 CURVE SMOOTH"
);
}
);
};
components = (
{
name = e;
},
{
name = dieresiscomb;
transform = "{1, 0, 0, 1, 126, 0}";
}
);
hints = (
{
horizontal = 1;
place = "{317, 160}";
type = Stem;
},
{
horizontal = 1;
place = "{432, 445}";
type = Stem;
},
{
horizontal = 1;
place = "{34, 373}";
type = Stem;
},
{
horizontal = 1;
place = "{670, 0}";
type = Stem;
}
);
layerId = "5E1C92F4-866D-4CC0-BA00-538F5374015A";
width = 564;
}
);
unicode = 00EB;
},
{
glyphname = f;
layers = (
{
anchors = (
{
name = bottom;
position = "{135, 0}";
},
{
name = top;
position = "{276, 758}";
}
);
hints = (
{
horizontal = 1;
origin = "{0, 17}";
target = up;
type = BottomGhost;
},
{
horizontal = 1;
origin = "{0, 19}";
target = "{0, 1}";
type = Stem;
},
{
horizontal = 1;
origin = "{0, 12}";
target = "{0, 5}";
type = Stem;
},
{
origin = "{0, 17}";
target = "{0, 16}";
type = Stem;
}
);
layerId = "BAA2CE79-BA31-4701-835E-3D9478C3F4B2";
paths = (
{
closed = 1;
nodes = (
"178 0 LINE",
"178 555 LINE SMOOTH",
"178 655 OFFCURVE",
"238 695 OFFCURVE",
"294 695 CURVE SMOOTH",
"315 695 OFFCURVE",
"341 692 OFFCURVE",
"383 676 CURVE",
"404 737 LINE",
"358 757 OFFCURVE",
"316 763 OFFCURVE",
"283 763 CURVE SMOOTH",
"161 763 OFFCURVE",
"91 677 OFFCURVE",
"91 545 CURVE SMOOTH",
"91 517 LINE",
"5 496 LINE",
"5 448 LINE {name = hr00;}",
"91 448 LINE",
"91 0 LINE"
);
},
{
closed = 1;
nodes = (
"359 448 LINE",
"359 517 LINE",
"299 517 LINE",
"251 517 OFFCURVE",
"228 486 OFFCURVE",
"214 448 CURVE"
);
}
);
width = 390;
},
{
anchors = (
{
name = bottom;
position = "{135, 0}";
},
{
name = top;
position = "{376, 758}";
}
);
hints = (
{
horizontal = 1;
origin = "{0, 17}";
target = up;
type = BottomGhost;
},
{
horizontal = 1;
origin = "{0, 19}";
target = "{0, 1}";
type = Stem;
},
{
horizontal = 1;
origin = "{0, 12}";
target = "{0, 5}";
type = Stem;
}
);
layerId = "3BBF7C5C-CA4C-45AB-AE18-0528A0ACCA90";
paths = (
{
closed = 1;
nodes = (
"178 0 LINE",
"246 555 LINE SMOOTH",
"258 655 OFFCURVE",
"323 695 OFFCURVE",
"379 695 CURVE SMOOTH",
"400 695 OFFCURVE",
"425 692 OFFCURVE",
"466 676 CURVE",
"494 737 LINE",
"450 757 OFFCURVE",
"409 763 OFFCURVE",
"376 763 CURVE SMOOTH",
"254 763 OFFCURVE",
"174 677 OFFCURVE",
"157 545 CURVE SMOOTH",
"154 517 LINE",
"65 496 LINE",
"60 448 LINE {name = hr00;}",
"146 448 LINE",
"91 0 LINE"
);
},
{
closed = 1;
nodes = (
"414 448 LINE",
"422 517 LINE",
"362 517 LINE",
"314 517 OFFCURVE",
"287 486 OFFCURVE",
"269 448 CURVE"
);
}
);
width = 390;
},
{
anchors = (
{
name = bottom;
position = "{171, 0}";
},
{
name = top;
position = "{315, 758}";
}
);
hints = (
{
horizontal = 1;
origin = "{0, 18}";
target = up;
type = BottomGhost;
},
{
horizontal = 1;
origin = "{0, 0}";
target = "{0, 2}";
type = Stem;
},
{
horizontal = 1;
origin = "{0, 13}";
target = "{0, 6}";
type = Stem;
},
{
origin = "{0, 0}";
target = "{0, 17}";
type = Stem;
},
{
origin = "{0, 18}";
target = "{0, 17}";
type = Stem;
}
);
layerId = "58254875-FB9E-4C1D-8B15-704836B9A7CF";
paths = (
{
closed = 1;
nodes = (
"237 0 LINE",
"237 545 LINE SMOOTH",
"237 614 OFFCURVE",
"274 660 OFFCURVE",
"339 660 CURVE SMOOTH",
"362 660 OFFCURVE",
"387 655 OFFCURVE",
"426 644 CURVE",
"457 733 LINE",
"405 756 OFFCURVE",
"357 763 OFFCURVE",
"324 763 CURVE SMOOTH",
"190 763 OFFCURVE",
"105 676 OFFCURVE",
"105 545 CURVE SMOOTH",
"105 517 LINE {name = hr02;}",
"22 497 LINE",
"22 418 LINE {name = hr01;}",
"105 418 LINE",
"105 0 LINE"
);
},
{
closed = 1;
nodes = (
"415 418 LINE",
"415 517 LINE",
"371 517 LINE",
"313 517 OFFCURVE",
"284 462 OFFCURVE",
"271 418 CURVE"
);
}
);
width = 437;
},
{
anchors = (
{
name = bottom;
position = "{171, 0}";
},
{
name = top;
position = "{408, 758}";
}
);
hints = (
{
horizontal = 1;
origin = "{0, 18}";
target = up;
type = BottomGhost;
},
{
horizontal = 1;
origin = "{0, 0}";
target = "{0, 2}";
type = Stem;
},
{
horizontal = 1;
origin = "{0, 13}";
target = "{0, 6}";
type = Stem;
}
);
layerId = "5E1C92F4-866D-4CC0-BA00-538F5374015A";
paths = (
{
closed = 1;
nodes = (
"237 0 LINE",
"303 545 LINE SMOOTH",
"312 614 OFFCURVE",
"355 660 OFFCURVE",
"420 660 CURVE SMOOTH",
"443 660 OFFCURVE",
"467 655 OFFCURVE",
"505 644 CURVE",
"547 733 LINE",
"497 756 OFFCURVE",
"450 763 OFFCURVE",
"417 763 CURVE SMOOTH",
"283 763 OFFCURVE",
"188 676 OFFCURVE",
"171 545 CURVE SMOOTH",
"168 517 LINE",
"83 497 LINE",
"73 418 LINE",
"156 418 LINE {name = hr00;}",
"105 0 LINE"
);
},
{
closed = 1;
nodes = (
"466 418 LINE",
"478 517 LINE",
"434 517 LINE",
"376 517 OFFCURVE",
"340 462 OFFCURVE",
"322 418 CURVE"
);
}
);
width = 437;
}
);
unicode = 0066;
},
{
glyphname = g;
layers = (
{
anchors = (
{
name = bottom;
position = "{284, -241}";
},
{
name = top;
position = "{286, 517}";
}
);
hints = (
{
horizontal = 1;
origin = "{0, 9}";
target = "{0, 16}";
type = Stem;
},
{
horizontal = 1;
origin = "{0, 23}";
target = "{0, 2}";
type = Stem;
},
{
origin = "{0, 38}";
target = "{0, 26}";
type = Stem;
},
{
origin = "{0, 19}";
target = "{0, 6}";
type = Stem;
}
);
layerId = "BAA2CE79-BA31-4701-835E-3D9478C3F4B2";
paths = (
{
closed = 1;
nodes = (
"405 -250 OFFCURVE",
"496 -149 OFFCURVE",
"496 0 CURVE",
"496 495 LINE",
"427 518 OFFCURVE",
"375 527 OFFCURVE",
"319 527 CURVE SMOOTH",
"164 527 OFFCURVE",
"54 419 OFFCURVE",
"54 256 CURVE {name = hr00;}",
"54 93 OFFCURVE",
"152 -16 OFFCURVE",
"271 -6 CURVE SMOOTH",
"301 -3 OFFCURVE",
"338 9 OFFCURVE",
"371 31 CURVE",
"347 61 OFFCURVE",
"319 71 OFFCURVE",
"290 68 CURVE SMOOTH",
"198 58 OFFCURVE",
"152 143 OFFCURVE",
"152 256 CURVE",
"152 384 OFFCURVE",
"219 455 OFFCURVE",
"319 455 CURVE SMOOTH",
"349 455 OFFCURVE",
"374 452 OFFCURVE",
"405 444 CURVE",
"405 -11 LINE",
"405 -125 OFFCURVE",
"335 -178 OFFCURVE",
"251 -178 CURVE SMOOTH",
"209 -178 OFFCURVE",
"161 -168 OFFCURVE",
"104 -140 CURVE",
"78 -208 LINE",
"144 -242 OFFCURVE",
"207 -250 OFFCURVE",
"259 -250 CURVE SMOOTH"
);
}
);
width = 571;
},
{
anchors = (
{
name = bottom;
position = "{236, -241}";
},
{
name = top;
position = "{366, 517}";
}
);
hints = (
{
horizontal = 1;
origin = "{0, 9}";
target = "{0, 16}";
type = Stem;
},
{
horizontal = 1;
origin = "{0, 23}";
target = "{0, 2}";
type = Stem;
}
);
layerId = "3BBF7C5C-CA4C-45AB-AE18-0528A0ACCA90";
paths = (
{
closed = 1;
nodes = (
"374 -250 OFFCURVE",
"477 -149 OFFCURVE",
"496 0 CURVE",
"556 495 LINE",
"490 518 OFFCURVE",
"439 527 OFFCURVE",
"383 527 CURVE SMOOTH",
"228 527 OFFCURVE",
"105 419 OFFCURVE",
"85 256 CURVE {name = hr00;}",
"65 93 OFFCURVE",
"153 -22 OFFCURVE",
"272 -5 CURVE SMOOTH",
"302 -1 OFFCURVE",
"340 13 OFFCURVE",
"374 37 CURVE",
"352 66 OFFCURVE",
"325 74 OFFCURVE",
"296 70 CURVE SMOOTH",
"204 55 OFFCURVE",
"169 143 OFFCURVE",
"183 256 CURVE",
"199 384 OFFCURVE",
"274 455 OFFCURVE",
"374 455 CURVE SMOOTH",
"404 455 OFFCURVE",
"429 452 OFFCURVE",
"459 444 CURVE",
"403 -11 LINE",
"389 -125 OFFCURVE",
"313 -178 OFFCURVE",
"229 -178 CURVE SMOOTH",
"187 -178 OFFCURVE",
"140 -168 OFFCURVE",
"86 -140 CURVE",
"52 -208 LINE",
"114 -242 OFFCURVE",
"176 -250 OFFCURVE",
"228 -250 CURVE SMOOTH"
);
}
);
width = 571;
},
{
anchors = (
{
name = bottom;
position = "{294, -241}";
},
{
name = top;
position = "{307, 517}";
}
);
hints = (
{
horizontal = 1;
origin = "{0, 21}";
target = "{0, 28}";
type = Stem;
},
{
horizontal = 1;
origin = "{0, 8}";
target = "{0, 2}";
type = Stem;
},
{
horizontal = 1;
origin = "{0, 35}";
target = "{0, 14}";
type = Stem;
},
{
origin = "{0, 11}";
target = "{0, 38}";
type = Stem;
},
{
origin = "{0, 31}";
target = "{0, 18}";
type = Stem;
}
);
layerId = "58254875-FB9E-4C1D-8B15-704836B9A7CF";
paths = (
{
closed = 1;
nodes = (
"410 -250 OFFCURVE",
"529 -183 OFFCURVE",
"529 0 CURVE",
"529 499 LINE",
"430 524 OFFCURVE",
"380 529 OFFCURVE",
"323 529 CURVE SMOOTH",
"145 529 OFFCURVE",
"41 399 OFFCURVE",
"41 240 CURVE",
"41 121 OFFCURVE",
"116 -9 OFFCURVE",
"244 -9 CURVE SMOOTH",
"278 -9 OFFCURVE",
"320 6 OFFCURVE",
"357 26 CURVE",
"335 64 OFFCURVE",
"316 96 OFFCURVE",
"276 95 CURVE SMOOTH",
"208 93 OFFCURVE",
"190 176 OFFCURVE",
"190 240 CURVE {name = hr00;}",
"190 350 OFFCURVE",
"238 426 OFFCURVE",
"329 426 CURVE SMOOTH",
"343 426 OFFCURVE",
"367 424 OFFCURVE",
"393 418 CURVE",
"393 -11 LINE",
"393 -103 OFFCURVE",
"330 -150 OFFCURVE",
"256 -150 CURVE SMOOTH",
"214 -150 OFFCURVE",
"168 -142 OFFCURVE",
"101 -115 CURVE",
"66 -208 LINE",
"144 -242 OFFCURVE",
"212 -250 OFFCURVE",
"264 -250 CURVE SMOOTH"
);
}
);
width = 591;
},
{
anchors = (
{
name = bottom;
position = "{257, -241}";
},
{
name = top;
position = "{368, 517}";
}
);
hints = (
{
horizontal = 1;
origin = "{0, 21}";
target = "{0, 28}";
type = Stem;
},
{
horizontal = 1;
origin = "{0, 8}";
target = "{0, 2}";
type = Stem;
},
{
horizontal = 1;
origin = "{0, 35}";
target = "{0, 14}";
type = Stem;
}
);
layerId = "5E1C92F4-866D-4CC0-BA00-538F5374015A";
paths = (
{
closed = 1;
nodes = (
"379 -250 OFFCURVE",
"506 -183 OFFCURVE",
"529 0 CURVE",
"590 499 LINE",
"494 524 OFFCURVE",
"444 529 OFFCURVE",
"387 529 CURVE SMOOTH",
"209 529 OFFCURVE",
"89 399 OFFCURVE",
"70 240 CURVE",
"55 121 OFFCURVE",
"116 -16 OFFCURVE",
"244 -9 CURVE SMOOTH",
"278 -7 OFFCURVE",
"321 10 OFFCURVE",
"360 32 CURVE",
"340 69 OFFCURVE",
"323 100 OFFCURVE",
"283 97 CURVE SMOOTH",
"216 92 OFFCURVE",
"211 176 OFFCURVE",
"219 240 CURVE {name = hr00;}",
"232 350 OFFCURVE",
"290 426 OFFCURVE",
"381 426 CURVE SMOOTH",
"395 426 OFFCURVE",
"419 424 OFFCURVE",
"444 418 CURVE",
"391 -11 LINE",
"380 -103 OFFCURVE",
"311 -150 OFFCURVE",
"237 -150 CURVE SMOOTH",
"195 -150 OFFCURVE",
"150 -142 OFFCURVE",
"86 -115 CURVE",
"40 -208 LINE",
"114 -242 OFFCURVE",
"181 -250 OFFCURVE",
"233 -250 CURVE SMOOTH"
);
}
);
width = 591;
}
);
unicode = 0067;
},
{
glyphname = h;
layers = (
{
anchors = (
{
name = bottom;
position = "{291, 0}";
},
{
name = center;
position = "{182, 640}";
},
{
name = top;
position = "{130, 758}";
}
);
hints = (
{
horizontal = 1;
origin = "{0, 3}";
target = up;
type = BottomGhost;
},
{
horizontal = 1;
origin = "{1, 2}";
target = "{0, 3}";
type = Stem;
},
{
horizontal = 1;
origin = "{0, 0}";
target = down;
type = TopGhost;
},
{
origin = "{0, 3}";
target = "{1, 2}";
type = Stem;
},
{
origin = "{1, 16}";
target = "{0, 3}";
type = Stem;
}
);
layerId = "BAA2CE79-BA31-4701-835E-3D9478C3F4B2";
paths = (
{
closed = 1;
nodes = (
"176 0 LINE",
"176 758 LINE",
"83 758 LINE",
"83 0 LINE {name = hr00;}"
);
},
{
closed = 1;
nodes = (
"502 0 LINE",
"502 366 LINE SMOOTH",
"502 490 OFFCURVE",
"439 527 OFFCURVE",
"362 527 CURVE SMOOTH",
"325 527 OFFCURVE",
"282 516 OFFCURVE",
"211 474 CURVE",
"239 445 OFFCURVE",
"270 438 OFFCURVE",
"309 447 CURVE SMOOTH",
"327 451 OFFCURVE",
"334 455 OFFCURVE",
"350 455 CURVE SMOOTH",
"389 455 OFFCURVE",
"406 422 OFFCURVE",
"406 376 CURVE",
"406 0 LINE"
);
}
);
width = 582;
},
{
anchors = (
{
name = bottom;
position = "{291, 0}";
},
{
name = center;
position = "{275, 640}";
},
{
name = top;
position = "{222, 758}";
}
);
hints = (
{
horizontal = 1;
origin = "{0, 3}";
target = up;
type = BottomGhost;
},
{
horizontal = 1;
origin = "{1, 2}";
target = "{0, 3}";
type = Stem;
},
{
horizontal = 1;
origin = "{0, 0}";
target = down;
type = TopGhost;
}
);
layerId = "3BBF7C5C-CA4C-45AB-AE18-0528A0ACCA90";
paths = (
{
closed = 1;
nodes = (
"176 0 LINE",
"268 751 LINE",
"176 758 LINE",
"83 0 LINE {name = hr00;}"
);
},
{
closed = 1;
nodes = (
"502 0 LINE",
"546 366 LINE SMOOTH",
"562 490 OFFCURVE",
"503 527 OFFCURVE",
"426 527 CURVE SMOOTH",
"389 527 OFFCURVE",
"345 516 OFFCURVE",
"269 474 CURVE",
"293 445 OFFCURVE",
"323 438 OFFCURVE",
"363 447 CURVE SMOOTH",
"382 451 OFFCURVE",
"389 455 OFFCURVE",
"405 455 CURVE SMOOTH",
"444 455 OFFCURVE",
"457 422 OFFCURVE",
"452 376 CURVE",
"406 0 LINE"
);
}
);
width = 582;
},
{
anchors = (
{
name = bottom;
position = "{304, 0}";
},
{
name = center;
position = "{209, 635}";
},
{
name = top;
position = "{143, 758}";
}
);
hints = (
{
horizontal = 1;
origin = "{0, 3}";
target = up;
type = BottomGhost;
},
{
horizontal = 1;
origin = "{1, 5}";
target = "{0, 3}";
type = Stem;
},
{
horizontal = 1;
origin = "{0, 0}";
target = down;
type = TopGhost;
},
{
origin = "{0, 3}";
target = "{1, 2}";
type = Stem;
},
{
origin = "{1, 16}";
target = "{0, 3}";
type = Stem;
}
);
layerId = "58254875-FB9E-4C1D-8B15-704836B9A7CF";
paths = (
{
closed = 1;
nodes = (
"212 0 LINE",
"212 758 LINE",
"73 758 LINE",
"73 0 LINE {name = hr00;}"
);
},
{
closed = 1;
nodes = (
"535 0 LINE",
"535 369 LINE SMOOTH",
"535 478 OFFCURVE",
"465 530 OFFCURVE",
"396 530 CURVE SMOOTH",
"359 530 OFFCURVE",
"313 523 OFFCURVE",
"248 486 CURVE",
"267 450 OFFCURVE",
"288 417 OFFCURVE",
"318 419 CURVE SMOOTH",
"335 420 OFFCURVE",
"340 424 OFFCURVE",
"352 424 CURVE SMOOTH",
"382 424 OFFCURVE",
"396 400 OFFCURVE",
"396 367 CURVE",
"396 0 LINE"
);
}
);
width = 608;
},
{
anchors = (
{
name = bottom;
position = "{304, 0}";
},
{
name = center;
position = "{283, 635}";
},
{
name = top;
position = "{235, 758}";
}
);
hints = (
{
horizontal = 1;
origin = "{0, 3}";
target = up;
type = BottomGhost;
},
{
horizontal = 1;
origin = "{1, 5}";
target = "{1, 11}";
type = Stem;
},
{
horizontal = 1;
origin = "{0, 0}";
target = down;
type = TopGhost;
}
);
layerId = "5E1C92F4-866D-4CC0-BA00-538F5374015A";
paths = (
{
closed = 1;
nodes = (
"212 0 LINE",
"304 751 LINE",
"166 758 LINE",
"73 0 LINE {name = hr00;}"
);
},
{
closed = 1;
nodes = (
"535 0 LINE",
"580 369 LINE SMOOTH",
"593 478 OFFCURVE",
"530 530 OFFCURVE",
"461 530 CURVE SMOOTH",
"424 530 OFFCURVE",
"377 523 OFFCURVE",
"307 486 CURVE",
"322 450 OFFCURVE",
"339 417 OFFCURVE",
"369 419 CURVE SMOOTH",
"386 420 OFFCURVE",
"392 424 OFFCURVE",
"404 424 CURVE SMOOTH",
"434 424 OFFCURVE",
"445 400 OFFCURVE",
"441 367 CURVE",
"396 0 LINE"
);
}
);
width = 608;
}
);
unicode = 0068;
},
{
glyphname = idotless;
layers = (
{
anchors = (
{
name = bottom;
position = "{128, 0}";
},
{
name = ogonek;
position = "{176, 0}";
},
{
name = top;
position = "{128, 517}";
}
);
hints = (
{
horizontal = 1;
origin = "{0, 3}";
target = up;
type = BottomGhost;
},
{
horizontal = 1;
origin = "{0, 2}";
target = down;
type = TopGhost;
},
{
horizontal = 1;
place = "{517, 150}";
type = Stem;
},
{
origin = "{0, 2}";
target = "{0, 1}";
type = Stem;
}
);
layerId = "BAA2CE79-BA31-4701-835E-3D9478C3F4B2";
paths = (
{
closed = 1;
nodes = (
"176 0 LINE",
"176 517 LINE",
"80 517 LINE",
"80 0 LINE"
);
}
);
width = 256;
},
{
anchors = (
{
name = bottom;
position = "{128, 0}";
},
{
name = ogonek;
position = "{176, 0}";
},
{
name = top;
position = "{191, 517}";
}
);
hints = (
{
horizontal = 1;
origin = "{0, 3}";
target = up;
type = BottomGhost;
},
{
horizontal = 1;
origin = "{0, 2}";
target = down;
type = TopGhost;
},
{
horizontal = 1;
place = "{517, 121}";
type = Stem;
}
);
layerId = "3BBF7C5C-CA4C-45AB-AE18-0528A0ACCA90";
paths = (
{
closed = 1;
nodes = (
"176 0 LINE",
"239 517 LINE",
"143 517 LINE",
"80 0 LINE {name = hr00;}"
);
}
);
width = 256;
},
{
anchors = (
{
name = bottom;
position = "{140, 0}";
},
{
name = ogonek;
position = "{210, 0}";
},
{
name = top;
position = "{140, 517}";
}
);
hints = (
{
horizontal = 1;
origin = "{0, 3}";
target = up;
type = BottomGhost;
},
{
horizontal = 1;
origin = "{0, 2}";
target = down;
type = TopGhost;
},
{
horizontal = 1;
place = "{517, 166}";
type = Stem;
},
{
origin = "{0, 2}";
target = "{0, 1}";
type = Stem;
}
);
layerId = "58254875-FB9E-4C1D-8B15-704836B9A7CF";
paths = (
{
closed = 1;
nodes = (
"210 0 LINE",
"210 517 LINE",
"70 517 LINE",
"70 0 LINE"
);
}
);
width = 280;
},
{
anchors = (
{
name = bottom;
position = "{140, 0}";
},
{
name = ogonek;
position = "{210, 0}";
},
{
name = top;
position = "{203, 517}";
}
);
hints = (
{
horizontal = 1;
origin = "{0, 3}";
target = up;
type = BottomGhost;
},
{
horizontal = 1;
origin = "{0, 2}";
target = down;
type = TopGhost;
},
{
horizontal = 1;
place = "{517, 166}";
type = Stem;
}
);
layerId = "5E1C92F4-866D-4CC0-BA00-538F5374015A";
paths = (
{
closed = 1;
nodes = (
"210 0 LINE",
"273 517 LINE",
"133 517 LINE",
"70 0 LINE {name = hr00;}"
);
}
);
width = 280;
}
);
unicode = 0131;
},
{
glyphname = j;
layers = (
{
hints = (
{
horizontal = 1;
origin = "{1, 2}";
target = up;
type = BottomGhost;
},
{
horizontal = 1;
origin = "{1, 7}";
target = "{0, 8}";
type = Stem;
},
{
origin = "{1, 6}";
target = "{1, 9}";
type = Stem;
}
);
layerId = "BAA2CE79-BA31-4701-835E-3D9478C3F4B2";
paths = (
{
closed = 1;
nodes = (
"167 -143 OFFCURVE",
"196 -67 OFFCURVE",
"196 39 CURVE",
"196 517 LINE {name = hr01;}",
"101 517 LINE",
"101 39 LINE SMOOTH",
"101 -55 OFFCURVE",
"84 -101 OFFCURVE",
"-25 -195 CURVE",
"18 -248 LINE"
);
},
{
closed = 1;
nodes = (
"184 607 OFFCURVE",
"210 632 OFFCURVE",
"210 667 CURVE SMOOTH",
"210 703 OFFCURVE",
"184 729 OFFCURVE",
"148 729 CURVE SMOOTH",
"113 729 OFFCURVE",
"89 703 OFFCURVE",
"89 667 CURVE",
"89 632 OFFCURVE",
"113 607 OFFCURVE",
"148 607 CURVE SMOOTH"
);
}
);
width = 279;
},
{
hints = (
{
horizontal = 1;
origin = "{1, 2}";
target = up;
type = BottomGhost;
},
{
horizontal = 1;
origin = "{1, 7}";
target = "{0, 8}";
type = Stem;
}
);
layerId = "3BBF7C5C-CA4C-45AB-AE18-0528A0ACCA90";
paths = (
{
closed = 1;
nodes = (
"149 -143 OFFCURVE",
"187 -67 OFFCURVE",
"200 39 CURVE",
"259 517 LINE",
"164 517 LINE {name = hr01;}",
"105 39 LINE SMOOTH",
"94 -55 OFFCURVE",
"71 -101 OFFCURVE",
"-48 -195 CURVE",
"-12 -248 LINE"
);
},
{
closed = 1;
nodes = (
"258 607 OFFCURVE",
"287 632 OFFCURVE",
"291 667 CURVE SMOOTH",
"296 703 OFFCURVE",
"273 729 OFFCURVE",
"237 729 CURVE SMOOTH",
"202 729 OFFCURVE",
"175 703 OFFCURVE",
"170 667 CURVE",
"166 632 OFFCURVE",
"187 607 OFFCURVE",
"222 607 CURVE SMOOTH"
);
}
);
width = 279;
},
{
hints = (
{
horizontal = 1;
origin = "{0, 2}";
target = up;
type = BottomGhost;
},
{
horizontal = 1;
origin = "{1, 8}";
target = "{1, 2}";
type = Stem;
},
{
origin = "{1, 11}";
target = "{1, 5}";
type = Stem;
}
);
layerId = "58254875-FB9E-4C1D-8B15-704836B9A7CF";
paths = (
{
closed = 1;
nodes = (
"178 -147 OFFCURVE",
"222 -78 OFFCURVE",
"222 48 CURVE",
"222 517 LINE",
"83 517 LINE",
"83 48 LINE SMOOTH",
"83 -50 OFFCURVE",
"64 -91 OFFCURVE",
"-35 -176 CURVE",
"24 -249 LINE"
);
},
{
closed = 1;
nodes = (
"200 585 OFFCURVE",
"236 621 OFFCURVE",
"236 667 CURVE SMOOTH",
"236 714 OFFCURVE",
"200 751 OFFCURVE",
"153 751 CURVE SMOOTH",
"107 751 OFFCURVE",
"71 714 OFFCURVE",
"71 667 CURVE SMOOTH {name = hr01;}",
"71 621 OFFCURVE",
"107 585 OFFCURVE",
"153 585 CURVE SMOOTH"
);
}
);
width = 295;
},
{
hints = (
{
horizontal = 1;
origin = "{0, 2}";
target = up;
type = BottomGhost;
},
{
horizontal = 1;
origin = "{1, 8}";
target = "{1, 2}";
type = Stem;
}
);
layerId = "5E1C92F4-866D-4CC0-BA00-538F5374015A";
paths = (
{
closed = 1;
nodes = (
"159 -147 OFFCURVE",
"212 -78 OFFCURVE",
"227 48 CURVE",
"285 517 LINE",
"146 517 LINE",
"88 48 LINE SMOOTH",
"76 -50 OFFCURVE",
"52 -91 OFFCURVE",
"-56 -176 CURVE",
"-6 -249 LINE"
);
},
{
closed = 1;
nodes = (
"271 585 OFFCURVE",
"312 621 OFFCURVE",
"317 667 CURVE SMOOTH",
"323 714 OFFCURVE",
"292 751 OFFCURVE",
"245 751 CURVE SMOOTH {name = hr01;}",
"199 751 OFFCURVE",
"158 714 OFFCURVE",
"152 667 CURVE SMOOTH",
"147 621 OFFCURVE",
"178 585 OFFCURVE",
"224 585 CURVE SMOOTH"
);
}
);
width = 295;
}
);
unicode = 006A;
},
{
glyphname = k;
layers = (
{
anchors = (
{
name = bottom;
position = "{311, 0}";
},
{
name = top;
position = "{130, 758}";
}
);
hints = (
{
horizontal = 1;
origin = "{1, 3}";
target = up;
type = BottomGhost;
},
{
horizontal = 1;
origin = "{0, 3}";
target = down;
type = TopGhost;
},
{
horizontal = 1;
origin = "{1, 0}";
target = down;
type = TopGhost;
},
{
origin = "{1, 3}";
target = "{1, 2}";
type = Stem;
}
);
layerId = "BAA2CE79-BA31-4701-835E-3D9478C3F4B2";
paths = (
{
closed = 1;
nodes = (
"557 0 LINE",
"362 335 LINE",
"527 517 LINE",
"417 517 LINE",
"254 328 LINE SMOOTH",
"217 285 OFFCURVE",
"211 222 OFFCURVE",
"226 183 CURVE",
"291 257 LINE",
"303 270 LINE",
"313 251 LINE",
"451 0 LINE"
);
},
{
closed = 1;
nodes = (
"176 0 LINE {name = hr00;}",
"176 758 LINE",
"83 758 LINE",
"83 0 LINE"
);
}
);
width = 581;
},
{
anchors = (
{
name = bottom;
position = "{306, 0}";
},
{
name = top;
position = "{222, 758}";
}
);
hints = (
{
horizontal = 1;
origin = "{1, 3}";
target = up;
type = BottomGhost;
},
{
horizontal = 1;
origin = "{0, 3}";
target = down;
type = TopGhost;
},
{
horizontal = 1;
origin = "{1, 0}";
target = down;
type = TopGhost;
}
);
layerId = "3BBF7C5C-CA4C-45AB-AE18-0528A0ACCA90";
paths = (
{
closed = 1;
nodes = (
"557 0 LINE",
"403 335 LINE",
"583 510 LINE",
"480 517 LINE",
"294 328 LINE SMOOTH",
"251 285 OFFCURVE",
"238 222 OFFCURVE",
"248 183 CURVE",
"318 252 LINE",
"336 270 LINE",
"345 249 LINE",
"451 0 LINE"
);
},
{
closed = 1;
nodes = (
"176 0 LINE {name = hr00;}",
"268 751 LINE",
"176 758 LINE",
"83 0 LINE"
);
}
);
width = 581;
},
{
anchors = (
{
name = bottom;
position = "{327, 0}";
},
{
name = top;
position = "{143, 758}";
}
);
hints = (
{
horizontal = 1;
origin = "{0, 0}";
target = up;
type = BottomGhost;
},
{
horizontal = 1;
origin = "{1, 1}";
target = down;
type = TopGhost;
},
{
horizontal = 1;
origin = "{0, 1}";
target = down;
type = TopGhost;
},
{
origin = "{0, 0}";
target = "{0, 3}";
type = Stem;
}
);
layerId = "58254875-FB9E-4C1D-8B15-704836B9A7CF";
paths = (
{
closed = 1;
nodes = (
"606 0 LINE",
"407 338 LINE",
"575 517 LINE",
"414 517 LINE",
"324 408 LINE SMOOTH",
"276 349 OFFCURVE",
"244 272 OFFCURVE",
"259 180 CURVE",
"313 237 LINE",
"327 257 LINE",
"334 233 LINE",
"452 0 LINE"
);
},
{
closed = 1;
nodes = (
"212 0 LINE {name = hr00;}",
"212 758 LINE",
"73 758 LINE",
"73 0 LINE"
);
}
);
width = 624;
},
{
anchors = (
{
name = bottom;
position = "{326, 0}";
},
{
name = top;
position = "{235, 758}";
}
);
hints = (
{
horizontal = 1;
origin = "{0, 0}";
target = up;
type = BottomGhost;
},
{
horizontal = 1;
origin = "{1, 1}";
target = down;
type = TopGhost;
},
{
horizontal = 1;
origin = "{0, 1}";
target = down;
type = TopGhost;
}
);
layerId = "5E1C92F4-866D-4CC0-BA00-538F5374015A";
paths = (
{
closed = 1;
nodes = (
"606 0 LINE",
"448 338 LINE",
"630 510 LINE",
"477 517 LINE",
"374 408 LINE SMOOTH",
"318 349 OFFCURVE",
"277 272 OFFCURVE",
"281 180 CURVE",
"342 237 LINE",
"358 257 LINE",
"362 233 LINE",
"452 0 LINE"
);
},
{
closed = 1;
nodes = (
"212 0 LINE {name = hr00;}",
"304 751 LINE",
"166 758 LINE",
"73 0 LINE"
);
}
);
width = 624;
}
);
unicode = 006B;
},
{
glyphname = l;
layers = (
{
anchors = (
{
name = bottom;
position = "{131, 0}";
},
{
name = center;
position = "{131, 450}";
},
{
name = top;
position = "{131, 758}";
},
{
name = topright;
position = "{234, 758}";
}
);
hints = (
{
horizontal = 1;
origin = "{0, 0}";
target = up;
type = BottomGhost;
},
{
horizontal = 1;
origin = "{0, 1}";
target = down;
type = TopGhost;
},
{
origin = "{0, 0}";
target = "{0, 3}";
type = Stem;
}
);
layerId = "BAA2CE79-BA31-4701-835E-3D9478C3F4B2";
paths = (
{
closed = 1;
nodes = (
"176 0 LINE {name = hr00;}",
"176 758 LINE",
"85 758 LINE",
"85 0 LINE"
);
}
);
width = 254;
},
{
anchors = (
{
name = bottom;
position = "{131, 0}";
},
{
name = center;
position = "{186, 450}";
},
{
name = top;
position = "{223, 758}";
},
{
name = topright;
position = "{307, 758}";
}
);
hints = (
{
horizontal = 1;
origin = "{0, 0}";
target = up;
type = BottomGhost;
},
{
horizontal = 1;
origin = "{0, 1}";
target = down;
type = TopGhost;
}
);
layerId = "3BBF7C5C-CA4C-45AB-AE18-0528A0ACCA90";
paths = (
{
closed = 1;
nodes = (
"176 0 LINE {name = hr00;}",
"268 751 LINE",
"178 758 LINE",
"85 0 LINE"
);
}
);
width = 254;
},
{
anchors = (
{
name = bottom;
position = "{145, 0}";
},
{
name = center;
position = "{145, 450}";
},
{
name = top;
position = "{145, 758}";
},
{
name = topright;
position = "{273, 758}";
}
);
hints = (
{
horizontal = 1;
origin = "{0, 0}";
target = up;
type = BottomGhost;
},
{
horizontal = 1;
origin = "{0, 1}";
target = down;
type = TopGhost;
},
{
origin = "{0, 0}";
target = "{0, 3}";
type = Stem;
}
);
layerId = "58254875-FB9E-4C1D-8B15-704836B9A7CF";
paths = (
{
closed = 1;
nodes = (
"214 0 LINE {name = hr00;}",
"214 758 LINE",
"75 758 LINE",
"75 0 LINE"
);
}
);
width = 282;
},
{
anchors = (
{
name = bottom;
position = "{145, 0}";
},
{
name = center;
position = "{200, 450}";
},
{
name = top;
position = "{237, 758}";
},
{
name = topright;
position = "{356, 758}";
}
);
hints = (
{
horizontal = 1;
origin = "{0, 0}";
target = up;
type = BottomGhost;
},
{
horizontal = 1;
origin = "{0, 1}";
target = down;
type = TopGhost;
}
);
layerId = "5E1C92F4-866D-4CC0-BA00-538F5374015A";
paths = (
{
closed = 1;
nodes = (
"214 0 LINE {name = hr00;}",
"306 751 LINE",
"168 758 LINE",
"75 0 LINE"
);
}
);
width = 282;
}
);
unicode = 006C;
},
{
glyphname = m;
layers = (
{
anchors = (
{
name = bottom;
position = "{455, 0}";
},
{
name = top;
position = "{455, 517}";
}
);
hints = (
{
horizontal = 1;
origin = "{0, 4}";
target = up;
type = BottomGhost;
},
{
horizontal = 1;
origin = "{1, 2}";
target = "{1, 11}";
type = Stem;
},
{
origin = "{0, 4}";
target = "{0, 3}";
type = Stem;
},
{
origin = "{1, 16}";
target = "{1, 15}";
type = Stem;
},
{
origin = "{2, 16}";
target = "{2, 15}";
type = Stem;
}
);
layerId = "BAA2CE79-BA31-4701-835E-3D9478C3F4B2";
paths = (
{
closed = 1;
nodes = (
"824 0 LINE",
"824 366 LINE SMOOTH",
"824 490 OFFCURVE",
"755 527 OFFCURVE",
"676 527 CURVE SMOOTH",
"640 527 OFFCURVE",
"591 516 OFFCURVE",
"520 474 CURVE",
"548 445 OFFCURVE",
"581 438 OFFCURVE",
"620 447 CURVE SMOOTH",
"638 451 OFFCURVE",
"650 455 OFFCURVE",
"666 455 CURVE SMOOTH",
"708 455 OFFCURVE",
"728 422 OFFCURVE",
"728 376 CURVE",
"728 0 LINE"
);
},
{
closed = 1;
nodes = (
"181 0 LINE",
"181 407 LINE SMOOTH",
"181 447 OFFCURVE",
"174 481 OFFCURVE",
"142 517 CURVE",
"70 517 LINE",
"81 470 OFFCURVE",
"85 428 OFFCURVE",
"85 391 CURVE SMOOTH",
"85 0 LINE"
);
},
{
closed = 1;
nodes = (
"503 0 LINE",
"503 366 LINE SMOOTH",
"503 490 OFFCURVE",
"438 527 OFFCURVE",
"360 527 CURVE SMOOTH {name = hr01;}",
"324 527 OFFCURVE",
"279 517 OFFCURVE",
"208 475 CURVE",
"236 446 OFFCURVE",
"267 439 OFFCURVE",
"306 448 CURVE SMOOTH",
"323 452 OFFCURVE",
"333 455 OFFCURVE",
"349 455 CURVE SMOOTH",
"388 455 OFFCURVE",
"407 422 OFFCURVE",
"407 376 CURVE",
"407 0 LINE"
);
}
);
width = 902;
},
{
anchors = (
{
name = bottom;
position = "{455, 0}";
},
{
name = top;
position = "{516, 517}";
}
);
hints = (
{
horizontal = 1;
origin = "{0, 4}";
target = up;
type = BottomGhost;
},
{
horizontal = 1;
origin = "{1, 2}";
target = "{1, 1}";
type = Stem;
}
);
layerId = "3BBF7C5C-CA4C-45AB-AE18-0528A0ACCA90";
paths = (
{
closed = 1;
nodes = (
"824 0 LINE",
"868 366 LINE SMOOTH",
"884 490 OFFCURVE",
"819 527 OFFCURVE",
"740 527 CURVE SMOOTH",
"704 527 OFFCURVE",
"654 516 OFFCURVE",
"578 474 CURVE",
"602 445 OFFCURVE",
"634 438 OFFCURVE",
"674 447 CURVE SMOOTH",
"693 451 OFFCURVE",
"705 455 OFFCURVE",
"721 455 CURVE SMOOTH",
"763 455 OFFCURVE",
"779 422 OFFCURVE",
"774 376 CURVE",
"728 0 LINE"
);
},
{
closed = 1;
nodes = (
"181 0 LINE",
"230 407 LINE SMOOTH",
"235 447 OFFCURVE",
"233 481 OFFCURVE",
"205 517 CURVE",
"132 512 LINE",
"137 465 OFFCURVE",
"136 423 OFFCURVE",
"132 386 CURVE SMOOTH",
"85 0 LINE"
);
},
{
closed = 1;
nodes = (
"503 0 LINE",
"547 366 LINE SMOOTH",
"563 490 OFFCURVE",
"502 527 OFFCURVE",
"424 527 CURVE SMOOTH",
"388 527 OFFCURVE",
"342 517 OFFCURVE",
"266 475 CURVE",
"290 446 OFFCURVE",
"320 439 OFFCURVE",
"361 448 CURVE SMOOTH",
"378 452 OFFCURVE",
"388 455 OFFCURVE",
"404 455 CURVE SMOOTH {name = hr01;}",
"443 455 OFFCURVE",
"458 422 OFFCURVE",
"453 376 CURVE",
"407 0 LINE"
);
}
);
width = 902;
},
{
anchors = (
{
name = bottom;
position = "{464, 0}";
},
{
name = top;
position = "{464, 517}";
}
);
hints = (
{
horizontal = 1;
origin = "{0, 4}";
target = up;
type = BottomGhost;
},
{
horizontal = 1;
origin = "{1, 5}";
target = "{1, 11}";
type = Stem;
},
{
origin = "{0, 4}";
target = "{0, 3}";
type = Stem;
},
{
origin = "{1, 16}";
target = "{1, 15}";
type = Stem;
},
{
origin = "{2, 16}";
target = "{2, 15}";
type = Stem;
}
);
layerId = "58254875-FB9E-4C1D-8B15-704836B9A7CF";
paths = (
{
closed = 1;
nodes = (
"852 0 LINE",
"852 369 LINE SMOOTH",
"852 478 OFFCURVE",
"779 530 OFFCURVE",
"710 530 CURVE SMOOTH",
"663 530 OFFCURVE",
"617 517 OFFCURVE",
"544 487 CURVE",
"562 451 OFFCURVE",
"588 416 OFFCURVE",
"620 418 CURVE SMOOTH",
"637 419 OFFCURVE",
"651 424 OFFCURVE",
"663 424 CURVE SMOOTH",
"700 424 OFFCURVE",
"713 400 OFFCURVE",
"713 367 CURVE",
"713 0 LINE"
);
},
{
closed = 1;
nodes = (
"215 0 LINE",
"215 407 LINE SMOOTH",
"215 447 OFFCURVE",
"208 481 OFFCURVE",
"176 517 CURVE",
"60 517 LINE",
"71 470 OFFCURVE",
"75 428 OFFCURVE",
"75 391 CURVE SMOOTH",
"75 0 LINE"
);
},
{
closed = 1;
nodes = (
"534 0 LINE",
"534 369 LINE SMOOTH",
"534 478 OFFCURVE",
"468 530 OFFCURVE",
"399 530 CURVE SMOOTH",
"352 530 OFFCURVE",
"309 517 OFFCURVE",
"237 488 CURVE",
"255 452 OFFCURVE",
"279 417 OFFCURVE",
"311 419 CURVE SMOOTH {name = hr01;}",
"327 420 OFFCURVE",
"338 424 OFFCURVE",
"350 424 CURVE SMOOTH",
"384 424 OFFCURVE",
"394 400 OFFCURVE",
"394 367 CURVE",
"394 0 LINE"
);
}
);
width = 930;
},
{
anchors = (
{
name = bottom;
position = "{464, 0}";
},
{
name = top;
position = "{528, 517}";
}
);
hints = (
{
horizontal = 1;
origin = "{0, 4}";
target = up;
type = BottomGhost;
},
{
horizontal = 1;
origin = "{1, 5}";
target = "{1, 1}";
type = Stem;
}
);
layerId = "5E1C92F4-866D-4CC0-BA00-538F5374015A";
paths = (
{
closed = 1;
nodes = (
"852 0 LINE",
"897 369 LINE SMOOTH",
"910 478 OFFCURVE",
"844 530 OFFCURVE",
"775 530 CURVE SMOOTH",
"728 530 OFFCURVE",
"680 517 OFFCURVE",
"603 487 CURVE",
"617 451 OFFCURVE",
"639 416 OFFCURVE",
"671 418 CURVE SMOOTH",
"688 419 OFFCURVE",
"703 424 OFFCURVE",
"715 424 CURVE SMOOTH",
"752 424 OFFCURVE",
"762 400 OFFCURVE",
"758 367 CURVE",
"713 0 LINE"
);
},
{
closed = 1;
nodes = (
"215 0 LINE",
"264 407 LINE SMOOTH",
"269 447 OFFCURVE",
"267 481 OFFCURVE",
"239 517 CURVE",
"122 512 LINE",
"127 465 OFFCURVE",
"126 423 OFFCURVE",
"122 386 CURVE SMOOTH",
"75 0 LINE"
);
},
{
closed = 1;
nodes = (
"534 0 LINE",
"579 369 LINE SMOOTH",
"592 478 OFFCURVE",
"533 530 OFFCURVE",
"464 530 CURVE SMOOTH",
"417 530 OFFCURVE",
"372 517 OFFCURVE",
"296 488 CURVE",
"310 452 OFFCURVE",
"330 417 OFFCURVE",
"362 419 CURVE SMOOTH {name = hr01;}",
"378 420 OFFCURVE",
"390 424 OFFCURVE",
"402 424 CURVE SMOOTH",
"436 424 OFFCURVE",
"443 400 OFFCURVE",
"439 367 CURVE",
"394 0 LINE"
);
}
);
width = 930;
}
);
unicode = 006D;
},
{
glyphname = n;
layers = (
{
anchors = (
{
name = bottom;
position = "{297, 0}";
},
{
name = top;
position = "{300, 517}";
}
);
hints = (
{
horizontal = 1;
origin = "{0, 4}";
target = up;
type = BottomGhost;
},
{
horizontal = 1;
origin = "{1, 2}";
target = "{1, 1}";
type = Stem;
},
{
origin = "{0, 4}";
target = "{0, 3}";
type = Stem;
},
{
origin = "{1, 6}";
target = "{1, 5}";
type = Stem;
}
);
layerId = "BAA2CE79-BA31-4701-835E-3D9478C3F4B2";
paths = (
{
closed = 1;
nodes = (
"509 0 LINE",
"509 366 LINE SMOOTH",
"509 490 OFFCURVE",
"440 527 OFFCURVE",
"360 527 CURVE SMOOTH {name = hr01;}",
"324 527 OFFCURVE",
"279 516 OFFCURVE",
"208 474 CURVE",
"236 445 OFFCURVE",
"269 438 OFFCURVE",
"308 447 CURVE SMOOTH",
"325 451 OFFCURVE",
"335 455 OFFCURVE",
"351 455 CURVE SMOOTH",
"392 455 OFFCURVE",
"413 422 OFFCURVE",
"413 376 CURVE",
"413 0 LINE"
);
},
{
closed = 1;
nodes = (
"181 0 LINE",
"181 407 LINE SMOOTH",
"181 447 OFFCURVE",
"174 481 OFFCURVE",
"142 517 CURVE",
"70 517 LINE",
"81 470 OFFCURVE",
"85 428 OFFCURVE",
"85 391 CURVE SMOOTH",
"85 0 LINE"
);
}
);
width = 596;
},
{
anchors = (
{
name = bottom;
position = "{297, 0}";
},
{
name = top;
position = "{363, 517}";
}
);
hints = (
{
horizontal = 1;
origin = "{0, 4}";
target = up;
type = BottomGhost;
},
{
horizontal = 1;
origin = "{1, 2}";
target = "{1, 1}";
type = Stem;
}
);
layerId = "3BBF7C5C-CA4C-45AB-AE18-0528A0ACCA90";
paths = (
{
closed = 1;
nodes = (
"509 0 LINE",
"553 366 LINE SMOOTH",
"569 490 OFFCURVE",
"504 527 OFFCURVE",
"424 527 CURVE SMOOTH",
"388 527 OFFCURVE",
"342 516 OFFCURVE",
"266 474 CURVE",
"290 445 OFFCURVE",
"322 438 OFFCURVE",
"362 447 CURVE SMOOTH",
"380 451 OFFCURVE",
"390 455 OFFCURVE",
"406 455 CURVE SMOOTH {name = hr01;}",
"447 455 OFFCURVE",
"464 422 OFFCURVE",
"459 376 CURVE",
"413 0 LINE"
);
},
{
closed = 1;
nodes = (
"181 0 LINE",
"230 407 LINE SMOOTH",
"235 447 OFFCURVE",
"233 481 OFFCURVE",
"205 517 CURVE",
"132 512 LINE",
"137 465 OFFCURVE",
"136 423 OFFCURVE",
"132 386 CURVE SMOOTH",
"85 0 LINE"
);
}
);
width = 596;
},
{
anchors = (
{
name = bottom;
position = "{285, 0}";
},
{
name = top;
position = "{284, 517}";
}
);
hints = (
{
horizontal = 1;
origin = "{0, 4}";
target = up;
type = BottomGhost;
},
{
horizontal = 1;
origin = "{1, 5}";
target = "{1, 1}";
type = Stem;
},
{
origin = "{0, 4}";
target = "{0, 3}";
type = Stem;
},
{
origin = "{1, 6}";
target = "{1, 5}";
type = Stem;
}
);
layerId = "58254875-FB9E-4C1D-8B15-704836B9A7CF";
paths = (
{
closed = 1;
nodes = (
"515 0 LINE",
"515 369 LINE SMOOTH",
"515 478 OFFCURVE",
"445 530 OFFCURVE",
"376 530 CURVE SMOOTH",
"330 530 OFFCURVE",
"283 519 OFFCURVE",
"217 484 CURVE",
"236 452 OFFCURVE",
"256 416 OFFCURVE",
"288 418 CURVE {name = hr01;}",
"307 419 OFFCURVE",
"317 424 OFFCURVE",
"330 424 CURVE SMOOTH",
"364 424 OFFCURVE",
"376 400 OFFCURVE",
"376 367 CURVE",
"376 0 LINE"
);
},
{
closed = 1;
nodes = (
"193 0 LINE",
"193 407 LINE SMOOTH",
"193 447 OFFCURVE",
"185 481 OFFCURVE",
"153 517 CURVE",
"37 517 LINE",
"48 470 OFFCURVE",
"53 428 OFFCURVE",
"53 391 CURVE SMOOTH",
"53 0 LINE"
);
}
);
width = 578;
},
{
anchors = (
{
name = bottom;
position = "{285, 0}";
},
{
name = top;
position = "{346, 517}";
}
);
hints = (
{
horizontal = 1;
origin = "{0, 4}";
target = up;
type = BottomGhost;
},
{
horizontal = 1;
origin = "{1, 5}";
target = "{1, 1}";
type = Stem;
}
);
layerId = "5E1C92F4-866D-4CC0-BA00-538F5374015A";
paths = (
{
closed = 1;
nodes = (
"515 0 LINE",
"560 369 LINE SMOOTH",
"573 478 OFFCURVE",
"510 530 OFFCURVE",
"441 530 CURVE SMOOTH",
"395 530 OFFCURVE",
"346 519 OFFCURVE",
"276 484 CURVE",
"291 452 OFFCURVE",
"307 416 OFFCURVE",
"339 418 CURVE {name = hr01;}",
"358 419 OFFCURVE",
"369 424 OFFCURVE",
"382 424 CURVE SMOOTH",
"416 424 OFFCURVE",
"425 400 OFFCURVE",
"421 367 CURVE",
"376 0 LINE"
);
},
{
closed = 1;
nodes = (
"193 0 LINE",
"242 407 LINE SMOOTH",
"247 447 OFFCURVE",
"244 481 OFFCURVE",
"216 517 CURVE",
"99 512 LINE",
"104 465 OFFCURVE",
"104 423 OFFCURVE",
"100 386 CURVE SMOOTH",
"53 0 LINE"
);
}
);
width = 578;
}
);
unicode = 006E;
},
